<?xml version="1.0" standalone="no"?><!DOCTYPE svg PUBLIC "-//W3C//DTD SVG 1.1//EN" "http://www.w3.org/Graphics/SVG/1.1/DTD/svg11.dtd"><svg class="icon" width="200px" height="200.00px" viewBox="0 0 1024 1024" version="1.1" xmlns="http://www.w3.org/2000/svg"><path d="M757.8 402.594l-20.44 142.26c-22.14 4.42-64.06 20.72-117.74 78.82-73.3 79.32-143.34 176.04-298.8 159.14l-54.62-380.24c6.38 4.88 13.34 9.56 20.82 14 53.6 31.82 134.5 52.08 225 52.08 103.12 0 193.76-26.32 245.78-66.06z" fill="#FFA0C1" /><path d="M737.36 544.854l-52.44 365c0 47.04-77.42 85.18-172.92 85.18s-172.92-38.14-172.92-85.18l-18.26-127.04c155.46 16.9 225.5-79.82 298.8-159.14 53.68-58.1 95.6-74.4 117.74-78.82z" fill="#FF78AD" /><path d="M698.88 559.594l-49.96 347.68v2.58c0 14.26-47.98 49.18-136.92 49.18s-136.92-34.92-136.92-49.18v-2.58l-49.96-347.68c50.66 23.78 115.82 38.96 186.9 38.96s136.2-15.18 186.86-38.96z" fill="#FFEDB3" /><path d="M717.96 426.834l-19.08 132.76c-50.66 23.78-115.78 38.96-186.86 38.96s-136.24-15.18-186.9-38.96l-19.08-132.78c52.82 25.86 125.62 41.84 205.98 41.84s153.12-15.98 205.94-41.82z" fill="#CB8F62" /><path d="M427.834 886.074m-28.202 0a28.202 28.202 0 1 0 56.404 0 28.202 28.202 0 1 0-56.404 0Z" fill="#9A4C2C" /><path d="M597.714 878.312m-28.202 0a28.202 28.202 0 1 0 56.404 0 28.202 28.202 0 1 0-56.404 0Z" fill="#71260D" /><path d="M614.976 754.682m-28.202 0a28.202 28.202 0 1 0 56.404 0 28.202 28.202 0 1 0-56.404 0Z" fill="#9A4C2C" /><path d="M456.036 763.64m-28.202 0a28.202 28.202 0 1 0 56.404 0 28.202 28.202 0 1 0-56.404 0Z" fill="#71260D" /><path d="M414.572 673.1m-28.202 0a28.202 28.202 0 1 0 56.404 0 28.202 28.202 0 1 0-56.404 0Z" fill="#9A4C2C" /><path d="M512.02 468.654c-80.36 0-153.14-15.98-205.98-41.82l4.74 32.9c56.4 23.88 126.98 36.92 201.24 36.92 74.22 0 144.8-13.04 201.2-36.92l4.74-32.9c-52.84 25.84-125.6 41.82-205.94 41.82z" fill="#B45631" /><path d="M310.78 459.734c-6.1-2.58-12.02-5.28-17.78-8.12-7.54-3.72-14.7-7.6-21.44-11.64l-5.36-37.38c11.48 8.78 24.86 16.9 39.84 24.24z" fill="#FF6097" /><path d="M591.72 592.034l-39.14 253.04c-1.9 12.56-12.72 21.58-25.06 21.58-1.26 0-2.54-0.1-3.84-0.3-13.86-2.1-23.4-15.04-21.28-28.9l37.06-239.66c17.94-1 35.42-2.94 52.26-5.76z" fill="#CB8F62" /><path d="M555.34 495.154c17.84-1.24 35.32-3.26 52.3-6l-15.92 102.88c-16.84 2.82-34.32 4.76-52.26 5.76z" fill="#9A4C2C" /><path d="M382.7 408.694c-30.44 6.86-62.44 9.62-95.68 7.88-42-24.92-67.24-56.94-67.24-91.88v-45.12c0 56.64 66.38 105.64 162.92 129.12z" fill="#FFAECB" /><path d="M804.22 279.574v45.12c0 79.5-130.82 143.96-292.2 143.96-90.5 0-171.4-20.26-225-52.08 33.24 1.74 65.24-1.02 95.68-7.88 38.98 9.5 82.9 14.84 129.32 14.84 161.38 0 292.2-64.46 292.2-143.96z" fill="#FF8EB9" /><path d="M776.54 218.334c-62.02 1.2-153.28 13.84-203 72.22-51.14 60.06-116.34 101.36-190.84 118.14 38.98 9.5 82.9 14.84 129.32 14.84 161.38 0 292.2-64.46 292.2-143.96 0-21.9-9.92-42.66-27.68-61.24z" fill="#FFAECB" /><path d="M776.54 218.334c-62.02 1.2-153.28 13.84-203 72.22-51.14 60.06-116.34 101.36-190.84 118.14-96.54-23.48-162.92-72.48-162.92-129.12 0-79.52 130.82-143.96 292.24-143.96 116.94 0 217.82 33.84 264.52 82.72z" fill="#FFD5E1" /><path d="M713.36 223.634c-50.84 7.92-105.32 26.42-139.82 66.92-33.06 38.84-72.02 69.82-115.56 91.42-36.78-3.96-69.9-11.84-97.76-22.12-56.22-20.8-90.98-51.52-90.98-80.28 0-49.7 103.82-105.28 242.76-105.28 86.02 0 158.58 21.3 201.36 49.34z" fill="#FFE3ED" /><path d="M754.76 279.574c0 49.7-103.82 105.28-242.76 105.28-18.7 0-36.76-1.02-54.02-2.88 43.54-21.6 82.5-52.58 115.56-91.42 34.5-40.5 88.98-59 139.82-66.92 12.12 7.92 21.86 16.4 28.84 25.1 8.18 10.18 12.56 20.64 12.56 30.84z" fill="#FFD5E1" /><path d="M570.952 257.91a48.664 26.324 0 1 0 97.328 0 48.664 26.324 0 1 0-97.328 0Z" fill="#FF6097" /><path d="M676.522 47.074c0 0.06-0.02 0.12-0.02 0.18-0.02 0.24-0.06 0.5-0.12 0.74l-28.12 188.62-6.68 44.78c-6.6 1.82-14.06 2.84-21.96 2.84-11.42 0-21.9-2.12-30.2-5.68l6.5-43.62 28.62-191.8v-0.02l0.54-3.58c0.02-0.2 0.06-0.38 0.1-0.58 2.84-6.86 14.16-11.06 27.04-9.58 14.24 1.6 25.04 9.5 24.3 17.7z" fill="#87D2ED" /><path d="M757.8 402.594l-5.36 37.38c-6.74 4.04-13.88 7.92-21.42 11.64-5.76 2.84-11.7 5.54-17.8 8.12l4.74-32.9c14.98-7.34 28.36-15.46 39.84-24.24z" fill="#FF6097" /><path d="M676.522 47.074c0 0.06-0.02 0.12-0.02 0.18-0.02 0.24-0.06 0.5-0.12 0.74-1.56 7.82-13.64 12.84-27.54 11.26-13.32-1.5-23.66-8.5-24.3-16.12v-0.02c-0.06-0.58-0.04-1.16 0.02-1.74 0.1-0.84 0.3-1.64 0.62-2.42 2.84-6.86 14.16-11.06 27.04-9.58 14.24 1.6 25.04 9.5 24.3 17.7z" fill="#2273D1" /><path d="M512.02 468.654c-80.36 0-153.14-15.98-205.98-41.82l4.74 32.9c56.4 23.88 126.98 36.92 201.24 36.92 74.22 0 144.8-13.04 201.2-36.92l4.74-32.9c-52.84 25.84-125.6 41.82-205.94 41.82z" fill="#B45631" /><path d="M612.14 459.974l-4.5 29.18c-16.98 2.74-34.46 4.76-52.3 6l4.38-28.42c18.1-1.46 35.62-3.74 52.42-6.76z" fill="#803B0D" /><path d="M644.68 261.114l-2.94 20.24c-6.64 1.84-14.16 2.88-22.12 2.88-11.52 0-22.1-2.16-30.44-5.78l2.9-18.7c4.74 2.98 14.16 6.48 27.54 6.48 11.36 0 19.86-2.52 25.06-5.12z" fill="#30A6DC" /><path d="M419.666 356.442c-0.652 0-1.314-0.064-1.976-0.198a280.872 280.872 0 0 1-24.282-5.976 10 10 0 0 1-6.756-12.424 9.992 9.992 0 0 1 12.424-6.756 261.768 261.768 0 0 0 22.544 5.546 10 10 0 0 1 7.838 11.77 10 10 0 0 1-9.792 8.038zM343.15 289.5c-0.268-0.282 3.518 5.358 4.508 6.578 2.008 2.442 4.262 4.836 6.636 7.17a121.494 121.494 0 0 0 7.566 6.756 157.228 157.228 0 0 0 8.246 6.292l0.246 0.178a10.052 10.052 0 0 1-9.69 17.454c-3.63-1.492-7.258-3.062-10.84-4.818a145.692 145.692 0 0 1-10.638-5.742c-3.498-2.106-13.746-9.542-15.43-11.024-0.842-0.722-4.642-4.438-5.448-5.468a15.156 15.156 0 0 1 3.736-21.106 15.15 15.15 0 0 1 21.108 3.73z" fill="#FFAECB" /></svg>