<?xml version="1.0" standalone="no"?><!DOCTYPE svg PUBLIC "-//W3C//DTD SVG 1.1//EN" "http://www.w3.org/Graphics/SVG/1.1/DTD/svg11.dtd"><svg class="icon" width="200px" height="200.00px" viewBox="0 0 1024 1024" version="1.1" xmlns="http://www.w3.org/2000/svg"><path d="M824.384 355.896v200.012c-123.81 3.554-207.81 73.356-278.258 141.584V468.236z" fill="#D0EFF9" /><path d="M824.384 555.908v322.782a37.492 37.492 0 0 1-23.234 34.664L560.366 1012.2a37.522 37.522 0 0 1-14.238 2.788V697.492c70.446-68.23 154.446-138.03 278.256-141.584z" fill="#B2E2F4" /><path d="M685.254 265.476l139.122 90.418-278.244 112.336z" fill="#60C3E8" /><path d="M685.256 265.474l-139.13 202.762-380.364-153.564a64.968 64.968 0 0 1 14.474-21.31l37.572-36.844c44.74-0.098 99.692 3.948 157.434 18.01 140.854 34.31 310.014-9.054 310.014-9.054z" fill="#B0E5F5" /><path d="M685.256 265.474s-169.158 43.364-310.016 9.054c-57.742-14.062-112.694-18.108-157.434-18.01l121.944-119.588z" fill="#D0EFF9" /><path d="M546.126 468.236v229.256c-55.05 53.322-101.814 105.682-152.858 124.792-125.498 46.998-232.654-136.85-232.654-136.85V340.066c0-8.818 1.768-17.44 5.146-25.394z" fill="#60C3E8" /><path d="M546.126 697.492v317.498c-4.832 0-9.662-0.924-14.22-2.788L183.85 869.32a37.462 37.462 0 0 1-23.234-34.664v-149.224s107.156 183.848 232.654 136.85c51.044-19.108 97.806-71.468 152.856-124.79z" fill="#30A6DC" /><path d="M685.254 265.476V191.704a19.166 19.166 0 0 0-12.752-18.06L355.908 61.234c-7.584-2.692-15.56 2.892-15.626 10.938l-0.528 64.754z" fill="#87D2ED" /><path d="M824.376 355.894l-161.29-58.11 22.168-32.308zM551.546 362.802c0 9.604-12.176 17.794-29.342 21.074a89.834 89.834 0 0 1-16.694 1.532c-8.426 0-16.34-1.12-23.116-3.064-13.728-3.908-22.94-11.194-22.94-19.542 0-9.544 12.078-17.696 29.126-20.996 5.244-1.04 10.94-1.59 16.93-1.59 8.19 0 15.888 1.06 22.546 2.906 14.024 3.85 23.49 11.236 23.49 19.68z" fill="#2273D1" /><path d="M333.872 510.016s113.604 227.68-1.958 212.42c-0.428-0.06-0.868-0.052-1.274-0.188-110.27-37.416 3.232-212.232 3.232-212.232z" fill="#FFFFFF" /><path d="M582.814 864.3v64.216c0 5.234 5.322 8.786 10.156 6.776l193-80.24a7.34 7.34 0 0 0 4.522-6.776v-62.5c0-5.21-5.278-8.762-10.104-6.798l-193 78.524a7.336 7.336 0 0 0-4.574 6.798z" fill="#82D5EF" /><path d="M334.058 510.016s104.548-45.55 212.068 36.558v-78.344L165.762 314.666s-5.146 11.326-5.146 21.428v73.99c0-0.002 81.932-6.352 173.442 99.932z" fill="#FFFFFF" /><path d="M573.878 27.948c0.02 1.06-0.058 2.14-0.216 3.24L522.206 383.88a89.834 89.834 0 0 1-16.694 1.532c-8.426 0-16.34-1.12-23.116-3.064L534.58 25.414a17.94 17.94 0 0 1 0.196-1.1 19.56 19.56 0 0 1 0.628-2.376c0-0.02 0-0.04 0.02-0.04 2.356-4.95 10.704-7.954 20.17-6.854 9.996 1.12 17.716 6.364 18.246 12.078 0.02 0.04 0.02 0.078 0.02 0.138-0.002 0.236 0.018 0.452 0.018 0.688z" fill="#FF78AD" /><path d="M524.43 368.63l-2.22 15.26c-5.18 0.98-10.8 1.52-16.7 1.52-8.42 0-16.34-1.12-23.12-3.06l2.18-14.92c6.96 2.74 19.36 5.02 39.86 1.2z" fill="#FF4374" /><path d="M573.878 27.948c0 0.138 0 0.256-0.02 0.392 0 0.04-0.02 0.078-0.02 0.138-0.02 0.176-0.04 0.374-0.098 0.55-1.158 5.872-10.252 9.644-20.7 8.464-9.996-1.12-17.774-6.382-18.246-12.118v-0.02a6.028 6.028 0 0 1-0.02-1.04c0-0.078 0.02-0.176 0.02-0.256 0.078-0.628 0.236-1.238 0.472-1.826 0.04-0.098 0.078-0.196 0.138-0.294 0-0.02 0-0.04 0.02-0.04 2.356-4.95 10.704-7.954 20.17-6.854 9.996 1.12 17.716 6.364 18.246 12.078 0.02 0.04 0.02 0.078 0.02 0.138-0.002 0.236 0.018 0.452 0.018 0.688z" fill="#2273D1" /></svg>