<?xml version="1.0" standalone="no"?><!DOCTYPE svg PUBLIC "-//W3C//DTD SVG 1.1//EN" "http://www.w3.org/Graphics/SVG/1.1/DTD/svg11.dtd"><svg class="icon" width="200px" height="200.00px" viewBox="0 0 1024 1024" version="1.1" xmlns="http://www.w3.org/2000/svg"><path d="M682.2 939.3c0 40.58-74.9 73.48-167.32 73.48-92.4 0-167.32-32.9-167.32-73.48 0-3.16 0.52-6.26 1.4-9.3h-0.02l5.56-25.52c-0.2 1.42-0.3 2.84-0.3 4.26 0 38.98 71.94 70.58 160.68 70.58 88.76 0 160.7-31.6 160.7-70.58 0-1.52-0.12-3.04-0.34-4.54l5.64 25.8-0.06-0.02c0.88 3.06 1.38 6.16 1.38 9.32z" fill="#42C0E7" /><path d="M354.194 908.738a160.694 70.572 0 1 0 321.388 0 160.694 70.572 0 1 0-321.388 0Z" fill="#A8E2F4" /><path d="M715.42 428.88c-15.48 2.1-32.16 5.64-32.16 5.64-50.86 15.54-116.62 24.04-168.36-21.46-50.56-44.46-115.26-48.44-165.68-31.2-9 12.22-21.88 18.3-33.14 21.3 3.08-74.38-9.82-144.2-17.98-179.86 23.58 46.12 111.7 80.38 216.78 80.38 105.1 0 193.2-34.26 216.78-80.38-9.1 39.74-24.08 121.94-16.24 205.58z" fill="#A8E2F4" /><path d="M709.98 644.62c-26.38 47.66-67.52 80.16-116.06 96.68a91.266 91.266 0 0 0-36.72 23.48c-16.24 17.02-25.82 40.06-25.82 64.66v2.02c0 20.48 13.74 38.36 33.46 43.86 22.78 6.34 37.68 16.9 37.68 28.84 0 13.24-18.26 24.76-45.24 30.76-12.56 2.78-27.02 4.38-42.4 4.38-48.4 0-87.62-15.74-87.62-35.14 0-11.94 14.9-22.5 37.66-28.84 19.74-5.5 33.48-23.38 33.48-43.86v-2.02c0-39.68-24.98-75.36-62.54-88.14-48.54-16.52-89.68-49.02-116.08-96.68-25.12-45.36-30.74-98.98-17.16-149.02 8.2-30.2 12.18-61.7 13.46-92.44 11.26-3 24.14-9.08 33.14-21.3 50.42-17.24 115.12-13.26 165.68 31.2 51.74 45.5 117.5 37 168.36 21.46 0 0 16.68-3.54 32.16-5.64 2.08 22.4 5.82 44.9 11.74 66.72 13.58 50.04 7.96 103.66-17.18 149.02z" fill="#5BC1E7" /><path d="M680.96 631.86c-32.8 57.9-93.34 91.1-166.08 91.1-72.72 0-133.26-33.2-166.06-91.1-21.16-37.34-26.62-83.54-14.96-126.76 22.86-84.8 16.14-177.22 6.04-241.36 40.86 24.34 104.06 39.94 174.98 39.94 70.94 0 134.16-15.62 175-39.96-10.1 64.14-16.82 156.56 6.04 241.36 11.66 43.24 6.2 89.438-14.96 126.78z" fill="#FFFFFF" /><path d="M683.26 434.518c-50.86 15.54-116.62 24.04-168.38-21.46-50.54-44.46-115.24-48.44-165.66-31.2 46.8-50.44 144.3-51.76 194.74 4.42 44.8 49.882 139.3 48.24 139.3 48.24z" fill="#E73147" /><path d="M680.96 631.86s-180.44 102.56-302.06-53.14c0 0-37.06-44.84-33.54-133.82 2.58-21.24 3.74-42.42 3.86-63.04 50.42-17.24 115.12-13.26 165.66 31.2 51.76 45.5 117.52 37 168.38 21.46 2.36 23.6 6.4 47.36 12.66 70.56 11.66 43.24 6.2 89.438-14.96 126.78z" fill="#F9775B" /><path d="M680.96 631.86c-32.8 57.9-93.34 91.1-166.08 91.1-72.72 0-133.26-33.2-166.06-91.1-21.16-37.34-26.62-83.54-14.96-126.76 5.34-19.8 9.06-40.02 11.5-60.2-3.52 88.98 33.54 133.82 33.54 133.82 121.62 155.7 302.06 53.14 302.06 53.14z" fill="#F9565B" /><path d="M631.92 641.16c0 4.02-0.98 7.94-2.86 11.7-54.02 16.2-141.06 26.3-215.86-37.96 20.16-15.98 58.14-26.76 101.68-26.76 64.64 0 117.04 23.74 117.04 53.02z" fill="#E73147" /><path d="M629.06 652.86c-11.74 23.66-58.4 41.34-114.18 41.34-64.62 0-117.02-23.74-117.02-53.04 0-9.56 5.58-18.52 15.34-26.26 74.8 64.26 161.84 54.158 215.86 37.96z" fill="#D02042" /><path d="M291.866 198.556a223.022 105.116 0 1 0 446.044 0 223.022 105.116 0 1 0-446.044 0Z" fill="#D0EFF9" /><path d="M514.888 270.052c-112.148 0-183.718-42.346-183.718-71.496S402.74 127.06 514.888 127.06c112.15 0 183.718 42.344 183.718 71.494s-71.568 71.498-183.718 71.498z" fill="#FFFFFF" /><path d="M845.3 225.42c-24.34 45.7-72.16 76.98-127.36 77.76 1.56-13.48 3.42-26.12 5.36-37.62 1.78-10.62 3.64-20.28 5.4-28.74 14.16 4.42 29.24 6.8 44.86 6.8 25.98 0 50.42-6.602 71.74-18.2zM689.58 217.978c-3.44 3.88-7.8 7.8-13.06 11.62-7.02 5.12-15.66 10.12-25.74 14.74-11.6 5.32-25.1 10.16-40.36 14.16-25.52-26.38-41.22-62.32-41.22-101.92 0-51.42 26.46-96.64 66.5-122.8-7.92 18.28-12.32 38.46-12.32 59.66 0 51.842 26.26 97.54 66.2 124.54z" fill="#F95E24" /><path d="M862.44 156.58c0 24.88-6.2 48.32-17.14 68.84-21.32 11.6-45.76 18.2-71.74 18.2-15.62 0-30.7-2.38-44.86-6.8 1.02-4.92 2.04-9.44 2.96-13.52 4.08-7.94 6.24-16.22 6.24-24.74 0-13.06-5.06-25.58-14.32-37.12-25.02-23.52-46.02 6.76-46.02 6.76l-0.06 0.06c13.72 10.22 21.1 20.94 21.1 30.3 0 6.08-3.1 12.72-9.02 19.42-39.94-27-66.2-72.7-66.2-124.54 0-21.2 4.4-41.38 12.32-59.66 23.02-15.06 50.54-23.82 80.12-23.82 80.98 0 146.62 65.64 146.62 146.62z" fill="#F99424" /><path d="M689.88 263.72c-1.78 11.26-3.44 23.4-4.86 36.22a145.134 145.134 0 0 1-41.18-15.6c17.36-5.822 32.86-12.76 46.04-20.62z" fill="#F95E24" /><path d="M782.16 243.36a108.61 108.61 0 0 1-58.86 22.2c1.78-10.62 3.64-20.28 5.4-28.74 14.16 4.42 29.24 6.8 44.86 6.8 2.88 0 5.76-0.08 8.6-0.26z" fill="#F9AC2F" /><path d="M825.06 156.58c0 35.38-16.82 66.82-42.9 86.78-2.84 0.18-5.72 0.26-8.6 0.26-15.62 0-30.7-2.38-44.86-6.8 1.02-4.92 2.04-9.44 2.96-13.52 4.08-7.94 6.24-16.22 6.24-24.74 0-13.06-5.06-25.58-14.32-37.12-25.02-23.52-46.02 6.76-46.02 6.76l-0.06 0.06c13.72 10.22 21.1 20.94 21.1 30.3 0 6.08-3.1 12.72-9.02 19.42-38.7-26.16-64.56-69.9-66.12-119.76 19.36-30.58 53.5-50.88 92.36-50.88 60.34 0 109.24 48.92 109.24 109.24z" fill="#F9DA5B" /><path d="M593.794 517.746l-38.854 53.144a17.366 17.366 0 0 0-1.884 17.246l25.318 57.542a12.844 12.844 0 0 1-6.99 0.958l-63.694-9.14a12.854 12.854 0 0 1-9.95-7.546l-23.112-52.532a12.848 12.848 0 0 1 1.664-13.102l38.234-48.73a12.868 12.868 0 0 1 11.094-4.882l61.758 4.736a12.938 12.938 0 0 1 6.416 2.306z" fill="#F9B850" /><path d="M598.16 523.068l23.112 52.532a12.86 12.86 0 0 1-1.16 12.434l-36.304 53.156a12.936 12.936 0 0 1-5.434 4.49l-25.318-57.542a17.366 17.366 0 0 1 1.884-17.246l38.854-53.144a12.79 12.79 0 0 1 4.366 5.32z" fill="#F9DF62" /><path d="M513.08 411.518c-29.94-25.64-64.7-37.3-98.44-38.92 2.06-1.18 4.46-1.78 6.92-1.66l61.88 2.7c4.3 0.2 8.2 2.5 10.42 6.18z" fill="#FFEE87" /><path d="M527.84 439.34l-65.82-0.64c-6.2-0.06-11.96 3.2-15.12 8.52l-32.04 54.08a12.59 12.59 0 0 1-4.84-5.12l-29.66-57.1a12.832 12.832 0 0 1 0.34-12.48l29.24-49.38c1.14-1.96 2.78-3.52 4.68-4.62 0 0 0-0.02 0.02 0 33.74 1.62 68.5 13.28 98.44 38.92l12.9 21.26a12.68 12.68 0 0 1 1.86 6.56z" fill="#F9B850" /><path d="M526.064 445.988l-29.244 49.382a12.856 12.856 0 0 1-10.784 6.298l-64.354 1.442a12.942 12.942 0 0 1-6.816-1.804l32.034-54.09a17.37 17.37 0 0 1 15.118-8.512l65.83 0.638a12.79 12.79 0 0 1-1.784 6.646z" fill="#F9DF62" /><path d="M602.52 904.16c0 13.24-18.26 24.76-45.24 30.76h-0.08s-37.12-11.56-42.32-80.62c-5.18-69.06 42.32-89.52 42.32-89.52-16.24 17.02-25.82 40.06-25.82 64.66v2.02c0 20.48 13.74 38.36 33.46 43.86 22.78 6.34 37.68 16.9 37.68 28.84z" fill="#2094DC" /><path d="M697.8 193.058l-17.84 17.84a149.912 149.912 0 0 1-14.78-13.5l21.4-21.4c5.86 5.782 9.66 11.582 11.22 17.06z" fill="#F9AC2F" /><path d="M824.12 170.88h-84.16l57.86 57.88a108.6 108.6 0 0 1-14.56 13.72l-45.4-45.4c-0.34-12.52-5.38-24.54-14.28-35.64-25.02-23.52-46.02 6.76-46.02 6.76l-0.06 0.06c1.18 0.88 2.3 1.76 3.38 2.62h-36.02a148.636 148.636 0 0 1-10.1-20h56.92l-61.76-61.76c4.12-5.26 8.72-10.12 13.74-14.54l62.16 62.16V47.8c3.3-0.3 6.62-0.46 10-0.46s6.7 0.16 10 0.46v88.94l62.16-62.16c5.02 4.4 9.62 9.26 13.76 14.52l-61.78 61.78h84.96c0.1 1.88 0.14 3.78 0.14 5.7 0 4.84-0.32 9.62-0.94 14.3z" fill="#F9AC2F" /><path d="M689.58 217.978c-3.44 3.88-7.8 7.8-13.06 11.62-7.02 5.12-15.66 10.12-25.74 14.74-26.82-19.88-44.2-51.8-44.2-87.76 0-21.46 6.18-41.48 16.88-58.36 1.56 49.862 27.42 93.602 66.12 119.76z" fill="#F9AC2F" /><path d="M679.96 210.9l-31.6 31.6a111.206 111.206 0 0 1-14.54-13.74l31.36-31.36c4.62 4.82 9.56 9.34 14.78 13.5zM644.86 170.88h-37.34c-0.62-4.68-0.94-9.46-0.94-14.3 0-1.92 0.04-3.82 0.16-5.7h28.02a148.756 148.756 0 0 0 10.1 20z" fill="#F98D24" /></svg>