<?xml version="1.0" standalone="no"?><!DOCTYPE svg PUBLIC "-//W3C//DTD SVG 1.1//EN" "http://www.w3.org/Graphics/SVG/1.1/DTD/svg11.dtd"><svg class="icon" width="200px" height="200.00px" viewBox="0 0 1024 1024" version="1.1" xmlns="http://www.w3.org/2000/svg"><path d="M938.194 561.86c-10.17 17.71-25.79 37.124-49.614 52.864s-55.854 27.804-98.844 30.814a451.746 451.746 0 0 0 13.482-23.918 474.896 474.896 0 0 0 11.638-23.782c19.59-4.07 36.524-10.95 50.742-20.61s25.718-22.1 34.438-37.29c2.42-4.2 2.82-8.146 2.416-11.388s-1.614-5.782-2.416-7.172a19.248 19.248 0 0 0-4.968-5.624c-2.582-1.95-6.162-3.556-10.952-3.556h-39.4c2.01-7.95 3.756-15.63 5.268-22.982s2.792-14.378 3.872-21.018h30.26c11.26 0 21.94 2.91 31.214 8.258 9.276 5.348 17.146 13.132 22.786 22.882 5.66 9.77 8.494 20.494 8.508 31.23 0.01 10.736-2.8 21.482-8.43 31.292z" fill="#5BC1E7" /><path d="M853.698 468.198c-1.08 6.64-2.36 13.664-3.872 21.018s-3.258 15.032-5.268 22.982h24.7c0.04-0.14 3.71-16.19 5.12-23.398s2.61-14.092 3.64-20.602h-12.16zM844.794 588.52c-1.84 4.56-3.76 9.08-5.72 13.56-1.98 4.48-4 8.92-6.1 13.32-2.12 4.48-4.32 8.92-6.56 13.32-2.26 4.38-4.58 8.74-6.96 13.04-0.38 0.06-2.1 0.36-3.98 0.68-1.9 0.32-3.98 0.66-5.08 0.82-9.6 2.52-18.46 8.84-25.26 14.96-5.4 4.88-9.5 9.62-11.6 12.22 16.84-24.06 30.4-48.62 41.32-72.62 5.36-1.12 10.52-2.44 15.48-3.98 5.04-1.54 9.86-3.32 14.46-5.32z" fill="#5392DB" /><path d="M239.094 885.05a271.506 103.388 0 1 0 543.012 0 271.506 103.388 0 1 0-543.012 0Z" fill="#F03974" /><path d="M510.6 624.202c201.728 0 365.26 73.88 365.26 165.016 0 18.782-6.952 36.814-19.746 53.634-49.286 64.798-185.358 111.382-345.514 111.382-201.728 0-365.26-73.88-365.26-165.016s163.532-165.016 365.26-165.016z" fill="#FFAECB" /><path d="M875.862 789.216c0.022 10.108-2.096 20.48-6.16 30.334-1.906 4.496-3.978 8.7-6.516 12.916-4.136 6.996-10.582 14.864-11.95 16.412-22.94 5.37-52.65 10.644-80.38 13.576s-57.456 4.522-88.376 4.522c-75.74 0-144.304-9.55-193.936-24.99s-80.326-36.77-80.326-60.33 30.696-44.89 80.326-60.33 118.196-24.99 193.936-24.99c26.15 0 51.446 1.14 75.402 3.268s52.256 6.318 73.056 10.268c7.248 6.048 11.662 10.206 17.422 16.416 6.124 6.592 12.21 14.966 15.782 21.308 8.484 14.56 11.794 29.386 11.72 41.62z" fill="#FF78AD" /><path d="M338.052 758.576a172.548 71.982 0 1 0 345.096 0 172.548 71.982 0 1 0-345.096 0Z" fill="#2273D1" /><path d="M742.074 710.1h0.02s-4.89 6.714-13.176 15.592c-8.284 8.878-19.964 19.918-33.544 28.568v-0.02c-20.19 13.74-47.206 25.114-78.762 33.054-31.558 7.94-67.658 12.446-106.018 12.446-19.17 0-37.78-1.124-55.54-3.242s-34.67-5.228-50.44-9.198c-15.78-3.97-30.426-8.794-43.648-14.344s-25.022-11.824-35.112-18.694c-6.8-4.33-13.12-9.256-18.774-14.206a206.848 206.848 0 0 1-14.786-14.354c-4.14-4.44-7.43-8.34-9.684-11.13s-3.474-4.47-3.474-4.47c-56.3-62.99-85.7-134.11-101.046-192.068s-16.634-102.752-16.714-113.092c1.31 44.54 40.8 84.77 103.87 113.866s149.72 47.054 245.35 47.054c95.69 0 182.39-17.98 245.47-47.104 63.08-29.126 102.54-69.396 103.75-113.974-0.06 9.99-1.266 54.74-16.57 112.782s-44.712 129.374-101.172 192.534z" fill="#87D2ED" /><path d="M490.458 192.834a13 13 0 0 1-0.9-25.968 25.86 25.86 0 0 0 22.032-15.644 25.752 25.752 0 0 0 0.254-19.84 25.756 25.756 0 0 0-13.848-14.21c-26.31-11.296-38.526-41.89-27.23-68.2 7.168-16.7 22.824-28.576 40.856-30.992a13.006 13.006 0 0 1 14.61 11.16 12.998 12.998 0 0 1-11.16 14.61c-9.15 1.226-16.782 7.012-20.416 15.478-5.64 13.136 0.458 28.412 13.594 34.052 12.744 5.47 22.596 15.578 27.738 28.458 5.144 12.882 4.962 26.994-0.51 39.74-7.704 17.946-24.6 29.948-44.094 31.322a11.938 11.938 0 0 1-0.926 0.034zM575.01 192.834a13 13 0 0 1-0.9-25.968 25.86 25.86 0 0 0 22.032-15.644 25.752 25.752 0 0 0 0.254-19.84 25.754 25.754 0 0 0-13.85-14.21 52.338 52.338 0 0 1-3.326-1.568 13.002 13.002 0 0 1 11.904-23.116c0.548 0.282 1.11 0.548 1.686 0.796 12.736 5.466 22.586 15.574 27.73 28.456 5.142 12.88 4.962 26.994-0.51 39.738-7.704 17.948-24.6 29.95-44.094 31.324a13.06 13.06 0 0 1-0.926 0.032zM414.88 116.416a12.942 12.942 0 0 1-6.332-1.654 51.786 51.786 0 0 1-22.334-65.788c7.172-16.702 22.826-28.578 40.856-30.992a13 13 0 1 1 3.454 25.77c-9.15 1.226-16.782 7.012-20.418 15.48a25.844 25.844 0 0 0 11.13 32.836 13.004 13.004 0 1 1-6.356 24.348z" fill="#FFE35D" /><path d="M742.134 710.1h0.02s-19.54 26.86-46.72 44.16v-0.02c-40.36 27.48-108.06 45.5-184.76 45.5-38.36 0-74.44-4.5-106-12.44-25.84-6.5-48.6-15.28-67.1-25.8 0 0 144.08 21.1 218.4-74.9 25.32-32.7 64.18-85.92 114.5-138.82 109.24-26.32 184.92-78.78 189.16-139.68 0.08-0.04 0.14-0.06 0.22-0.1-0.66 29.98-9.5 181.04-117.72 302.1z" fill="#60C3E8" /><path d="M859.838 402.68c0 45.06-39.09 85.854-102.29 115.382s-150.51 47.792-246.948 47.792-183.748-18.264-246.948-47.792-102.29-70.322-102.29-115.382 39.09-85.854 102.29-115.382 150.51-47.792 246.948-47.792 183.748 18.264 246.948 47.792c63.202 29.528 102.29 70.322 102.29 115.382z" fill="#D0EFF9" /><path d="M510.6 251.812c-174.772 0-296.568 65.202-296.568 123.718v27.148c0 58.518 121.796 123.718 296.568 123.718s296.57-65.2 296.57-123.718v-27.148c0-58.516-121.796-123.718-296.57-123.718z" fill="#953817" /><path d="M802.71 395.268c-23.38 52.52-136.84 103.98-292.12 103.98-155.26 0-268.72-51.46-292.1-103.98 0 0 161.3 90.66 292.1 0s292.12 0 292.12 0z" fill="#B45631" /><path d="M649.894 355.028c-44.76-0.86-93.86 8.74-139.3 40.24-11.16 7.72-22.52 14.14-34 19.38-53.9-36.8-147.18-61.7-98.22-84.98 30.66-14.58 59.26-10.34 80.76-1.96 19.78 7.7 36.26 20.32 47.88 35.78l3.58 4.76 3.6-4.76c11.62-15.46 28.08-28.08 47.88-35.78 21.48-8.38 50.1-12.62 80.76 1.96 17.06 8.1 16.86 16.422 7.06 25.36z" fill="#FFFFFF" /><path d="M649.894 355.028c-11.68 10.66-37.04 22.24-63 35.46-35.4 18.02-71.9 39.12-76.3 65.14-2.56-15.22-16.12-28.76-34-40.98 11.48-5.24 22.84-11.66 34-19.38 45.44-31.5 94.54-41.1 139.3-40.24z" fill="#F9D129" /><path d="M561.174 287.596c-11.722-5.57-22.666-3.95-30.886-0.75-7.568 2.946-13.866 7.774-18.31 13.686l-1.372 1.826-1.372-1.826c-4.446-5.912-10.744-10.74-18.31-13.686-8.22-3.2-19.164-4.82-30.886 0.75-24.946 11.856 46.626 24.814 50.57 48.178h0.002c3.938-23.364 75.51-36.322 50.564-48.178z" fill="#FFFFFF" /><path d="M343.472 394.502a15.926 5.706 0 1 0 31.852 0 15.926 5.706 0 1 0-31.852 0Z" fill="#FFFFFF" /><path d="M611.526 294.124a15.926 5.706 0 1 0 31.852 0 15.926 5.706 0 1 0-31.852 0Z" fill="#FFFFFF" /></svg>