<?xml version="1.0" standalone="no"?><!DOCTYPE svg PUBLIC "-//W3C//DTD SVG 1.1//EN" "http://www.w3.org/Graphics/SVG/1.1/DTD/svg11.dtd"><svg class="icon" width="200px" height="200.00px" viewBox="0 0 1024 1024" version="1.1" xmlns="http://www.w3.org/2000/svg"><path d="M679.884 937.08c0 40.58-74.9 73.48-167.3 73.48-92.42 0-167.32-32.9-167.32-73.48 0-3.16 0.5-6.26 1.38-9.3h-0.02l5.54-25.46c-0.18 1.4-0.28 2.8-0.28 4.2 0 38.98 71.94 70.58 160.7 70.58 88.74 0 160.68-31.6 160.68-70.58 0-1.5-0.1-3-0.32-4.48l5.62 25.74h-0.06c0.88 3.04 1.38 6.14 1.38 9.3z" fill="#F03974" /><path d="M351.88 906.526a160.694 70.572 0 1 0 321.388 0 160.694 70.572 0 1 0-321.388 0Z" fill="#FFAECB" /><path d="M806.884 226.68l-102.84 157.16c-56.22-15.36-132.1-23.24-193.02 16.9-54.94 36.22-103.3 51.8-141.62 57.28l-151.96-230.86c38.2 51.66 155.62 89.28 294.56 89.28 139.36 0 257.06-37.86 294.86-89.76z" fill="#FFAECB" /><path d="M704.044 383.84l-87.74 134.1c-2.04 6.84-13.86 14.34-25.6 19.14-7.98 3.22-17.04 5.9-26.88 8-6.12 1.28-11.72 3.8-16.54 7.3h-0.02a43.926 43.926 0 0 0-18.2 35.6v227.58c0 20.76 14.02 38.78 34.06 44.18 27.38 7.36 45.62 20.52 45.62 35.56 0 10.14-8.32 19.44-22.16 26.68-17.64 9.22-44.24 15.1-74 15.1-53.12 0-96.18-18.7-96.18-41.78 0-15.04 18.24-28.2 45.62-35.56 20.04-5.4 34.06-23.42 34.06-44.18V587.98c0-20.72-14.5-38.66-34.76-42.9-9.84-2.1-18.9-4.78-26.88-8-5.88-2.4-11.76-5.46-16.44-8.8s-8.14-6.92-9.16-10.34l-39.44-59.92c38.32-5.48 86.68-21.06 141.62-57.28 60.92-40.14 136.8-32.262 193.02-16.9z" fill="#FF78AD" /><path d="M727.524 280.44l-60.98 95.14c-49.78-8.3-107.32-6.6-155.52 25.16-38.72 25.52-74.18 40.8-105.16 49.5l-111.36-170.58h0.04c55.66 22.72 132.54 36.78 217.46 36.78 83.94 0 160.02-13.74 215.52-36z" fill="#8AD8F0" /><path d="M666.544 375.58l-80.84 126.12c-1.82 1.12-26.4 20.14-73.14 20.14-46.72 0-71.28-19.02-73.1-20.12l-33.6-51.48c30.98-8.7 66.44-23.98 105.16-49.5 48.2-31.762 105.74-33.46 155.52-25.16z" fill="#5CC9EA" /><path d="M453.09 481.754a58.91 21.284 0 1 0 117.82 0 58.91 21.284 0 1 0-117.82 0Z" fill="#22AEE7" /><path d="M715.904 246.312c33.704-13.764 67.708-36.264 67.708-55.504s-34.006-41.74-67.708-55.504C662.024 113.3 589.61 101.18 512 101.18s-150.024 12.12-203.904 34.124c-33.704 13.764-67.708 36.264-67.708 55.504s34.006 41.74 67.708 55.504c53.88 22.004 126.294 34.124 203.904 34.124s150.024-12.12 203.904-34.124z" fill="#FFFFFF" /><path d="M737.104 236.47c-6.86 3.6-14.04 6.92-21.2 9.84-53.88 22-126.3 34.12-203.9 34.12-77.62 0-150.02-12.12-203.9-34.12-7.16-2.92-14.34-6.24-21.2-9.84 6.86-3.62 14.04-6.94 21.2-9.86 53.88-22 126.28-34.12 203.9-34.12 77.6 0 150.02 12.12 203.9 34.12 7.16 2.92 14.34 6.24 21.2 9.86z" fill="#FFFFFF" /><path d="M737.104 236.47c-6.86 3.6-14.04 6.92-21.2 9.84-53.88 22-126.3 34.12-203.9 34.12-77.62 0-150.02-12.12-203.9-34.12-7.16-2.92-14.34-6.24-21.2-9.84 6.86-3.62 14.04-6.94 21.2-9.86 53.88-22 126.28-34.12 203.9-34.12 77.6 0 150.02 12.12 203.9 34.12 7.16 2.92 14.34 6.24 21.2 9.86z" fill="#DDF4FB" /><path d="M608.744 895.292c0 10.14-8.32 19.44-22.16 26.68-25.52-4.338-42.476-14.608-53.632-25.346-13.23-12.734-20.368-30.536-20.368-48.9V606.55c1.14-47.06 33.72-53.96 34.68-54.16a43.9 43.9 0 0 0-18.2 35.6v227.564c0 20.76 14.02 38.78 34.06 44.18 27.38 7.36 45.62 20.518 45.62 35.558z" fill="#F03974" /><path d="M613.444 334.6c0 14.32-5.3 27.44-14.06 37.42-30.38 2.28-60.9 10.62-88.36 28.72-18.88 12.44-36.98 22.46-54.18 30.46-0.24-2.06-0.36-4.14-0.36-6.26 0-30.54 24.1-55.46 54.3-56.76a56.62 56.62 0 0 1-10.98-33.58c0-31.38 25.44-56.82 56.82-56.82s56.82 25.44 56.82 56.82z" fill="#5B9920" /><path d="M559.144 391.36c6.9 9.4 10.98 21 10.98 33.58 0 31.38-25.44 56.82-56.82 56.82-29.26 0-53.36-22.12-56.46-50.56 17.2-8 35.3-18.02 54.18-30.46 27.46-18.1 57.98-26.44 88.36-28.72-9.9 11.3-24.22 18.64-40.24 19.34z" fill="#4D8220" /><path d="M658.024 247.632c0 31.38-25.44 56.82-56.82 56.82-6.02 0-11.84-0.94-17.3-2.7a56.036 56.036 0 0 1-19.28-10.66c-12.38-10.4-20.26-26.02-20.26-43.46 0-31.38 25.46-56.82 56.84-56.82 5.8 0 11.42 0.88 16.7 2.5 7.18 2.2 13.74 5.78 19.4 10.44 12.66 10.42 20.72 26.22 20.72 43.88z" fill="#85BF3F" /><path d="M819.614 190.806c0 69.382-137.724 125.628-307.614 125.628s-307.614-56.246-307.614-125.628S342.11 65.18 512 65.18s307.614 56.244 307.614 125.626z m-103.71 55.506c33.704-13.764 67.708-36.264 67.708-55.504s-34.006-41.74-67.708-55.504C662.024 113.3 589.61 101.18 512 101.18s-150.024 12.12-203.904 34.124c-33.704 13.764-67.708 36.264-67.708 55.504s34.006 41.74 67.708 55.504c53.88 22.004 126.294 34.124 203.904 34.124s150.024-12.12 203.904-34.124z" fill="#FFD5E1" /><path d="M638.604 227.44c-2.06 3.56-6.62 5.2-12.2 4.88-4.7-0.24-10.12-1.88-15.36-4.9-3.28-1.9-6.14-4.12-8.44-6.5-5.72-5.9-8.08-12.66-5.38-17.36 2.64-4.58 9.42-5.96 17.14-4.16 3.38 0.78 6.94 2.18 10.42 4.18 5.04 2.9 9.06 6.62 11.66 10.4 3.28 4.82 4.28 9.78 2.16 13.46z" fill="#386300" /><path d="M730.304 42.3l-93.86 171.68-10.04 18.34c-4.7-0.24-10.12-1.88-15.36-4.9-3.28-1.9-6.14-4.12-8.44-6.5l11.76-21.52 92.78-169.7c3.48-6.4 11.48-8.76 17.86-5.26a13.184 13.184 0 0 1 5.3 17.86z" fill="#B45631" /></svg>