<?xml version="1.0" standalone="no"?><!DOCTYPE svg PUBLIC "-//W3C//DTD SVG 1.1//EN" "http://www.w3.org/Graphics/SVG/1.1/DTD/svg11.dtd"><svg class="icon" width="200px" height="200.00px" viewBox="0 0 1024 1024" version="1.1" xmlns="http://www.w3.org/2000/svg"><path d="M783.494 199.16v280.68c-15.56 10.78-34 21.14-34 21.14v-0.96c-78.12 16.7-173.18 14.44-257.96-50.74-79.48-61.12-155.78-80.42-216.98-82.54-13.46 5.46-24.98 11.88-34 17.68V192.48c0 54.72 121.54 99.06 271.48 99.06 143.76 0 261.44-40.78 270.84-92.38z" fill="#A8E2F4" /><path d="M783.494 479.84v21.14c0 59-6.36 117.82-19.02 175.44-14 63.76-34.78 149.62-59.16 222.52h-0.24c-5.08 46.32-89.56 83.16-193.04 83.16-103.5 0-187.98-36.84-193.06-83.16h-0.24c-24.38-72.9-45.16-158.76-59.16-222.52a817.49 817.49 0 0 1-19.02-175.44v-116.56c9.02-5.8 20.54-12.22 34-17.68 61.2 2.12 137.5 21.42 216.98 82.54 84.78 65.18 179.84 67.44 257.96 50.74v0.96c0-0.002 18.44-10.36 34-21.14z" fill="#5BC1E7" /><path d="M749.494 240.54v260.44c0 56.48-6.12 113.06-18.22 168.16-11.76 53.52-29.62 128.5-50.7 195.8l-9.3 30.28c-1.6 14.58-52.98 52.88-159.24 52.88-106.28 0-157.66-38.3-159.26-52.88l-9.3-30.28c-21.08-67.32-38.94-142.28-50.7-195.8a785.366 785.366 0 0 1-18.22-168.16V240.54c46.34 30.42 135.32 51 237.48 51s191.12-20.58 237.46-51z" fill="#FFFFFF" /><path d="M749.494 500.018c-78.12 16.7-173.18 14.44-257.96-50.74-79.48-61.12-155.78-80.42-216.98-82.54 0 0 104.18-59.46 208.64 11 104.48 70.482 134.82 111.702 266.3 122.28z" fill="#C4F49E" /><path d="M749.494 500.018v0.96c0 56.48-6.12 113.06-18.22 168.16-6.4 29.16-14.62 64.7-24.2 101.9-405.08 44.58-432.52-305.68-432.52-305.68v-98.62c61.2 2.12 137.5 21.42 216.98 82.54 84.78 65.182 179.84 67.442 257.96 50.74z" fill="#F3FFE0" /><path d="M707.074 771.04c-7.98 31.06-16.9 63.28-26.5 93.9l-9.3 30.28c-1.6 14.58-52.98 52.88-159.24 52.88-106.28 0-157.66-38.3-159.26-52.88l-9.3-30.28c-21.08-67.32-38.94-142.28-50.7-195.8a785.366 785.366 0 0 1-18.22-168.16v-35.62s27.44 350.26 432.52 305.68z" fill="#CDFFB7" /><path d="M709.754 760.5c-8.64 34.24-18.5 70.34-29.18 104.44l-9.3 30.28c-1.6 14.58-52.98 52.88-159.24 52.88-106.28 0-157.66-38.3-159.26-52.88l-9.3-30.28c-10.1-32.24-19.46-66.26-27.74-98.8 20.1 40.6 100.14 70.94 195.82 70.94 100.06 0 183.02-33.18 198.2-76.58z" fill="#2094DC" /><path d="M240.546 192.49a271.478 99.05 0 1 0 542.956 0 271.478 99.05 0 1 0-542.956 0Z" fill="#D0EFF9" /><path d="M512.026 257.54c-67.13 0-129.758-9.572-176.346-26.952-41.832-15.606-55.91-23.534-55.91-38.1s14.078-22.492 55.91-38.098c46.588-17.378 109.216-26.952 176.346-26.952s129.758 9.572 176.346 26.952c41.832 15.606 55.91 27.006 55.91 38.098s-14.078 22.494-55.91 38.1c-15.302 5.708-32.334 10.574-50.688 14.536-37.528 8.098-80.578 12.416-125.658 12.416z" fill="#FFFFFF" /><path d="M731.754 210.018c-8.76 6.14-22.66 12.82-43.38 20.56-1.24 0.46-2.48 0.92-3.76 1.36-1.96 0.7-3.96 1.4-5.98 2.06-19.88-19.78-32.18-47.16-32.18-77.42 0-27.42 10.12-52.5 26.82-71.68-0.02 0.58-0.02 1.18-0.02 1.76 0 49.742 22.78 94.162 58.5 123.36z" fill="#C3D74E" /><path d="M676.454 732.54c0 15.72-10.76 30.32-29.12 42.34-125.12 2-208.44-37.44-263.88-88.78 30.14-17.12 76.54-28.08 128.58-28.08 90.8-0.002 164.42 33.36 164.42 74.52z" fill="#C4F49E" /><path d="M647.334 774.88c-29.68 19.44-79.22 32.16-135.3 32.16-90.82 0-164.44-33.36-164.44-74.5 0-17.58 13.42-33.72 35.86-46.44 55.44 51.34 138.76 90.78 263.88 88.78z" fill="#A7DF7D" /><path d="M876.294 239.978c-21.44 30.94-54.46 53.22-92.8 60.58v-62.28c15.48 5.04 31.98 7.74 49.14 7.74 15.14 0 29.78-2.118 43.66-6.04zM731.754 210.018c-8.76 6.14-22.66 12.82-43.38 20.56-1.24 0.46-2.48 0.92-3.76 1.36-1.96 0.7-3.96 1.4-5.98 2.06-11.7 3.92-24.28 7.4-37.58 10.36v0.02l-2.42 0.52c-18.54-24.58-29.56-55.16-29.56-88.32 0-55 30.28-102.94 75.1-128.02-7.04 18-10.92 37.6-10.92 58.1 0 49.742 22.78 94.162 58.5 123.36z" fill="#64AB3F" /><path d="M902.314 156.58c0 31-9.62 59.74-26.02 83.4a160.404 160.404 0 0 1-43.66 6.04c-17.16 0-33.66-2.7-49.14-7.74v-45.8c0-12.46-6.3-24.38-17.82-35.36 0 0-0.02 0-0.02-0.02-29.9-16.34-36.94 15.84-36.94 15.84 11.16 7.06 15.56 13.36 15.56 19.54 0 2.04-0.48 4.1-1.52 6.18-1.8 3.64-5.32 7.38-11 11.36-35.72-29.2-58.5-73.62-58.5-123.36 0-20.5 3.88-40.1 10.92-58.1 21.16-11.84 45.56-18.6 71.52-18.6 80.98 0 146.62 65.64 146.62 146.62z" fill="#85D13F" /><path d="M749.494 240.54v62.52c-30.72-1.26-59.02-12.02-82.02-29.36 17.6-4.5 33.66-9.72 47.86-15.58 13.06-5.36 24.54-11.26 34.16-17.58z" fill="#64AB3F" /><path d="M731.754 210.018c-8.76 6.14-22.66 12.82-43.38 20.56-1.24 0.46-2.48 0.92-3.76 1.36-1.96 0.7-3.96 1.4-5.98 2.06-19.88-19.78-32.18-47.16-32.18-77.42 0-27.42 10.12-52.5 26.82-71.68-0.02 0.58-0.02 1.18-0.02 1.76 0 49.742 22.78 94.162 58.5 123.36zM819.234 245.46a108.856 108.856 0 0 1-35.74 16.78v-23.96c11.4 3.72 23.36 6.16 35.74 7.18z" fill="#C3D74E" /><path d="M864.934 156.58c0 36.64-18.02 69.06-45.7 88.88a156.488 156.488 0 0 1-35.74-7.18v-45.8c0-12.46-6.3-24.38-17.82-35.36 0 0-0.02 0-0.02-0.02-29.9-16.34-36.94 15.84-36.94 15.84 11.16 7.06 15.56 13.36 15.56 19.54 0 2.04-0.48 4.1-1.52 6.18-1.8 3.64-5.32 7.38-11 11.36-35.72-29.2-58.5-73.62-58.5-123.36 0-0.58 0-1.18 0.02-1.76 20.02-23.02 49.52-37.56 82.42-37.56 60.34 0 109.24 48.9 109.24 109.24z" fill="#F1EB71" /><path d="M749.494 240.54v25.1c-12-0.66-23.5-3.28-34.16-7.52 13.06-5.36 24.54-11.26 34.16-17.58z" fill="#C3D74E" /><path d="M607.622 634.512l-50.38 47.392a18.248 18.248 0 0 0-5.272 17.45l15.048 64.312a13.484 13.484 0 0 1-7.404-0.36l-64.02-21.726a13.51 13.51 0 0 1-8.822-9.712l-13.738-58.712a13.5 13.5 0 0 1 4.246-13.21l48.888-42.952a13.518 13.518 0 0 1 12.4-2.902l62.868 16.804a13.506 13.506 0 0 1 6.186 3.616z" fill="#A8E2F4" /><path d="M611.106 640.85l13.738 58.712a13.512 13.512 0 0 1-3.596 12.618l-47.75 47.896a13.578 13.578 0 0 1-6.48 3.588l-15.048-64.312a18.25 18.25 0 0 1 5.272-17.45l50.38-47.392a13.476 13.476 0 0 1 3.484 6.34z" fill="#E5F6FC" /><path d="M478.366 597.836l-62.928-28.916a18.268 18.268 0 0 0-18.174 1.672l-54.014 38.158a13.502 13.502 0 0 1-2.452-7.004l-3.928-67.578a13.528 13.528 0 0 1 5.694-11.84l49.31-34.836a13.518 13.518 0 0 1 13.856-1.03l58.248 29.202a13.532 13.532 0 0 1 7.358 10.414l8.062 64.658a13.586 13.586 0 0 1-1.032 7.1z" fill="#A8E2F4" /><path d="M473.794 603.452l-49.31 34.836a13.526 13.526 0 0 1-13.062 1.41l-62.406-26.286a13.61 13.61 0 0 1-5.768-4.662l54.014-38.158a18.268 18.268 0 0 1 18.174-1.672l62.928 28.916a13.458 13.458 0 0 1-4.57 5.616z" fill="#E5F6FC" /><path d="M612.376 782.506c-19.98 3.19-60.888 2.732-90.116-44.318-3.668-5.906 0.03-13.632 6.944-14.37 22.078-2.354 65.684-0.422 90.036 45.016 3.042 5.68-0.502 12.656-6.864 13.672z" fill="#73BF29" /><path d="M424.374 387.4c-0.36 4.9-1.22 10.96-3.08 17.56-12-6.02-23.84-11.18-35.48-15.58 7.42-4.92 16.28-9 26.84-11.8 6.24-1.66 12.2 3.398 11.72 9.82z" fill="#A3DB6D" /><path d="M421.294 404.96c-5.74 20.6-21.08 46.58-60.84 59.9-6.6 2.2-13.26-3.18-12.38-10.08 2.2-17.36 10.1-47.1 37.74-65.4 11.64 4.4 23.48 9.56 35.48 15.58z" fill="#73BF29" /><path d="M647.234 507.978c-8.98-0.6-18.02-1.62-27.08-3.08a286.04 286.04 0 0 1-46.28-11.38l48.74-51.34c18.6 17.662 26.86 42.122 24.62 65.8z" fill="#A3DB6D" /><path d="M647.234 507.978a79.89 79.89 0 0 1-21.68 47.6c-30.5 32.12-81.28 33.44-113.4 2.94l61.72-65c15.42 5.2 30.9 8.92 46.28 11.38 9.06 1.462 18.1 2.482 27.08 3.08z" fill="#669A3F" /><path d="M620.154 504.9a286.04 286.04 0 0 1-46.28-11.38l29.98-31.58c12.14 11.538 17.62 27.48 16.3 42.96z" fill="#E4F671" /><path d="M620.154 504.9a52.686 52.686 0 0 1-14.36 31.92c-20.14 21.2-53.66 22.06-74.86 1.94l42.94-45.24c15.42 5.2 30.9 8.92 46.28 11.38z" fill="#D3EB54" /><path d="M722.694 202l-24.96 24.96c-2.96 1.18-6.08 2.38-9.36 3.62-1.24 0.46-2.48 0.92-3.76 1.36-1.96 0.7-3.96 1.4-5.98 2.06a107.214 107.214 0 0 1-7.7-8.52l38.16-38.16c4.22 5.18 8.76 10.1 13.6 14.68zM693.974 165.26h-47.18a111.416 111.416 0 0 1 0.24-20h37.36a153.06 153.06 0 0 0 9.58 20z" fill="#90C537" /><path d="M864.594 165.26h-85.16l60.68 60.68a111.094 111.094 0 0 1-14.06 14.22l-42.56-42.56v-5.12c0-12.46-6.3-24.38-17.82-35.36 0 0-0.02 0-0.02-0.02-29.9-16.34-36.94 15.84-36.94 15.84 5.9 3.74 9.92 7.26 12.38 10.66l-18.4 18.4a154.916 154.916 0 0 1-13.6-14.68l22.06-22.06h-37.18a153.06 153.06 0 0 1-9.58-20h46.76l-57.9-57.9v-0.7c0-0.58 0-1.18 0.02-1.76 4-4.6 8.38-8.86 13.08-12.72l58.94 58.94V47.84c3.42-0.34 6.9-0.5 10.4-0.5 3.24 0 6.44 0.14 9.6 0.42v83.36l59.3-59.3c5.2 4.22 10 8.9 14.3 14l-59.46 59.44h84.92a111.416 111.416 0 0 1 0.24 20z" fill="#C3D74E" /></svg>