<?xml version="1.0" standalone="no"?><!DOCTYPE svg PUBLIC "-//W3C//DTD SVG 1.1//EN" "http://www.w3.org/Graphics/SVG/1.1/DTD/svg11.dtd"><svg class="icon" width="200px" height="200.00px" viewBox="0 0 1024 1024" version="1.1" xmlns="http://www.w3.org/2000/svg"><path d="M910.374 558.134h-0.02c-15.44-4.86-29.68-8.26-42.76-10.52 1.92 5.08 2.98 10.6 2.98 16.38v157.78c0 25.56-20.74 46.3-46.32 46.3h-16.32c-11.24 0-20.36-9.12-20.36-20.36v-200.08c-24.4 5.28-36 14.22-36 14.22-41.8 40.72-178.12 58.56-274.06-12.84-61.16-45.52-169.62-64.84-228.22-62.28-11.72-0.72-23.9 0.56-36 3.14v362.4c0 84.08 128.56 152.24 287.14 152.24s287.14-68.16 287.14-152.24v-23.84c0-11.24 9.12-20.36 20.36-20.36h16.32c47.68 0 86.32-38.64 86.32-86.3v-157.78c0-1.98-0.06-3.92-0.2-5.86z" fill="#FF78AD" /><path d="M910.354 558.134c-15.44-4.86-29.68-8.26-42.76-10.52-6.62-17.48-23.52-29.92-43.34-29.92h-16.32c-11.24 0-20.36 9.12-20.36 20.36v9.58c-24.4 5.28-36 14.22-36 14.22-41.8 40.72-178.12 58.56-274.06-12.84-61.16-45.52-169.62-64.84-228.22-62.28-11.72-0.72-23.9 0.56-36 3.14v-32.54c0-25.82 12.14-50.12 33.52-71.42a57.63 57.63 0 0 0 16.96-41.06c-0.16-36.4-0.24-97.96-0.24-97.96 0 24.48 13.2 47.3 36 66.58 41.88 35.46 116.2 59.02 200.9 59.02s159.02-23.56 200.9-59.02c22.8-19.28 36-42.1 36-66.58 0 0-0.08 61.56-0.22 97.96-0.08 15.4 6.04 30.18 16.94 41.06 10.7 10.64 19.08 22.04 24.78 34.02 5.7 11.96 8.74 24.5 8.74 37.4 0 11.24 9.12 20.36 20.36 20.36h16.32c45.7 0 83.12 35.52 86.1 80.44z" fill="#FFB4D3" /><path d="M751.574 457.334v394.96c0 26.28-23.68 53.94-64.96 75.82-49.14 26.06-115.26 40.42-186.18 40.42s-137.04-14.36-186.18-40.42c-41.28-21.88-64.96-49.54-64.96-75.82v-394.96c0-8.56 2.52-17.26 7.32-25.86s11.92-17.1 21.12-25.26c1.6-1.4 12.24-12.72 15.72-20.78 2.56-5.86 4.76-13.12 6.08-22.12v-49.84c41.88 35.46 116.2 59.02 200.9 59.02s159.02-23.56 200.9-59.02v49.84s-0.68 11.42 4.74 23.42c1.8 4.04 14.16 16.92 17.06 19.48 18.4 16.32 28.44 34 28.44 51.12z" fill="#FFFFFF" /><path d="M737.342 246.9c0 69.366-106.064 125.6-236.9 125.6s-236.9-56.232-236.9-125.6 106.064-125.6 236.9-125.6 236.9 56.234 236.9 125.6z m-86.25 57.008c31.936-16.932 50.25-37.708 50.25-57.006s-18.314-40.076-50.25-57.006c-39.068-20.714-93.978-32.594-150.65-32.594s-111.582 11.878-150.65 32.594c-31.936 16.93-50.25 37.708-50.25 57.006s18.314 40.074 50.25 57.006c39.07 20.712 93.978 32.594 150.65 32.594s111.58-11.882 150.65-32.594z" fill="#FFD5E1" /><path d="M651.092 303.908c31.936-16.932 50.25-37.708 50.25-57.006s-18.314-40.076-50.25-57.006c-39.068-20.714-93.978-32.594-150.65-32.594s-111.582 11.878-150.65 32.594c-31.936 16.93-50.25 37.708-50.25 57.006s18.314 40.074 50.25 57.006c39.07 20.712 93.978 32.594 150.65 32.594s111.58-11.882 150.65-32.594z" fill="#FFFFFF" /><path d="M840.814 219.594c-15.46 47.64-54.64 84.58-103.62 96.88 0.04-13.36 0.06-27.22 0.08-39 0.04-14.74 0.06-26.24 0.06-29.6 4.02 0.3 8.06 0.46 12.16 0.46 33.96 0 65.46-10.62 91.32-28.74zM701.334 246.894c0 11.54-6.56 23.62-18.64 35.06l-1.02 0.96c-8 7.36-18.28 14.46-30.58 21-2.94 1.56-5.96 3.06-9.08 4.5-51.42-22.78-87.3-74.26-87.3-134.12 0-36.68 13.48-70.24 35.76-95.94-0.24 3.5-0.36 7.04-0.36 10.6 0 71 46.44 131.18 110.6 151.76 0.42 2.08 0.62 4.14 0.62 6.18z" fill="#F95E24" /><path d="M847.954 174.294c0 15.8-2.5 31.04-7.14 45.3-25.86 18.12-57.36 28.74-91.32 28.74-4.1 0-8.14-0.16-12.16-0.46v-0.98c0-22.34-11-43.32-30.3-61.5h-0.02c-31.92-10.54-34.14 18.2-34.14 18.2 15.72 11.84 25.4 24.66 27.84 37.12-64.16-20.58-110.6-80.76-110.6-151.76 0-3.56 0.12-7.1 0.36-10.6 26.88-31.04 66.58-50.68 110.86-50.68 80.98 0 146.62 65.66 146.62 146.62z" fill="#F99424" /><path d="M701.334 246.894c0 11.54-6.56 23.62-18.64 35.06-51.44-8.84-90.6-53.68-90.6-107.66 0-12.46 2.1-24.44 5.94-35.6 15.86 48.34 54.22 86.48 102.68 102.02 0.42 2.08 0.62 4.14 0.62 6.18zM785.174 244.314a109.18 109.18 0 0 1-47.9 33.16c0.04-14.74 0.06-26.24 0.06-29.6 4.02 0.3 8.06 0.46 12.16 0.46 12.26 0 24.22-1.38 35.68-4.02z" fill="#F9C25B" /><path d="M810.574 174.294a108.76 108.76 0 0 1-25.4 70.02 158.894 158.894 0 0 1-35.68 4.02c-4.1 0-8.14-0.16-12.16-0.46v-0.98c0-22.34-11-43.32-30.3-61.5h-0.02c-31.92-10.54-34.14 18.2-34.14 18.2 15.72 11.84 25.4 24.66 27.84 37.12-48.46-15.54-86.82-53.68-102.68-102.02 14.76-42.86 55.44-73.64 103.3-73.64 60.34 0 109.24 48.92 109.24 109.24z" fill="#F9DA5B" /><path d="M751.574 561.854c-41.8 40.72-178.12 58.56-274.06-12.84-61.16-45.52-169.62-64.84-228.22-62.28 63.76-47.68 175.94-51.06 278.22 22.64 73.44 52.9 224.06 52.48 224.06 52.48z" fill="#F97824" /><path d="M751.574 561.854v290.44c0 6.68-1.54 13.46-4.5 20.22-493.36 77.18-497.78-369.34-497.78-385.34v-0.44c58.6-2.56 167.06 16.76 228.22 62.28 95.94 71.4 232.26 53.56 274.06 12.84z" fill="#F9C25B" /><path d="M747.074 872.514c-8.7 19.76-29.68 39.28-60.46 55.6-49.14 26.06-115.26 40.42-186.18 40.42s-137.04-14.36-186.18-40.42c-41.28-21.88-64.96-49.54-64.96-75.82v-365.12c0 16 4.42 462.52 497.78 385.34z" fill="#F9A844" /><path d="M717.834 832.014v0.18c-0.06 16.86-8.6 32.76-23.68 46.8-178.14 15.42-284.94-43.1-348.96-119.34 39.44-19.16 94.42-31.04 155.22-31.04 115.28 0 209.62 42.68 216.92 96.62 0.06 0.3 0.1 0.62 0.12 0.92 0.26 1.94 0.38 3.9 0.38 5.86z" fill="#F97824" /><path d="M694.154 878.994c-35.98 33.5-109.24 56.44-193.74 56.44-119.9 0-217.18-46.2-217.36-103.24v-0.18c0-1.96 0.12-3.92 0.36-5.86l0.12-0.92c3.46-25.48 26.34-48.44 61.66-65.58 64.02 76.24 170.82 134.76 348.96 119.34z" fill="#F95E24" /><path d="M682.048 765.662l-66.72-30.658a19.372 19.372 0 0 0-19.27 1.774l-57.268 40.458a14.328 14.328 0 0 1-2.6-7.426l-4.164-71.65a14.336 14.336 0 0 1 6.036-12.552l52.282-36.936a14.33 14.33 0 0 1 14.69-1.092l61.758 30.962a14.346 14.346 0 0 1 7.8 11.042l8.546 68.554a14.35 14.35 0 0 1-1.09 7.524z" fill="#F9A241" /><path d="M677.2 771.616l-52.282 36.936a14.34 14.34 0 0 1-13.848 1.496l-66.166-27.87a14.434 14.434 0 0 1-6.116-4.942l57.268-40.458a19.378 19.378 0 0 1 19.27-1.774l66.72 30.658a14.264 14.264 0 0 1-4.846 5.954z" fill="#F9DF62" /><path d="M565.654 541.774l-72.52 11.56c-2.28 0.36-4.44 1.12-6.38 2.2-3.12-2.08-6.2-4.26-9.24-6.52-17.34-12.9-38.48-23.72-61.22-32.5l8.12-21.1a14.378 14.378 0 0 1 11.6-9.08l68.56-8.54c4.76-0.6 9.48 1.22 12.62 4.84l45.18 52.28c1.72 1.98 2.84 4.36 3.28 6.86z" fill="#F9D65B" /><path d="M486.754 555.534a19.344 19.344 0 0 0-8.66 9.96l-25.16 65.46a14.296 14.296 0 0 1-6.28-4.74l-43.26-57.26a14.372 14.372 0 0 1-1.94-13.8l14.84-38.64c22.74 8.78 43.88 19.6 61.22 32.5 3.04 2.26 6.12 4.44 9.24 6.52z" fill="#F9A241" /><path d="M564.914 549.414l-13.94 36.26c-22.16-6.72-43.96-16.58-64.22-30.14 1.94-1.08 4.1-1.84 6.38-2.2l72.52-11.56c0.44 2.52 0.22 5.16-0.74 7.64z" fill="#FFEE87" /><path d="M550.974 585.674l-9.02 23.5c-1.78 4.6-5.82 8-10.68 8.92l-70.5 13.58a14.48 14.48 0 0 1-7.84-0.72l25.16-65.46c1.66-4.3 4.76-7.8 8.66-9.96 20.26 13.56 42.06 23.42 64.22 30.14z" fill="#F9DF62" /><path d="M407.59 695.394l-10.632 72.654a19.364 19.364 0 0 0 7.128 17.99l54.946 43.56a14.336 14.336 0 0 1-6.394 4.586l-67.578 24.17a14.344 14.344 0 0 1-13.744-2.258l-50.162-39.768a14.33 14.33 0 0 1-5.184-13.788l12.32-67.976a14.346 14.346 0 0 1 8.398-10.594l63.374-27.502a14.336 14.336 0 0 1 7.528-1.074z" fill="#F9A241" /><path d="M414.668 698.368l50.162 39.768a14.34 14.34 0 0 1 5.334 12.866l-8.112 71.336a14.434 14.434 0 0 1-3.02 7.26l-54.946-43.56a19.376 19.376 0 0 1-7.128-17.99l10.632-72.654a14.276 14.276 0 0 1 7.078 2.974z" fill="#F9DF62" /><path d="M784.254 245.394a106.084 106.084 0 0 1-14.36 13.92l-11.24-11.24c8.48-0.48 16.8-1.62 24.88-3.4zM701.334 246.894c0 10.58-5.52 21.62-15.78 32.2v-44.14c4.92 2.18 9.98 4.1 15.16 5.76 0.42 2.08 0.62 4.14 0.62 6.18z" fill="#F98D24" /><path d="M685.554 214.674c8.28 8.56 13.46 17.38 15.16 26.04-5.18-1.66-10.24-3.58-15.16-5.76z" fill="#F9C25B" /><path d="M659.814 220.714l-33.24 33.24c-4.88-4.58-9.32-9.6-13.3-15l30.64-30.62c5.02 4.46 10.34 8.58 15.9 12.38zM619.254 180.834h-26.96c-0.14-2.16-0.2-4.34-0.2-6.54 0-4.54 0.28-9.04 0.82-13.46h14.3a160.2 160.2 0 0 0 12.04 20z" fill="#F98D24" /><path d="M810.374 180.834h-90.68l63.84 63.84c-8.08 1.78-16.4 2.92-24.88 3.4h-0.02l-25.9-25.92c-4.94-13.1-13.72-25.48-25.7-36.76h-0.02c-31.92-10.54-34.14 18.2-34.14 18.2 0.78 0.58 1.54 1.18 2.28 1.78l-15.34 15.34c-5.56-3.8-10.88-7.92-15.9-12.38l27.5-27.5h-52.16a160.2 160.2 0 0 1-12.04-20h64.2l-55.12-55.12c4.2-5.2 8.88-10 13.94-14.36l55.32 55.34v-80.5c5.16-0.76 10.42-1.14 15.78-1.14 1.42 0 2.82 0.02 4.22 0.1v81.54l60.44-60.46c5.4 3.98 10.4 8.42 14.98 13.3l-61.28 61.3h90.06c0.54 4.42 0.82 8.9 0.82 13.46 0 2.2-0.06 4.38-0.2 6.54z" fill="#F9AC2F" /></svg>