<?xml version="1.0" standalone="no"?><!DOCTYPE svg PUBLIC "-//W3C//DTD SVG 1.1//EN" "http://www.w3.org/Graphics/SVG/1.1/DTD/svg11.dtd"><svg class="icon" width="200px" height="200.00px" viewBox="0 0 1024 1024" version="1.1" xmlns="http://www.w3.org/2000/svg"><path d="M771.464 375.414c0 75.6-124.4 136.88-277.86 136.88-153.48 0-277.88-61.28-277.88-136.88 0-23.88 12.42-46.32 34.24-65.86a11.692 11.692 0 0 0 3.86-9.96c-0.24-2.14-0.36-4.28-0.36-6.44 0-24.94 15.68-48.08 42.44-67.16 4.18-2.98 5.84-8.38 4.16-13.22a49.58 49.58 0 0 1-2.8-16.34c0-23.44 16.94-44.94 45.12-61.68 19.64-11.68 32.56-32.08 34.22-54.88a159.52 159.52 0 0 1 4.76-28.74c4.46-17.04 24.86-24.02 38.6-13 11.44 9.16 29.4 16.34 55.04 19.1 38.52 4.14 82.4 30.14 105.44 45.5a166.544 166.544 0 0 0 33.28 17.2c46.36 17.7 76.2 45.38 76.2 76.5 0 5.58-0.96 11.04-2.8 16.34a11.81 11.81 0 0 0-0.3 6.6c0.64 2.6 2.18 4.98 4.46 6.62 4.18 2.98 8.1 6.06 11.72 9.24 0.02 0.04 0.06 0.06 0.08 0.08 19.5 17.08 30.64 36.82 30.64 57.84 0 2.16-0.12 4.3-0.36 6.44-0.4 3.74 1.06 7.44 3.86 9.96 21.82 19.54 34.24 41.98 34.24 65.86z" fill="#FF9AB9" /><path d="M771.464 375.414c0 75.6-124.4 136.88-277.86 136.88-113.62 0-211.28-33.58-254.36-81.68 104.54 39.5 178.88-18.62 221.22-73.44 42.84-55.48 106.08-46.48 106.08-46.48 18.58-2.62 34.62-7.88 48.84-12.8 65.9-22.8 87.62-62.66 87.62-62.66 0.02 0.04 0.06 0.06 0.08 0.08 19.5 17.08 30.64 36.82 30.64 57.84 0 2.16-0.12 4.3-0.36 6.44-0.4 3.74 1.06 7.44 3.86 9.96 21.82 19.54 34.24 41.98 34.24 65.86z" fill="#FF78AD" /><path d="M497.304 120.874c0 63.16-73.7 114.36-164.62 114.36-15.1 0-29.72-1.42-43.62-4.06 1.78-1.44 3.62-2.84 5.5-4.2 0.44-0.34 0.9-0.66 1.34-0.98a11.486 11.486 0 0 0 4.36-12.5c-0.04-0.24-0.12-0.48-0.2-0.72a49.58 49.58 0 0 1-2.8-16.34c0-23.44 16.94-44.94 45.12-61.68 19.64-11.68 32.56-32.08 34.22-54.88a159.52 159.52 0 0 1 4.76-28.74c4.46-17.04 24.86-24.02 38.6-13 10.48 8.38 26.4 15.12 48.7 18.3 18.08 18.32 28.64 40.52 28.64 64.44z" fill="#FFAECB" /><path d="M609.644 499.814c-10.18 30.5-30.58 58.88-69.04 74.88-113.04 46.98-202.64 53.76-264.34 151.9l-50.16-275.76-7.72-56.14-0.08-0.58c18.5 66.76 134.7 118.18 275.3 118.18 41.42 0 80.72-4.46 116.04-12.48z" fill="#B2E2F4" /><path d="M682.844 880.994l-3.78 20.8c-10.16 51.9-71.98 96.14-185.46 96.14s-177.74-47.78-185.48-96.14l-3.78-20.8c27.48 41.52 101.84 71.26 189.26 71.26 87.4 0 161.76-29.74 189.24-71.26z" fill="#60C3E8" /><path d="M768.884 394.114l-0.08 0.58-7.72 56.14-68.96 379.2-9.28 50.96c-27.48 41.52-101.84 71.26-189.24 71.26-87.42 0-161.78-29.74-189.26-71.26l-9.28-50.96-18.8-103.42v-0.02c61.7-98.14 151.3-104.92 264.34-151.9 38.46-16 58.86-44.38 69.04-74.88 84.54-19.16 146.2-58.62 159.24-105.7z" fill="#87D2ED" /><path d="M609.644 499.814c-5.1 15.32-12.8 30.1-24.06 43.04-9.8 1.68-19.84 3.12-30.1 4.26-19.9 2.24-40.6 3.42-61.88 3.42-95.92 0-180.5-23.94-230.42-60.36-16.34-11.92-28.98-25.16-37.08-39.34l-7.72-56.14c0.02-0.04 0.02-0.1 0.04-0.14 18.9 66.54 134.88 117.74 275.18 117.74 41.42 0 80.74-4.46 116.04-12.48z" fill="#60C3E8" /><path d="M768.804 394.694l-7.72 56.14c-8.1 14.18-20.72 27.42-37.06 39.32-33.16 24.2-81.56 42.88-138.44 52.7 11.26-12.94 18.96-27.72 24.06-43.04 84.28-19.1 145.8-58.38 159.12-105.26 0.02 0.04 0.02 0.1 0.04 0.14z" fill="#30A6DC" /><path d="M739.924 567.154l-21.84 120.1c-119.16-20.04-210.32 50.12-210.32 50.12 63.84-123.26 192.22-161.16 232.16-170.22zM507.744 737.394c-1.44 1.96-86.48 116.12-204.7 136.48l-21.178-116.448c46.26 10.862 127.878 35.248 225.878-20.032z" fill="#FF78AD" /><path d="M703.084 235.314c-11.48 19.68-31.86 37.14-60.06 51.04-22.18 10.94-48.22 19.16-76.48 24.34-7.4 1.36-14.22-4.3-14.22-11.8 0-2.92 1.04-5.6 2.8-7.7a12.09 12.09 0 0 1 7.08-4.1c59.46-10.92 105.376-32.746 121.516-63.346 0.4 0.26 1.544-3.314 3.104-4.374 0.64 2.6 2.18 4.98 4.46 6.62 4.18 2.98 8.1 6.06 11.72 9.24 0.02 0.04 0.06 0.06 0.08 0.08zM751.704 324.614c-11.22 28.58-37.86 54.08-77.7 73.72-48.6 23.94-112.66 37.12-180.4 37.12-12.936 0-25.74-0.476-38.332-1.43a12.012 12.012 0 0 1-11.108-11.978c0-7.008 5.974-12.478 12.962-11.95 11.898 0.898 24.082 1.358 36.478 1.358 124.22 0 226.4-46.48 238.84-106.04 7.4 6.1 13.84 12.52 19.26 19.2z" fill="#F03974" /><path d="M583.058 228.914c0 7.54-8.88 14.06-21.88 17.3-5.56 1.4-11.9 2.18-18.6 2.18-7.98 0-15.42-1.1-21.68-3.02-11.3-3.46-18.8-9.54-18.8-16.46 0-7.86 9.7-14.64 23.66-17.7 5.12-1.14 10.82-1.76 16.82-1.76 8.68 0 16.74 1.32 23.32 3.56 10.38 3.52 17.16 9.34 17.16 15.9z" fill="#FF4374" /><path d="M745.584 33.454c0 11.04-8.96 20-20 20h-107.68c-17.62 0-32.76 13.16-35.24 30.6l-18.26 128.5-2.62 18.34-2.24 15.7c-5.16 1.16-10.92 1.8-16.98 1.8-7.98 0-15.42-1.1-21.68-3.02-0.5-0.16-1-0.32-1.48-0.48l2.14-15.04 2.58-18.26 18.94-133.16c5.26-37.04 37.42-64.98 74.84-64.98h107.68c11.04 0 20 8.96 20 20z" fill="#F9C835" /><path d="M561.784 230.894l-2.24 15.7c-5.16 1.16-10.92 1.8-16.98 1.8-7.98 0-15.42-1.1-21.68-3.02-0.5-0.16-1-0.32-1.48-0.48l2.14-15.04c10.02 2.82 23.92 4.6 40.24 1.04z" fill="#F9A241" /><path d="M326.438 186.892a30.968 22.562 0 1 0 61.936 0 30.968 22.562 0 1 0-61.936 0Z" fill="#FFD4D5" /><path d="M449.75 290.726c-71.324-8.004-127.854-35.134-146.184-69.872 0 0-2.78-5.84-3.28-7.4l-0.02 0.04c1.32 4.64-0.38 9.66-4.36 12.5l-0.93 0.68a146.47 146.47 0 0 0-10.87 8.64c11.48 19.68 31.86 37.14 60.06 51.04 28.922 14.254 64.418 23.912 102.872 28.222 7.15 0.802 13.428-4.73 13.428-11.924-0.002-6.128-4.626-11.242-10.716-11.926zM344.642 385.944c-49.43-19.294-83.084-47.946-89.896-80.53l-0.88-5.18c0.196 3.47-1.206 6.84-3.796 9.216-5.46 4.878-10.344 9.938-14.584 15.164 11.22 28.58 37.86 54.08 77.72 73.72a288.208 288.208 0 0 0 22.788 10.008c7.844 3.06 16.312-2.798 16.312-11.218a12.02 12.02 0 0 0-7.664-11.18z" fill="#FF538E" /></svg>