<?xml version="1.0" standalone="no"?><!DOCTYPE svg PUBLIC "-//W3C//DTD SVG 1.1//EN" "http://www.w3.org/Graphics/SVG/1.1/DTD/svg11.dtd"><svg class="icon" width="200px" height="200.00px" viewBox="0 0 1024 1024" version="1.1" xmlns="http://www.w3.org/2000/svg"><path d="M902.518 527.624c-11.74 2.36-25.52 5.46-40.6 9.44a46.02 46.02 0 0 1 8.64 26.92v157.78c0 25.58-20.72 46.3-46.3 46.3h-16.32c-11.24 0-20.36-9.1-20.36-20.34v-186.36c-59.3 23.7-120.9 60.24-155.34 115.6-77.14 124.04-269.92 191.98-418.94 136.38v38.94c0 84.08 128.56 152.24 287.14 152.24s287.14-68.16 287.14-152.24v-23.86c0-11.24 9.12-20.36 20.36-20.36h16.32c47.66 0 86.3-38.64 86.3-86.3v-157.78a85.74 85.74 0 0 0-8.04-36.36z" fill="#5BC1E7" /><path d="M902.518 527.624c-11.74 2.36-25.52 5.46-40.6 9.44-8.38-11.72-22.12-19.38-37.66-19.38h-16.32c-11.24 0-20.36 9.12-20.36 20.36v23.32c-59.3 23.7-120.9 60.24-155.34 115.6-77.14 124.04-269.92 191.98-418.94 136.38v-356.02c0-25.8 12.14-50.12 33.52-71.42a57.55 57.55 0 0 0 16.96-41.04c-0.16-36.42-0.24-97.96-0.24-97.96 0 69.36 106.06 125.6 236.9 125.6s236.9-56.24 236.9-125.6c0 0-0.08 61.54-0.24 97.96-0.06 15.4 6.04 30.18 16.96 41.04 10.7 10.66 19.08 22.06 24.78 34.02s8.74 24.5 8.74 37.4c0 11.26 9.12 20.36 20.36 20.36h16.32c34.662 0 64.562 20.44 78.26 49.94z" fill="#A8E2F4" /><path d="M751.58 457.324v120.04c-47.1 23.24-91.86 55.44-119.34 99.6-71.06 114.26-240.22 180.92-382.94 147.26v-366.9c0-8.56 2.52-17.26 7.32-25.86s11.92-17.1 21.12-25.26c1.6-1.4 3.26-2.82 4.98-4.2 3.14-3.24 7.26-8.52 10.74-16.58 40.5 38.48 118 64.48 206.98 64.48 88 0 164.78-25.44 205.64-63.18 1.8 4.04 4.32 8.14 7.76 11.9 3.3 2.48 6.4 5.02 9.3 7.58 18.4 16.32 28.44 34 28.44 51.12z" fill="#FFAECB" /><path d="M751.58 577.364v274.92c0 26.3-23.68 53.94-64.96 75.84-49.14 26.04-115.26 40.4-186.18 40.4s-137.04-14.36-186.18-40.4c-41.28-21.9-64.96-49.54-64.96-75.84v-28.06c142.72 33.66 311.88-33 382.94-147.26 27.48-44.16 72.24-76.36 119.34-99.6z" fill="#FF78AD" /><path d="M706.08 386.724c-40.86 37.74-117.64 63.18-205.64 63.18-88.98 0-166.48-26-206.98-64.48 2.56-5.84 4.76-13.12 6.08-22.12v-49.82c41.88 35.44 116.2 59.02 200.9 59.02s159.02-23.58 200.9-59.02v49.82s-0.68 11.42 4.74 23.42z" fill="#FF8CBB" /><path d="M737.342 246.9c0 69.366-106.064 125.6-236.9 125.6s-236.9-56.232-236.9-125.6 106.064-125.6 236.9-125.6 236.9 56.234 236.9 125.6z m-86.25 57.008c31.936-16.932 50.25-37.708 50.25-57.006s-18.314-40.076-50.25-57.006c-39.068-20.714-93.978-32.594-150.65-32.594s-111.582 11.878-150.65 32.594c-31.936 16.93-50.25 37.708-50.25 57.006s18.314 40.074 50.25 57.006c39.07 20.712 93.978 32.594 150.65 32.594s111.58-11.882 150.65-32.594z" fill="#D0EFF9" /><path d="M453.988 537.488a17 17 0 0 0-17 17v51.292a17 17 0 0 0 34 0v-51.292a17 17 0 0 0-17-17zM651.092 189.896c-39.068-20.714-93.978-32.594-150.65-32.594s-111.582 11.878-150.65 32.594c-31.936 16.93-50.25 37.708-50.25 57.006s18.314 40.074 50.25 57.006a211.76 211.76 0 0 0 18.14 8.492c4.992 2.068 8.28 6.898 8.276 12.3-0.026 30.118-0.048 125.204-0.048 125.204a17.002 17.002 0 0 0 18.132 16.964c9.036-0.586 15.868-8.492 15.868-17.546v-106.816c0-8.336 7.584-14.618 15.768-13.03l0.27 0.052a13.286 13.286 0 0 1 10.794 13.03v148.968c0 9.054 6.832 16.96 15.868 17.546a17 17 0 0 0 18.132-16.964v-142.658c0-7.578 6.326-13.56 13.898-13.26 5.162 0.204 10.35 0.31 15.554 0.31 56.672 0 111.58-11.88 150.65-32.594 31.936-16.932 50.25-37.708 50.25-57.006s-18.318-40.076-50.252-57.004z" fill="#FF8CBB" /><path d="M517.118 31.116c-1.808-13.044-16.662-19.586-27.624-12.288-56.066 37.328-75.492 82.624-80.302 120.232C361.898 96.774 303.046 97.05 270 101.632c-13.044 1.808-19.586 16.662-12.288 27.624 58.152 87.342 135.638 85.766 173.28 78.532a17.746 17.746 0 0 0 10-5.714c80.874-49.072 81.816-129.918 76.126-170.958z" fill="#85BF3F" /><path d="M623.144 164.592c0.922 15.274-2.896 29.598-10.134 41.65-4.74 7.892-14.126 11.78-22.978 9.25-7.106-2.03-15.362-2.734-24.794-1.048-33.1 5.92-66.36 3.74-78.18-11.74-1.62-3.06-3.02-6.26-4.16-9.56l-0.02-0.02v-0.02c-2.66-7.5-4.1-15.6-4.1-24.02 0-41.644 35.192-75.038 77.448-72.076 35.838 2.51 64.75 31.726 66.918 67.584z" fill="#5F1367" /><path d="M509.81 220.258c0.604 12.312-1.87 23.982-6.726 34.318-1.148 2.442-3.1 4.444-5.576 5.518-15.89 6.902-40.842 7.028-65.71 2.59-15.89-2.84-28.456 1.084-37.772 6.734-4.944 2.998-11.408 1.656-14.814-3.018a71.894 71.894 0 0 1-13.814-42.496c0-41.622 35.192-75.04 77.47-72.078 36.15 2.534 65.166 32.238 66.942 68.432zM614.97 273.564c0 9.78-12.4 18.12-29.88 21.46-5.26 1-11 1.56-17 1.56-8.58 0-16.64-1.14-23.54-3.12-13.98-3.98-23.36-11.4-23.36-19.9 0-9.72 12.3-18.02 29.66-21.38 5.34-1.06 11.14-1.62 17.24-1.62 8.34 0 16.18 1.08 22.96 2.96 14.28 3.92 23.92 11.44 23.92 20.04z" fill="#F03974" /><path d="M352.2 344.884c7.62 3.24 15.64 6.24 24 8.98-0.02 25.32-0.02 57.46-0.02 77.38-8.36-2.74-16.38-5.74-24-9 0-22.56 0-54.38 0.02-77.36zM410.16 363.064c8.68 1.9 17.64 3.54 26.82 4.88v77.4c-9.18-1.34-18.14-2.98-26.82-4.92zM494.98 372.464v77.38c-8.1-0.06-16.12-0.38-24-0.92v-77.38c7.88 0.52 15.9 0.84 24 0.92z" fill="#FF78AD" /><path d="M376.2 324.704c0 6.94-0.02 17.3 0 29.16-8.36-2.74-16.38-5.74-24-8.98v-13.14c0.02-18.84-13.92-33.18-21.82-39.76 5.74 4.12 12.24 8.12 19.42 11.92 5.7 3.04 11.78 5.86 18.14 8.5 4.98 2.06 8.28 6.9 8.26 12.3zM436.98 342.564v25.38c-9.18-1.34-18.14-2.98-26.82-4.88v-20.56c0-7.46 6.08-13.28 13.22-13.28 0.84 0 1.68 0.08 2.54 0.26 0.1 0 0.18 0.02 0.28 0.04 6.26 1.22 10.78 6.66 10.78 13.04zM494.98 360.464v12c-8.1-0.08-16.12-0.4-24-0.92v-22.1c0-7.38 6.04-13.26 13.36-13.26h0.54c5.16 0.22 10.36 0.32 15.56 0.32 7.96 0 15.88-0.24 23.72-0.7-30.9 3.04-29.18 24.66-29.18 24.66z" fill="#87D2ED" /><path d="M331.696 622.78m-17.264 0a17.264 17.264 0 1 0 34.528 0 17.264 17.264 0 1 0-34.528 0Z" fill="#FF8CBB" /><path d="M636.21 804.994m-17.264 0a17.264 17.264 0 1 0 34.528 0 17.264 17.264 0 1 0-34.528 0Z" fill="#FFAECB" /><path d="M488.39 709.296m-17.264 0a17.264 17.264 0 1 0 34.528 0 17.264 17.264 0 1 0-34.528 0Z" fill="#F03974" /><path d="M596.404 565.604m-17.264 0a17.264 17.264 0 1 0 34.528 0 17.264 17.264 0 1 0-34.528 0Z" fill="#F03974" /><path d="M398.716 878.32m-17.264 0a17.264 17.264 0 1 0 34.528 0 17.264 17.264 0 1 0-34.528 0Z" fill="#F03974" /><path d="M393.900755 191.083398a15.682 26.138 67.82 1 0 48.407703-19.735108 15.682 26.138 67.82 1 0-48.407703 19.735108Z" fill="#C0003B" /><path d="M554.66109 140.162602a26.138 15.682 10.84 1 0 5.898534-30.804347 26.138 15.682 10.84 1 0-5.898534 30.804347Z" fill="#250037" /><path d="M620.7 42.024l-8.64 61.34-16.14 114.78-8.94 63.58c-19.48 2.8-33.34-0.02-40.44-2.22l7.08-50.22 14.48-102.5 12.8-90.64c1.46-9.88 9.92-17.2 19.9-17.2 12.298 0 21.7 10.92 19.9 23.08z" fill="#A8E2F4" /><path d="M586.98 281.724l-1.88 13.3c-5.26 1-11 1.56-17 1.56-8.58 0-16.64-1.14-23.54-3.12l1.98-13.96c7.1 2.2 20.96 5.02 40.44 2.22z" fill="#87D2ED" /></svg>