<?xml version="1.0" standalone="no"?><!DOCTYPE svg PUBLIC "-//W3C//DTD SVG 1.1//EN" "http://www.w3.org/Graphics/SVG/1.1/DTD/svg11.dtd"><svg class="icon" width="200px" height="200.00px" viewBox="0 0 1024 1024" version="1.1" xmlns="http://www.w3.org/2000/svg"><path d="M543.860876 960.962246h-58.535772v-29.157886c0-57.461776 47.977813-71.447721 47.977813-71.447721h-158.991379s47.977813 13.983945 47.977812 71.447721v29.157886H363.759579c-17.333932 0-31.517877 14.183945-31.517877 31.517877s14.183945 31.517877 31.517877 31.517877h180.101297c17.333932 0 31.517877-14.183945 31.517876-31.517877 0-17.333932-14.181945-31.517877-31.517876-31.517877z" fill="#B9D8F4" /><path d="M727.04816 52.405795c-69.871727-69.871727-183.563283-69.871727-253.43501 0-10.075961 10.075961-10.075961 26.409897 0 36.481858l216.953152 216.953152c10.075961 10.075961 26.409897 10.075961 36.481858 0 69.873727-69.871727 69.873727-183.561283 0-253.43501z" fill="#FFDE55" /><path d="M727.04816 130.413491c24.971902 24.971902 40.96784 55.549783 48.089812 87.711657 12.80595-57.835774-3.189988-120.819528-48.089812-165.721353-69.871727-69.871727-183.563283-69.871727-253.43501 0-10.075961 10.075961-10.075961 26.409897 0 36.481858l22.491912 22.491912c69.965727-50.081804 168.143343-43.763829 230.943098 19.035926z" fill="#FFD422" /><path d="M706.214241 74.541709c-59.149769-59.149769-155.047394-59.149769-214.197163 0a152.865403 152.865403 0 0 0-15.131941 17.619931l211.709173 211.709173a152.667404 152.667404 0 0 0 17.619931-15.131941c59.149769-59.147769 59.149769-155.047394 0-214.197163z" fill="#FFEB99" /><path d="M626.422553 32.657872l-44.175827 164.867356 0.983996 0.983997 164.867356-44.175828c-5.329979-29.227886-19.283925-57.193777-41.883837-79.791688-22.597912-22.597912-50.563802-36.549857-79.791688-41.883837z" fill="#FFE477" /><path d="M533.304917 860.356639h-158.991379s47.977813 13.983945 47.977812 71.447721v5.10198c10.34596 1.199995 20.857919 1.835993 31.517877 1.835993s21.171917-0.637998 31.517877-1.835993v-5.10198c0-57.461776 47.977813-71.447721 47.977813-71.447721z" fill="#96C8EF" /><path d="M597.422666 453.590228c-17.479932-84.635669-11.741954-168.067343 17.049934-247.977031a38.595849 38.595849 0 0 0-36.307858-51.675798H329.453713a38.593849 38.593849 0 0 0-36.307858 51.675798c28.795888 79.909688 34.529865 163.341362 17.049933 247.977031-13.347948 64.625748-65.647744 132.589482-65.647743 213.207167 0 115.387549 93.873633 209.261183 209.261182 209.261183S663.07041 782.184945 663.07041 666.797395c0-80.617685-52.299796-148.57942-65.647744-213.207167z" fill="#D1E7F8" /><path d="M385.239495 666.797395c0-80.615685 52.299796-148.58142 65.647744-213.207167 17.479932-84.635669 11.741954-168.067343-17.049934-247.977031a38.595849 38.595849 0 0 1 36.307858-51.675798h-140.69145a38.589849 38.589849 0 0 0-36.307858 51.675798c28.795888 79.909688 34.529865 163.341362 17.049933 247.977031-13.347948 64.625748-65.647744 132.589482-65.647743 213.207167 0 115.387549 93.873633 209.261183 209.261182 209.261183a208.319186 208.319186 0 0 0 70.345726-12.177953c-80.883684-28.957887-138.915457-106.367585-138.915458-197.08323z" fill="#B9D8F4" /><path d="M578.64674 546.451865c-11.377956-26.161898-23.14191-53.217792-28.867888-80.943683-15.695939-75.993703-12.991949-151.335409 8.033969-223.927126a19.523924 19.523924 0 0 0-18.755927-24.959902h-170.489334a19.523924 19.523924 0 0 0-18.753926 24.959902c21.025918 72.591716 23.727907 147.933422 8.033968 223.927126-5.727978 27.727892-17.491932 54.781786-28.869887 80.951683-16.287936 37.453854-31.671876 72.831716-31.671876 110.401569 0 86.299663 70.211726 156.511389 156.511388 156.511389s156.511389-70.211726 156.511389-156.511389c-0.006-37.571853-15.39194-72.947715-31.681876-110.409569z" fill="#FFA733" /><path d="M445.063261 813.114824c-36.981856-37.757853-59.821766-89.415651-59.821766-146.317429 0-80.615685 52.299796-148.58142 65.647744-213.207167 16.677935-80.757685 12.203952-160.417373-13.253949-236.969074h-69.06773a19.523924 19.523924 0 0 0-18.753926 24.959902c21.025918 72.591716 23.727907 147.933422 8.033968 223.927126-5.727978 27.727892-17.491932 54.781786-28.869887 80.951683-16.287936 37.453854-31.671876 72.831716-31.671876 110.401569-0.008 83.363674 65.509744 151.697407 147.757422 156.25339z" fill="#FF9811" /><path d="M539.052894 216.621154h-170.489334a19.523924 19.523924 0 0 0-18.753926 24.959902 459.686204 459.686204 0 0 1 10.961957 47.159816h186.079273a459.282206 459.282206 0 0 1 10.961957-47.159816 19.523924 19.523924 0 0 0-18.759927-24.959902z" fill="#FFFFFF" /><path d="M368.56356 216.621154a19.523924 19.523924 0 0 0-18.753926 24.959902 459.686204 459.686204 0 0 1 10.961957 47.159816h94.509631c-3.849985-24.299905-9.743962-48.359811-17.645932-72.117718l-69.07173-0.002z" fill="#DDFFFB" /><path d="M501.171042 304.410811a15.771938 15.771938 0 0 1-11.073956-4.595982 15.761938 15.761938 0 0 1-4.595982-11.073957c0-4.137984 1.671993-8.169968 4.595982-11.095957a15.837938 15.837938 0 0 1 11.073956-4.575982c4.137984 0 8.169968 1.671993 11.095957 4.575982a15.849938 15.849938 0 0 1 4.575982 11.095957 15.833938 15.833938 0 0 1-4.575982 11.073957 15.783938 15.783938 0 0 1-11.095957 4.595982z" fill="#FFFFFF" /><path d="M476.885137 310.678786a15.767938 15.767938 0 0 1-11.073957-4.595982 15.761938 15.761938 0 0 1-4.595982-11.073956c0-4.137984 1.671993-8.169968 4.595982-11.095957a15.837938 15.837938 0 0 1 11.073957-4.575982c4.137984 0 8.169968 1.671993 11.095957 4.575982a15.849938 15.849938 0 0 1 4.575982 11.095957 15.833938 15.833938 0 0 1-4.575982 11.073956 15.775938 15.775938 0 0 1-11.095957 4.595982zM516.842981 338.540678a15.767938 15.767938 0 0 1-11.073957-4.595982 15.761938 15.761938 0 0 1-4.595982-11.073957c0-4.137984 1.671993-8.169968 4.595982-11.095957a15.837938 15.837938 0 0 1 11.073957-4.575982c4.137984 0 8.169968 1.671993 11.095957 4.575982a15.849938 15.849938 0 0 1 4.575982 11.095957 15.833938 15.833938 0 0 1-4.575982 11.073957 15.795938 15.795938 0 0 1-11.095957 4.595982z" fill="#FFFFFF" /><path d="M453.829227 423.486346a15.671939 15.671939 0 0 1-15.591939-17.433932c0.078-0.743997 3.263987-33.685868-16.461936-49.345807a15.673939 15.673939 0 0 1 19.491924-24.547904c33.607869 26.681896 28.349889 75.407705 28.10989 77.469697a15.675939 15.675939 0 0 1-15.547939 13.857946z" fill="#6A563D" /><path d="M453.817227 429.412323m-47.361815 0a47.361815 47.361815 0 1 0 94.72363 0 47.361815 47.361815 0 1 0-94.72363 0Z" fill="#FF0C38" /><path d="M453.809227 429.406323c0-17.525932 9.527963-32.819872 23.679908-41.00984a47.125816 47.125816 0 0 0-23.679908-6.351975c-26.155898 0-47.361815 21.203917-47.361815 47.361815 0 26.155898 21.203917 47.361815 47.361815 47.361815a47.119816 47.119816 0 0 0 23.679908-6.351976c-14.149945-8.189968-23.679908-23.483908-23.679908-41.009839z" fill="#D80027" /><path d="M297.297839 656.861434c0 86.299663 70.211726 156.511389 156.511388 156.511389 86.301663 0 156.511389-70.211726 156.511389-156.511389 0-34.307866-12.83395-66.787739-27.463893-100.693607H324.761731c-14.629943 33.901868-27.463893 66.385741-27.463892 100.693607z" fill="#FF6243" /><path d="M324.763731 556.167827c-14.629943 33.901868-27.465893 66.385741-27.465892 100.693607 0 83.363674 65.517744 151.699407 147.763422 156.25339-36.981856-37.757853-59.821766-89.415651-59.821766-146.317429 0-39.557845 12.597951-76.063703 26.999895-110.629568h-87.475659z" fill="#FF5023" /><path d="M297.297839 656.861434c0 86.299663 70.211726 156.511389 156.511388 156.511389 86.301663 0 156.511389-70.211726 156.511389-156.511389 0-4.809981-0.275999-9.581963-0.749997-14.329944H298.047836a144.135437 144.135437 0 0 0-0.749997 14.329944z" fill="#FF5023" /><path d="M298.047836 642.53349a144.105437 144.105437 0 0 0-0.749997 14.329944c0 83.363674 65.517744 151.699407 147.763422 156.25339-36.981856-37.757853-59.821766-89.415651-59.821766-146.317429 0-8.217968 0.567998-16.297936 1.557994-24.263905h-88.751653v-0.002zM541.852883 704.977246a15.669939 15.669939 0 0 1-14.695942-21.107917 77.299698 77.299698 0 0 0 3.567986-13.089949c1.535994-8.515967 9.691962-14.169945 18.205929-12.639951a15.673939 15.673939 0 0 1 12.63995 18.205929 109.109574 109.109574 0 0 1-5.01398 18.389928 15.679939 15.679939 0 0 1-14.703943 10.24196zM453.811227 766.361006a15.671939 15.671939 0 0 1 0-31.343877c18.809927 0 36.999855-6.809973 51.2158-19.175925a15.665939 15.665939 0 0 1 22.107914 1.539994 15.665939 15.665939 0 0 1-1.539994 22.107913 109.383573 109.383573 0 0 1-71.78372 26.871895z" fill="#FF3501" /></svg>