<?xml version="1.0" standalone="no"?><!DOCTYPE svg PUBLIC "-//W3C//DTD SVG 1.1//EN" "http://www.w3.org/Graphics/SVG/1.1/DTD/svg11.dtd"><svg class="icon" width="200px" height="200.00px" viewBox="0 0 1024 1024" version="1.1" xmlns="http://www.w3.org/2000/svg"><path d="M241.89 885.238a270.11 102.086 0 1 0 540.22 0 270.11 102.086 0 1 0-540.22 0Z" fill="#2273D1" /><path d="M627.674 398.994c-39.52 65.28-98.12 124.3-184.84 160.6-99.12 41.48-170.84 99.28-222.38 157.78v-420.22c0 72.34 146.66 110.18 291.54 110.18 39.42 0 78.98-2.8 115.68-8.34z" fill="#A8E2F4" /><path d="M803.554 297.154v540.56c0 72.34-146.68 110.18-291.56 110.18s-291.54-37.84-291.54-110.18v-120.34c51.54-58.5 123.26-116.3 222.38-157.78 86.72-36.3 145.32-95.32 184.84-160.6 98.16-14.8 175.88-49.18 175.88-101.84z" fill="#5BC1E7" /><path d="M685.234 260.174c-12.06 45.66-30.26 93.74-57.56 138.82-36.7 5.54-76.26 8.34-115.68 8.34-144.88 0-291.54-37.84-291.54-110.18 0-11.36 3.62-21.88 10.28-31.54 20.54-38.8 30.98-72.94 32.08-76.58-0.02 0.28-0.02 0.58-0.02 0.86 0 62.5 125.36 95.22 249.2 95.22 62.9 0 126.18-8.44 173.24-24.94z" fill="#D0EFF9" /><path d="M803.554 297.154c0 52.66-77.72 87.04-175.88 101.84 27.3-45.08 45.5-93.16 57.56-138.82 45.6-15.98 75.96-39.54 75.96-70.28 0-0.38 0-0.78-0.02-1.16l0.02-0.02s10.56 36.26 32.54 77.62c2.16 3.2 3.96 6.5 5.42 9.9 2.86 6.62 4.4 13.58 4.4 20.92z" fill="#A8E2F4" /><path d="M694.054 222.174c-1.25 6.2-2.604 12.476-4.072 18.812a656.782 656.782 0 0 1-4.748 19.188c-23.53 8.25-51.116 14.484-80.68 18.658s-61.11 6.282-92.56 6.282c-61.92 0-124.22-8.18-171.04-24.172s-78.16-39.798-78.16-71.048v-34.76c0 31.26 31.34 55.066 78.16 71.056s109.12 24.166 171.04 24.166c33.46 0 67.03-2.386 98.208-7.1s59.962-11.762 83.852-21.082z" fill="#5BC1E7" /><path d="M761.194 188.714h-0.04l0.028 0.59c0.008 0.196 0.012 0.39 0.012 0.59 0 15.37-7.59 28.946-20.88 40.676s-32.28 21.616-55.08 29.606c1.7-6.45 3.28-12.85 4.748-19.188s2.822-12.612 4.072-18.812c20.33-7.94 37.114-17.516 48.818-28.698s18.322-23.972 18.322-38.342v16.79z" fill="#2094DC" /><path d="M580.25 462.934c-35.32 38.94-80.26 72.74-137.42 96.66-82.02 34.32-145.26 79.82-193.84 127.64-18.3-13.02-28.54-27.58-28.54-42.98v-124.12c0 33.3 48.02 62.78 121.72 80.84 0.22 0.04 0.44 0.1 0.66 0.16 4.38 1.06 8.64-2.22 8.78-6.74 0.04-1.12 0.08-2.14 0.12-2.88 2.54-41.68 21.1-77.52 49.6-102.94 28.52-25.42 66.98-40.44 109.28-40.44 24.98 0 48.6 5.24 69.64 14.8z" fill="#F3FFE0" /><path d="M803.55 520.134v124.12c0 34.32-51 64.6-128.58 82.48-3.06 0.7-5.34 3.32-5.54 6.46-2.48 41.6-21 77.52-49.5 103.02s-66.98 40.6-109.32 40.6c-84.92 0-154.26-60.74-158.88-144.26-0.16-3.14-2.44-5.76-5.5-6.48-41.52-9.82-75.2-23.2-97.24-38.84 48.58-47.82 111.82-93.32 193.84-127.64 57.16-23.92 102.1-57.72 137.42-96.66 15.12 6.82 28.88 15.88 40.84 26.8 28.64 26.12 46.94 62.86 48.56 105.38 0.16 4.5 4.42 7.72 8.8 6.68 1.2-0.28 2.4-0.58 3.58-0.86 73.6-18.06 121.52-47.52 121.52-80.8z" fill="#E3F4B8" /><path d="M553.33 489.814c-30.5 27.6-66.96 51.56-110.5 69.78-21.38 8.96-41.5 18.66-60.42 28.98 11.5-60.32 64.52-105.92 128.2-105.92 14.96 0 29.34 2.52 42.72 7.16z" fill="#D3EB54" /><path d="M641.11 613.154v104.74c0 72.08-58.42 130.52-130.5 130.52s-130.52-58.44-130.52-130.52v-104.74c0-8.4 0.8-16.62 2.32-24.58 18.92-10.32 39.04-20.02 60.42-28.98 43.54-18.22 80-42.18 110.5-69.78a130.33 130.33 0 0 1 49.56 31.06c23.62 23.62 38.22 56.24 38.22 92.28z" fill="#B4D839" /><path d="M558.6 644.508c0.556-2.718-1.73-5.142-4.486-4.818-19.77 2.318-31.18 10.876-37.764 20.364v-28.744c0-0.178-0.038-0.348-0.052-0.522 30.686-4.732 39.82-33.88 42.304-46.006 0.556-2.718-1.73-5.142-4.486-4.818-27.554 3.23-38.886 18.572-43.514 31.678-4.63-13.106-15.962-28.448-43.516-31.678-2.756-0.324-5.044 2.1-4.486 4.818 2.466 12.04 11.488 40.864 41.656 45.904-0.022 0.208-0.062 0.41-0.062 0.624v27.81c-6.68-9.112-17.986-17.19-37.106-19.432-2.756-0.324-5.044 2.1-4.486 4.818 2.464 12.032 11.476 40.826 41.592 45.894v28.444c-6.68-9.112-17.986-17.19-37.106-19.432-2.756-0.324-5.044 2.1-4.486 4.818 2.464 12.032 11.476 40.826 41.592 45.894v32.356a6.08 6.08 0 1 0 12.16 0v-32.252c30.644-4.756 39.768-33.878 42.25-45.998 0.556-2.718-1.73-5.142-4.486-4.818-19.77 2.318-31.18 10.876-37.764 20.364v-29.274c30.638-4.752 39.764-33.874 42.246-45.994z" fill="#3D963F" /><path d="M627.674 438.346a16.98 16.98 0 0 1-16.98-16.98v-34.618a16.98 16.98 0 1 1 33.96 0v34.618a16.98 16.98 0 0 1-16.98 16.98z" fill="#FFFFFF" /><path d="M512 250.356c-61.918 0-124.218-8.178-171.038-24.168S262.8 186.39 262.8 155.132s31.34-55.064 78.162-71.056S450.082 59.908 512 59.908s124.218 8.178 171.038 24.168S761.2 123.874 761.2 155.132s-31.34 55.064-78.162 71.056-109.12 24.168-171.038 24.168z" fill="#87D2ED" /><path d="M716.792 153.024c0 7.154-3.314 14.046-9.468 20.528-26.156-27.6-103.72-47.602-195.33-47.602-91.594 0-169.158 20.002-195.314 47.602-6.154-6.482-9.468-13.374-9.468-20.528 0-37.61 91.692-68.114 204.782-68.114 113.106 0.002 204.798 30.506 204.798 68.114z" fill="#2273D1" /><path d="M707.322 173.56c-26.172 27.584-103.72 47.586-195.33 47.586-91.594 0-169.142-20.002-195.314-47.586 26.156-27.6 103.72-47.602 195.314-47.602 91.61 0 169.176 20.002 195.33 47.602z" fill="#D0EFF9" /><path d="M578.382 65.456c0-25.566-30.346-46.29-67.778-46.29-37.434 0-67.778 20.724-67.778 46.29 0 5.244 1.294 10.278 3.648 14.978l23.134 73.612a14.264 14.264 0 0 0 13.608 9.988h54.778a14.264 14.264 0 0 0 13.608-9.988l23.134-73.612c2.352-4.7 3.646-9.734 3.646-14.978z" fill="#2273D1" /><path d="M554.894 61.234c-14.18-0.88-28.56-1.32-42.9-1.32-15.28 0-30.6 0.5-45.68 1.48 0.7-15 20.26-27.04 44.28-27.04 23.96 0 43.46 11.96 44.3 26.88z" fill="#FFFFFF" /><path d="M554.934 62.254c0 15.4-19.84 27.9-44.34 27.9-24.48 0-44.32-12.5-44.32-27.9 0-0.28 0-0.58 0.04-0.86 15.08-0.98 30.4-1.48 45.68-1.48 14.34 0 28.72 0.44 42.9 1.32 0.04 0.34 0.04 0.68 0.04 1.02z" fill="#5BC1E7" /><path d="M461.434 128.034c-8.34 0.72-16.46 1.58-24.34 2.62l-12.34-39.26c7.8-1.22 15.86-2.3 24.16-3.18zM596.594 90.974l-12.38 39.34c-7.9-1-16.04-1.82-24.38-2.5l12.54-39.9c8.3 0.86 16.4 1.88 24.22 3.06z" fill="#0F4CB8" /><path d="M448.914 88.214c-4.15 0.44-8.24 0.93-12.268 1.462s-7.992 1.108-11.892 1.718l-0.68-2.16c-1.68-3.68-2.96-7.444-3.832-11.278s-1.338-7.732-1.388-11.682c3.94-0.56 7.916-1.084 11.922-1.57 4.008-0.486 8.048-0.93 12.118-1.33-0.02 0.34-0.06 1.73-0.06 2.08 0 2.62 0.32 5.19 0.936 7.692a34.626 34.626 0 0 0 2.704 7.288l1.22 3.89zM602.374 65.894c-0.03 4.01-0.486 7.976-1.36 11.872s-2.17 7.728-3.88 11.468l-0.54 1.74c-3.91-0.59-7.89-1.14-11.93-1.65s-8.14-0.98-12.29-1.41l1.18-3.74 1.18-3.74a34.626 34.626 0 0 0 2.704-7.288 32.1 32.1 0 0 0 0.936-7.692c0-0.4-0.05-1.97-0.08-2.36a595.678 595.678 0 0 1 24.08 2.8z" fill="#5BC1E7" /><path d="M659.044 164.75c-4.236-1.844-6.458-6.474-5.022-10.864a54.848 54.848 0 0 0 2.636-19.7c-1.366-28.58-25.194-51.666-53.802-52.172-27.85-0.494-51.05 19.772-55.184 46.35-0.648 4.16-4.042 7.344-8.248 7.536-1.768 0.082-3.494 0.202-4.74 0.38-14.326 2.05-30.016 8.756-38.948 18.294-2.55 2.724-4.276 5.91-5.888 9.462h-6.636a14.256 14.256 0 0 1-10.04-4.144 42.928 42.928 0 0 0 2.198-13.51c0-23.846-19.332-43.178-43.178-43.178s-43.178 19.332-43.178 43.178c0 22.948 17.916 41.662 40.516 43.044l-0.18 0.134 49.076 3.006-0.006-0.006c8.752 1.262 18.298 2.026 28.324 2.184 33.628 13.324 37.802 45.344 38.214 56.422v60.824c0 9.044 6.824 16.94 15.85 17.524a16.98 16.98 0 0 0 18.11-16.944v-39.564l0.158-29.974c0.044-8.4 6.404-15.708 14.786-16.238a15.81 15.81 0 0 1 16.834 15.778v84.766c0 9.044 6.824 16.94 15.85 17.524a16.98 16.98 0 0 0 18.11-16.944v-106.916c0.876 0.078 1.758 0.134 2.656 0.134 16.244 0 29.412-13.168 29.412-29.412-0.002-12.07-7.276-22.442-17.68-26.974z" fill="#FFFFFF" /></svg>