<?xml version="1.0" standalone="no"?><!DOCTYPE svg PUBLIC "-//W3C//DTD SVG 1.1//EN" "http://www.w3.org/Graphics/SVG/1.1/DTD/svg11.dtd"><svg class="icon" width="200px" height="200.00px" viewBox="0 0 1024 1024" version="1.1" xmlns="http://www.w3.org/2000/svg"><path d="M659.3 944.59c0 32.42-65.96 58.68-147.3 58.68s-147.28-26.26-147.28-58.68c0-1.64 0.16-3.26 0.5-4.88l5.6-27.12c-0.2 1.22-0.3 2.46-0.3 3.7 0 32.42 63.34 58.68 141.48 58.68s141.48-26.26 141.48-58.68c0-1.2-0.08-2.4-0.28-3.6 1.62 7.64 6.1 29.2 6.1 31.9z" fill="#F03974" /><path d="M370.526 916.296a141.474 58.682 0 1 0 282.948 0 141.474 58.682 0 1 0-282.948 0Z" fill="#FFAECB" /><path d="M705.54 312.13c-119.4 76.32-283.54-42.22-323.52-60.8-22.58-10.5-47.54-7.82-67.08-2.38 3.08-94.28 25.82-163.76 25.82-163.76 0 38.86 76.12 70.36 170.02 70.36s170.04-31.5 170.04-70.36c0 0 33.46 102.22 24.72 226.94z" fill="#FFB4D3" /><path d="M599.8 911.83c0 16.6-39.86 30.06-89.02 30.06s-89.02-13.46-89.02-30.06c0-10.58 16.2-19.88 40.7-25.24 18.32-4 31.5-20.06 31.5-38.84v-163.86c0-31.54-16.46-60.4-42.78-77.74a109.9 109.9 0 0 1-18.52-15.4c-100.74-104.28-121.14-238.06-117.72-341.8 19.54-5.44 44.5-8.12 67.08 2.38 39.98 18.58 204.12 137.12 323.52 60.8-6.4 91.24-35.38 194.54-116.62 278.62a109.244 109.244 0 0 1-18.54 15.4c-26.32 17.34-42.78 46.2-42.78 77.74v163.86c0 18.78 13.18 34.84 31.52 38.84 24.478 5.36 40.68 14.66 40.68 25.24z" fill="#FF78AD" /><path d="M672.58 263.39c0.86 126.7-36.24 229.76-110.24 306.36-13.7 14.18-32 21.98-51.56 21.98-19.54 0-37.86-7.8-51.56-21.98-74-76.6-111.08-179.66-110.24-306.36 0.4-59.36 9.48-110.52 16.56-141.62 29.86 20.26 83.74 33.78 145.24 33.78s115.38-13.52 145.24-33.76c7.1 31.12 16.18 82.24 16.56 141.6z" fill="#FFFFFF" /><path d="M340.752 85.188a170.032 70.37 0 1 0 340.064 0 170.032 70.37 0 1 0-340.064 0Z" fill="#FFE8F1" /><path d="M510.784 122.738c-37.746 0-73.704-5.546-101.248-15.616-8.412-3.074-15.004-6.202-20.12-9.12-9.868-5.63-9.868-19.998 0-25.628 5.114-2.918 11.708-6.044 20.12-9.12 27.544-10.07 63.502-15.616 101.248-15.616s73.704 5.546 101.248 15.616c8.412 3.074 15.004 6.202 20.12 9.12 9.868 5.63 9.868 19.998 0 25.628-5.114 2.918-11.708 6.044-20.12 9.12-27.546 10.07-63.504 15.616-101.248 15.616z" fill="#FFFFFF" /><path d="M669.4 329.15c-67.76 29.88-150.42 35.06-196.16-17.74-51.28-59.18-117.88-66.82-123.82-67.4 0 0 67.04-31.72 139.16 17.86s111.88 78.76 180.82 67.28z" fill="#FFD13F" /><path d="M669.4 329.15c-8.62 80.14-34.62 149.18-77.7 206.24-208.32-61.8-242.28-291.38-242.28-291.38 5.94 0.58 72.54 8.22 123.82 67.4 45.74 52.8 128.4 47.62 196.16 17.74z" fill="#FFEAA8" /><path d="M591.7 535.39c-9.02 12-18.82 23.44-29.36 34.36-13.7 14.18-32 21.98-51.56 21.98s-37.86-7.8-51.56-21.98c-73.98-76.6-111.1-179.66-110.24-306.36 0.04-6.56 0.18-13.04 0.44-19.38 0 0 33.96 229.58 242.28 291.38z" fill="#FFE183" /><path d="M544.922 458.176m-17.264 0a17.264 17.264 0 1 0 34.528 0 17.264 17.264 0 1 0-34.528 0Z" fill="#F9C25B" /><path d="M562.186 216.752m-17.264 0a17.264 17.264 0 1 0 34.528 0 17.264 17.264 0 1 0-34.528 0Z" fill="#F9C25B" /><path d="M439.064 374.688m-17.264 0a17.264 17.264 0 1 0 34.528 0 17.264 17.264 0 1 0-34.528 0Z" fill="#F9C25B" /><path d="M599.8 911.83c0 9.3-12.5 17.6-32.12 23.12-56.8-14.9-55.68-58.72-55.68-58.72s-0.24-133.2 0-192.92c0.24-58.78 56.58-76.6 58.34-77.14-26.3 17.34-42.74 46.2-42.74 77.72v163.86c0 18.78 13.18 34.84 31.52 38.84 24.478 5.36 40.68 14.66 40.68 25.24z" fill="#F03974" /><path d="M468.442 550.086a40.968 21.3 0 1 0 81.936 0 40.968 21.3 0 1 0-81.936 0Z" fill="#FFCD2C" /></svg>