<?xml version="1.0" standalone="no"?><!DOCTYPE svg PUBLIC "-//W3C//DTD SVG 1.1//EN" "http://www.w3.org/Graphics/SVG/1.1/DTD/svg11.dtd"><svg class="icon" width="200px" height="200.00px" viewBox="0 0 1024 1024" version="1.1" xmlns="http://www.w3.org/2000/svg"><path d="M538.344 505.594c-73.54 54.94-101.14 113.32-111.74 191.9-10.7 79.36-126.16 151.44-224.92 186.7-9.62-12.2-18.74-24.78-27.3-37.34-50.6-74.36-81.56-159.8-89.62-247.96 5.1 0.3 10.24 0.44 15.42 0.44 90.4 0 170.4-44.56 219.22-112.94 52.36 12.86 113.02 20.22 177.66 20.22 13.96 0 27.74-0.34 41.28-1.02z" fill="#A7DF7D" /><path d="M319.404 486.394c-48.82 68.38-128.82 112.94-219.22 112.94-5.18 0-10.32-0.14-15.42-0.44a503.284 503.284 0 0 1 3.7-122.26c11.66-75.8 36.78-126.5 57.82-157.42-5.18 10.96-7.9 22.1-7.9 33.18 0 57.38 72.88 107.44 181.02 134z" fill="#C4F49E" /><path d="M819.984 846.854c-17.86 26.26-71.16 89.42-78.76 95.98-7.6 6.58-16.6 12.8-26.82 18.58-49.74 28.18-128.46 46.38-217.1 46.38-88.62 0-167.36-18.2-217.1-46.38h-0.22c-0.28-0.2-0.54-0.4-0.8-0.58-19.58-11.26-66.84-63.08-77.5-76.64 98.76-35.26 214.22-107.34 224.92-186.7 10.6-78.58 38.2-136.96 111.74-191.9 178.68-8.8 317.42-74.02 317.42-153.2 0-11.44-2.9-22.94-8.42-34.26 21.2 30.8 46.78 81.8 58.56 158.5 19.94 129.7-12.1 261.72-85.92 370.22z" fill="#73BF29" /><path d="M689.024 422.734c-64.48 28.18-113.46 55.08-150.68 82.86-13.54 0.68-27.32 1.02-41.28 1.02-64.64 0-125.3-7.36-177.66-20.22 31.48-44.06 50-98 50-156.28 0-17.16-1.6-33.94-4.68-50.2a266.94 266.94 0 0 0-28.92-80.1c48.46-12.8 103.26-20.32 161.26-20.32 64.08 0 124.22 9.18 176.28 24.5 4.32 2.84 205.56 135.76 15.68 218.74z" fill="#FFE38B" /><path d="M369.404 330.114c0 58.28-18.52 112.22-50 156.28-108.14-26.56-181.02-76.62-181.02-134 0-60.22 80.32-121.74 197.42-152.58a266.94 266.94 0 0 1 28.92 80.1c3.08 16.26 4.68 33.04 4.68 50.2z" fill="#FFECB1" /><path d="M855.764 352.394c0 79.18-138.74 144.4-317.42 153.2 37.22-27.78 86.2-54.68 150.68-82.86 189.88-82.98-11.36-215.9-15.68-218.74 108.92 31.98 182.42 90.78 182.42 148.4z" fill="#F9D652" /><path d="M679.884 292.454c0 11.56-15.36 25.96-39.66 37.48-1.96-0.94-3.98-1.84-6.06-2.74-36.14-15.54-84.76-24.1-136.86-24.1s-100.7 8.56-136.86 24.1c-2.08 0.9-4.1 1.8-6.06 2.74-24.28-11.52-39.66-25.92-39.66-37.48 0-12.5 17.96-28.28 45.72-40.22 36.16-15.54 84.76-24.1 136.86-24.1s100.72 8.56 136.86 24.1c27.78 11.94 45.72 27.72 45.72 40.22z" fill="#9A4C2C" /><path d="M640.224 329.934c-1.96 0.96-3.98 1.86-6.06 2.76-36.14 15.54-84.76 24.1-136.86 24.1s-100.7-8.56-136.86-24.1c-2.08-0.9-4.1-1.8-6.06-2.76 1.96-0.94 3.98-1.84 6.06-2.74 36.16-15.54 84.76-24.1 136.86-24.1s100.72 8.56 136.86 24.1c2.08 0.9 4.1 1.8 6.06 2.74z" fill="#FFFFFF" /><path d="M810.324 27.71c0 11.06-8.96 20-20 20h-107.68c-17.62 0-32.76 13.18-35.24 30.62l-24.4 169.48-13.5 93.84c-12.96 3.96-27 7.18-41.8 9.62l16.48-114.5 23.62-164.08c5.26-37.02 37.42-64.98 74.84-64.98h107.68c11.04 0 20 8.96 20 20z" fill="#87D2ED" /><path d="M456.964 596.214c-16.22 30.32-25.26 63.46-30.36 101.28-4.58 33.96-28.34 66.58-61.78 95.56-31.06-21.2-50.1-49.88-50.1-81.4 0-56.38 60.82-103.54 142.24-115.44z" fill="#73BF29" /><path d="M679.884 711.654c0 65.34-81.74 118.32-182.58 118.32-52.16 0-99.22-14.18-132.48-36.92 33.44-28.98 57.2-61.6 61.78-95.56 5.1-37.82 14.14-70.96 30.36-101.28 12.98-1.9 26.48-2.9 40.34-2.9 100.84 0 182.58 52.98 182.58 118.34z" fill="#4E9A2A" /><path d="M281.166 916.41a10.304 10.304 0 0 1-7.266-2.67 290.42 290.42 0 0 1-15.684-15.328 10.336 10.336 0 0 1 15.004-14.22 268.77 268.77 0 0 0 14.558 14.226 10.338 10.338 0 0 1-6.612 17.992zM225.962 804.42c5.8 18.372 13.812 36.328 23.784 53.346l0.036 0.062a9.174 9.174 0 0 1-14.844 10.646 285.594 285.594 0 0 1-36.142-52.482l-0.062-0.118a14.832 14.832 0 0 1 6.096-20.072 14.832 14.832 0 0 1 20.072 6.094c0.424 0.798 0.792 1.694 1.06 2.524z" fill="#FFFFFF" /><path d="M538.104 505.594c-13.46 0.68-27.16 1.02-41.04 1.02-64.64 0-125.3-7.36-177.66-20.22-5.96 8.36-12.38 16.36-19.26 23.96 4.14 1.12 8.34 2.2 12.58 3.24 56.02 13.74 119.76 21.02 184.34 21.02 2.34 0 4.68 0 7.02-0.04 10.14-9.82 21.5-19.46 34.26-28.98z" fill="#F9D652" /><path d="M319.404 486.394c-5.96 8.36-12.38 16.36-19.26 23.96-52.02-13.96-96.16-33.48-128.24-56.74-35-25.38-50.96-51.54-57.52-73.8 10.22-25.4 21.54-45.38 31.88-60.58-5.16 10.96-7.88 22.08-7.88 33.16 0 57.38 72.88 107.44 181.02 134z" fill="#FFE38B" /><path d="M879.904 379.534c-4.82 16.68-14.14 32.68-27.88 47.8-18.14 19.94-43.66 37.88-75.88 53.3-61.96 29.68-145.92 48.46-236.4 52.92-11.68 0.58-23.64 0.94-35.66 1.02 10.14-9.82 21.5-19.46 34.26-28.98 178.68-8.8 317.42-74.02 317.42-153.2 0-11.44-2.9-22.92-8.4-34.24 10.5 15.28 22.1 35.52 32.54 61.38z" fill="#F9A844" /></svg>