<?xml version="1.0" standalone="no"?><!DOCTYPE svg PUBLIC "-//W3C//DTD SVG 1.1//EN" "http://www.w3.org/Graphics/SVG/1.1/DTD/svg11.dtd"><svg class="icon" width="200px" height="200.00px" viewBox="0 0 1024 1024" version="1.1" xmlns="http://www.w3.org/2000/svg"><path d="M865.558 707.92l-62.04 37.18-25.74 15.42c-2.86-16-5.96-33.72-9.2-52.76l25.78-15.46 45.5-27.28a83.07 83.07 0 0 0 39.64-83.02l-23.7-168.32c-3.3-23.46-23.66-41.16-47.38-41.16h-47.18c-22.14 0-39.3 19.38-36.62 41.38 4.44 36.46 9.48 73.62 14.76 110.08-56.08 21.06-137.88 67.5-199.16 168.16-91.02 149.52-273.72 187.84-392.9 154.74 6.44-33.58 65.92-347.48 82-561.16h482.32c0.9 11.96 1.94 24.28 3.1 36.8h93.68c48.48 0 90.14 36.2 96.9 84.2l23.7 168.3a133.046 133.046 0 0 1-63.46 132.9z" fill="#D0EFF9" /><path d="M795.98 860.98c0 75.24-145.58 136.22-325.16 136.22S145.66 936.22 145.66 860.98c0-3.76 0.4-7.48 1.1-11.16 0 0 0.2-1 0.56-2.94 119.18 33.1 301.88-5.22 392.9-154.74 61.28-100.66 143.08-147.1 199.16-168.16 21.3 147 46.62 282.72 53.2 317.36 2.22 6.42 3.4 12.98 3.4 19.64z" fill="#A8E2F4" /><path d="M354.84 837.82c-56.14 18.92-114.46 23.94-165.72 17.4 0.32-2.2 0.86-4.38 1.56-6.54l16.6-100.94c-0.2 1.52-0.3 3.06-0.3 4.6 0 37.52 60.26 69.96 147.86 85.48z" fill="#73D0ED" /><path d="M752.98 860.98c0 56.74-126.32 102.72-282.16 102.72S188.66 917.72 188.66 860.98c0-1.94 0.16-3.84 0.46-5.76 51.26 6.54 109.58 1.52 165.72-17.4h0.02c35.18 6.24 74.76 9.74 116.64 9.74 146.1 0 264.54-42.62 264.54-95.22 0-1.74-0.14-3.48-0.4-5.2l15.6 102.46c1.14 3.74 1.74 7.54 1.74 11.38z" fill="#42C0E7" /><path d="M704.04 539.4c-45.14 22.46-98.52 60.2-144.16 123.18-27.64-3.54-57.38-5.46-88.38-5.46-139.44 0-253.66 38.84-263.78 88.1h-0.02s55.22-340.44 59.2-441.98h409.44c1.84 46.68 14.52 144.32 27.7 236.16z" fill="#F9C835" /><path d="M735.5 746.3c-6.74-38.78-78.02-71.28-175.62-83.72 45.64-62.98 99.02-100.72 144.16-123.18 14.64 102.14 29.88 197.1 31.46 206.9z" fill="#F9B135" /><path d="M559.88 662.58a440.76 440.76 0 0 0-19.66 29.56c-45.4 74.58-113.62 121.5-185.38 145.68-87.6-15.52-147.86-47.96-147.86-85.48 0-52.58 118.42-95.22 264.52-95.22 31 0 60.74 1.92 88.38 5.46z" fill="#F99D35" /><path d="M736.04 752.34c0 52.6-118.44 95.22-264.54 95.22-41.88 0-81.48-3.5-116.66-9.74 71.76-24.18 139.98-71.1 185.38-145.68a440.76 440.76 0 0 1 19.66-29.56c102.638 13.08 176.16 48.34 176.16 89.76z" fill="#F98A35" /><path d="M402.488 778.534a18 18 0 0 1-18-18v-40.258c0-9.942 8.058-18 18-18s18 8.058 18 18v40.258a18 18 0 0 1-18 18zM318 704.7a18 18 0 0 1-18-18v-40.258c0-9.942 8.058-18 18-18s18 8.058 18 18v40.258a18 18 0 0 1-18 18z" fill="#FFEAA8" /><path d="M597.142 728.662m-15.992 0a15.992 15.992 0 1 0 31.984 0 15.992 15.992 0 1 0-31.984 0Z" fill="#FFCD2C" /><path d="M318 767.576m-15.226 0a15.226 15.226 0 1 0 30.452 0 15.226 15.226 0 1 0-30.452 0Z" fill="#FFCD2C" /><path d="M491.738 593.81m-23.316 0a23.316 23.316 0 1 0 46.632 0 23.316 23.316 0 1 0-46.632 0Z" fill="#FFE285" /><path d="M556.386 483.694m-16.17 0a16.17 16.17 0 1 0 32.34 0 16.17 16.17 0 1 0-32.34 0Z" fill="#FFE285" /><path d="M625.86 564.574m-10.248 0a10.248 10.248 0 1 0 20.496 0 10.248 10.248 0 1 0-20.496 0Z" fill="#FFF7DF" /><path d="M655.408 109.754a121.68 121.68 0 0 0-40.206 3.288c-5.424 1.376-11.044-1.402-13.116-6.6-20.146-50.544-69.524-86.268-127.254-86.268-60.958 0-112.596 39.836-130.346 94.89a11.08 11.08 0 0 1-11.566 7.65 113.23 113.23 0 0 0-10.632-0.502c-53.676 0-98.744 36.734-111.506 86.428-1.272 4.952-5.834 8.258-10.946 8.254h-0.092c-53.68 0-96.974 44.468-95.054 98.576 1.726 48.662 40.762 88.652 89.37 91.49 6.912 0.404 13.674 0.064 20.218-0.938 6.65 31.826 29.208 57.794 58.978 69.234 15.972 6.136 26.746 21.176 26.746 38.286v64.668c0 9.588 7.236 17.958 16.802 18.578a18.002 18.002 0 0 0 19.198-17.962v-75.532c0-14.334 7.504-27.654 19.828-34.972l0.522-0.312c12.374-7.454 28.138 1.488 28.138 15.934v164.016c0 9.588 7.236 17.958 16.802 18.578a18.002 18.002 0 0 0 19.198-17.962V490.26c0-23.918 20.458-42.34 44.316-40.626 2.748 0.198 5.522 0.298 8.32 0.298 62.382 0 113.144-49.612 115.064-111.528a121.04 121.04 0 0 0 56.872 14.118c68.724 0 124.132-57.01 121.51-126.318-2.306-60.962-50.374-111.346-111.164-116.45z" fill="#FFEAA8" /><path d="M299.3 506.04c-16.54-2.24-34.9-7.28-53.02-17.32 1.22-8.9 2.42-17.74 3.58-26.5 7.08 5.38 14.96 9.78 23.4 13.02 13.58 5.22 23.4 16.88 26.04 30.8zM384.48 483.94v6.12c-7.6 3.54-33.78 15.82-48.48 16.98v-3.76c0-14.32 7.5-27.64 19.82-34.96 0.18-0.1 0.36-0.22 0.54-0.32a18.348 18.348 0 0 1 9.52-2.68c9.678 0 18.6 7.76 18.6 18.62zM682.16 371.78c-11.92 3.14-24.38 4.74-37.1 4.74-8.634 0-17.248-0.78-25.726-2.304a14.08 14.08 0 0 0-15.742 9.024c-7.106 19.184-18.464 36.71-33.532 51.36-23.12 22.46-52.76 35.98-84.54 38.78-4.1 0.36-23.34 0.14-23.78 0.14 0 0-14.6-2.48-38.92 3.12 5.26-14.76 18.84-25.4 34.9-26.94 3.984-0.546 8.3 0.29 15.406 0.228 5.454-0.048 10.622-0.488 12.394-0.688 56.58-6.04 100.86-53.08 102.66-110.84a121.12 121.12 0 0 0 56.88 14.12c12.02 0 23.62-1.74 34.58-5 0.74 7.66 1.6 15.76 2.52 24.26z" fill="#F9A935" /><path d="M249.86 462.22c-1.16 8.76-2.36 17.6-3.58 26.5a118.154 118.154 0 0 1-35.34-32.2c1.86-14.22 3.68-28.4 5.4-42.48 5.86 19.42 17.76 36.2 33.52 48.18zM718.14 356.94a142.566 142.566 0 0 1-35.98 14.84c-0.92-8.5-1.78-16.6-2.52-24.26a120.486 120.486 0 0 0 35.8-17.42c0.84 8.84 1.74 17.8 2.7 26.84z" fill="#42C0E7" /><path d="M471.506 176.446m-90.196 0a90.196 90.196 0 1 0 180.392 0 90.196 90.196 0 1 0-180.392 0Z" fill="#FFFAEC" /><path d="M648.464 211.67m-27.834 0a27.834 27.834 0 1 0 55.668 0 27.834 27.834 0 1 0-55.668 0Z" fill="#FFFFFF" /><path d="M313.082 407.598m-22.916 0a22.916 22.916 0 1 0 45.832 0 22.916 22.916 0 1 0-45.832 0Z" fill="#FFFAEC" /><path d="M286.928 298.432m-33.134 0a33.134 33.134 0 1 0 66.268 0 33.134 33.134 0 1 0-66.268 0Z" fill="#FFFFFF" /></svg>