<?xml version="1.0" standalone="no"?><!DOCTYPE svg PUBLIC "-//W3C//DTD SVG 1.1//EN" "http://www.w3.org/Graphics/SVG/1.1/DTD/svg11.dtd"><svg class="icon" width="200px" height="200.00px" viewBox="0 0 1024 1024" version="1.1" xmlns="http://www.w3.org/2000/svg"><path d="M744.9 501.624l-73.68 429.86c-6.92 43.08-80.36 76.46-179.46 76.46s-170.32-30.72-179.44-76.46l-77.66-428.86c10.7 5.66 23.3 11.86 37.88 18.34 55.1 28.28 132.6 45.88 218.46 45.88 84.5 0 160.92-17.06 215.84-44.56 0 0 18-8.96 38.06-20.66z" fill="#FF78AD" /><path d="M767.36 370.564l-22.46 131.06c-20.06 11.7-38.06 20.66-38.06 20.66-54.92 27.5-131.34 44.56-215.84 44.56-85.86 0-163.36-17.6-218.46-45.88-14.58-6.48-27.18-12.68-37.88-18.34l-23.74-131.08c46.6 52.8 153.44 89.74 277.8 89.74 125.1 0 232.5-37.38 278.64-90.72z" fill="#FFA8CC" /><path d="M657.64 809.444l-20 116.66c-2.76 17.16-53.86 47.84-145.88 47.84-93.68 0-141.7-28.52-146.06-48.88l-20.52-113.34c41.22 24.14 99.54 41.78 164.2 41.78 66.8 0 126.86-18.74 168.26-44.06z" fill="#F03974" /><path d="M706.84 522.284l-27.02 157.68-22.18 129.48c-41.4 25.32-101.46 44.06-168.26 44.06-64.66 0-122.98-17.64-164.2-41.78l-24.14-133.34-28.5-157.42c55.1 28.28 132.6 45.88 218.46 45.88 84.5 0 160.92-17.06 215.84-44.56z" fill="#9A4C2C" /><path d="M727.1 404.104l-20.26 118.18c-54.92 27.5-131.34 44.56-215.84 44.56-85.86 0-163.36-17.6-218.46-45.88l-21.04-116.12c55.46 34.38 141.12 56.44 237.22 56.44 96.78 0 182.96-22.38 238.38-57.18z" fill="#CB8F62" /><path d="M488.72 461.284c-96.46 0-182.4-22.22-237.84-56.84l5.74 30.94c2.42 1.26 4.88 2.52 7.4 3.76 60.42 29.76 140.22 46.14 224.7 46.14s164.26-16.38 224.68-46.14c2.86-1.4 5.64-2.84 8.38-4.28l5.24-30.72c-55.42 34.78-141.56 57.14-238.3 57.14z" fill="#B26B37" /><path d="M633 768.108c0 0.106 0 0.23-0.018 0.336a14.55 14.55 0 0 1-0.55 3.684c-6.448 22.8-67.178 49.468-141.126 49.468-73.362 0-133.702-26.386-140.966-48.92v-0.018a14.7 14.7 0 0 1-0.726-4.518v-0.036c0-24.678 63.44-49.964 141.692-49.964 78.254 0.004 141.694 25.29 141.694 49.968z" fill="#71260D" /><path d="M390.69 655.4m-20.526 0a20.526 20.526 0 1 0 41.052 0 20.526 20.526 0 1 0-41.052 0Z" fill="#71260D" /><path d="M579.604 509.584m-20.526 0a20.526 20.526 0 1 0 41.052 0 20.526 20.526 0 1 0-41.052 0Z" fill="#853B0D" /><path d="M579.604 732.33m-20.526 0a20.526 20.526 0 1 0 41.052 0 20.526 20.526 0 1 0-41.052 0Z" fill="#EBDEBB" /><path d="M390.7 477.624v0.42c0 11.34-9.2 20.54-20.54 20.54s-20.52-9.2-20.52-20.54c0-2.92 0.62-5.7 1.72-8.22 12.76 3.04 25.9 5.66 39.34 7.8z" fill="#EBDEBB" /><path d="M390.7 477.624c-13.44-2.14-26.58-4.76-39.34-7.8 3.16-7.24 10.38-12.3 18.8-12.3 11.2 0 20.32 8.96 20.54 20.1z" fill="#9A4C2C" /><path d="M521.7 566.084l-28.8 189.78c-1.5 9.9-10.02 17-19.74 17-1 0-2.02-0.08-3.04-0.24a19.986 19.986 0 0 1-16.76-22.78l27.8-183.1c3.26 0.08 6.54 0.1 9.84 0.1 10.36 0 20.6-0.26 30.7-0.76z" fill="#512000" /><path d="M534.16 483.684l-12.46 82.4c-10.1 0.5-20.34 0.76-30.7 0.76-3.3 0-6.58-0.02-9.84-0.1l12.46-81.48c13.68-0.1 27.2-0.64 40.54-1.58z" fill="#853B0D" /><path d="M537.84 459.304l-3.68 24.38c-13.34 0.94-26.86 1.48-40.54 1.58l3.66-24.04c13.76-0.18 27.3-0.82 40.56-1.92z" fill="#9A4C2C" /><path d="M607.64 95.784c-25.72 77.16-154.34 199.7-270.72 184.5-121.22-15.84-150.98 31.86-150.98 31.86 0-39.3 30.88-75.06 81.3-101.7-2.5-6.6-3.82-13.42-3.82-20.4 0-31.9 27.3-60.64 71.02-80.88 17.58-8.14 26.1-28.94 17.94-46.5-0.32-0.68-0.66-1.34-1.02-2-6.92-12.76-5.18-29.12-1.44-42.78 3.04-11.16 16.96-15.04 25.42-7.14 12.3 11.48 33.14 22.84 65.8 18.02 85.6-12.58 138.46 59.58 138.46 59.58l-0.06 0.12c9.76 2.12 19.14 4.56 28.1 7.32z" fill="#FFF0C0" /><path d="M791.48 312.144c0 82.36-135.56 149.14-302.76 149.14-167.22 0-302.78-66.78-302.78-149.14 0 0 29.76-47.7 150.98-31.86 116.38 15.2 245-107.34 270.72-184.5 63.86 19.58 106.36 54.46 106.36 94.26 0 6.98-1.32 13.8-3.82 20.4 50.42 26.64 81.3 62.4 81.3 101.7z" fill="#FFE38B" /><path d="M568.676 384.55c0 7.54-8.88 14.06-21.88 17.3-5.56 1.4-11.9 2.18-18.6 2.18-7.98 0-15.42-1.1-21.68-3.02-11.3-3.46-18.8-9.54-18.8-16.46 0-7.86 9.7-14.64 23.66-17.7 5.12-1.14 10.82-1.76 16.82-1.76 8.68 0 16.74 1.32 23.32 3.56 10.38 3.52 17.16 9.34 17.16 15.9zM732.84 223.924c-11.5 26.38-36.56 49.8-73.34 67.92-46.06 22.68-106.7 35.18-170.78 35.18-30.338 0-59.906-2.798-87.518-8.158a13.004 13.004 0 0 1-10.502-12.778c0-8.17 7.434-14.322 15.452-12.762 25.572 4.972 53.43 7.698 82.568 7.698 110.26 0 202.04-39.04 221.46-90.58 8.08 4.26 15.64 8.76 22.66 13.48z" fill="#FFC244" /><path d="M336.92 280.29c0 9.584-10.05 15.954-18.65 11.726l-0.35-0.172c-36.78-18.12-61.84-41.54-73.34-67.92 7.02-4.72 14.6-9.22 22.66-13.48 8.498 22.498 30.77 42.628 62.352 58.154a13.048 13.048 0 0 1 7.328 11.692zM413.02 151.688c0 8.136-7.904 13.87-15.674 11.452-17.534-5.456-33.776-12.758-48.126-21.736-11.72-7.34-21.8-15.52-30.16-24.38 4.86-2.74 10-5.36 15.38-7.86 2.42-1.12 4.68-2.48 6.74-4.04 15.748 14.902 37.584 27.068 63.316 35.078 5.05 1.572 8.524 6.198 8.524 11.486z" fill="#FFD961" /><path d="M641.86 108.664c-9.5 12.12-22.02 23.16-37.34 32.74-30.514 19.09-69.538 30.574-111.308 32.942-6.91 0.392-12.752-5.062-12.752-11.984 0-6.318 4.898-11.614 11.208-11.97 54.376-3.068 100.998-22.892 126.632-51.128 8.28 2.88 16.16 6.02 23.56 9.4z" fill="#FFC244" /><path d="M745.94 99.064c0 11.04-8.96 20-20 20h-107.68c-17.62 0-32.76 13.16-35.24 30.6l-31.5 218.98-2.78 19.54-1.94 13.66c-5.56 1.4-11.9 2.18-18.6 2.18-7.98 0-15.42-1.1-21.68-3.02l1.9-13.32 2.96-20.84 32.04-222.8c5.26-37.04 37.42-64.98 74.84-64.98h107.68c11.04 0 20 8.96 20 20z" fill="#87D2ED" /><path d="M549.5 382.84l-2.7 19.006c-5.56 1.4-11.9 2.18-18.6 2.18-7.98 0-15.42-1.1-21.68-3.02l2.588-18.164c5.656 5.084 31.204 7.406 40.392-0.002z" fill="#5392DB" /><path d="M250.88 404.444l5.74 30.94c-14.42-7.58-27.32-15.8-38.58-24.56l-7.12-39.28c0.28 0.32 0.56 0.62 0.84 0.92 10.32 11.5 23.52 22.22 39.12 31.98zM767.36 370.584l-6.74 39.28c-11.32 8.92-24.28 17.28-38.84 25l5.24-30.72c16.26-10.2 29.88-21.46 40.34-33.56z" fill="#FF78AD" /><path d="M377.18 73.204a46.772 26.06 0 1 0 93.544 0 46.772 26.06 0 1 0-93.544 0Z" fill="#FFF6DB" /></svg>