<?xml version="1.0" standalone="no"?><!DOCTYPE svg PUBLIC "-//W3C//DTD SVG 1.1//EN" "http://www.w3.org/Graphics/SVG/1.1/DTD/svg11.dtd"><svg class="icon" width="200px" height="200.00px" viewBox="0 0 1024 1024" version="1.1" xmlns="http://www.w3.org/2000/svg"><path d="M658.49 937.08c0 40.58-74.92 73.48-167.32 73.48-92.42 0-167.32-32.9-167.32-73.48 0-3.16 0.5-6.26 1.38-9.3h-0.02l5.5-25.18c-0.16 1.3-0.24 2.6-0.24 3.92 0 38.98 71.94 70.58 160.7 70.58 88.74 0 160.68-31.6 160.68-70.58 0-1.52-0.12-3.04-0.34-4.54l0.02-0.02 5.62 25.82h-0.04c0.88 3.04 1.38 6.14 1.38 9.3z" fill="#42C0E7" /><path d="M330.472 906.526a160.694 70.572 0 1 0 321.388 0 160.694 70.572 0 1 0-321.388 0Z" fill="#A8E2F4" /><path d="M785.33 226.9l-84.34 128.88c-56.88-6.26-139.96-4.74-189.14 44.96-39.54 39.96-114.32 41.52-179.94 32.86l-136.02-206.68c37.98 51.78 155.56 89.52 294.7 89.52 139.18 0 256.76-37.76 294.74-89.54z" fill="#A8E2F4" /><path d="M700.99 355.78l-106.1 162.16c-2.04 6.84-13.86 14.34-25.6 19.14-7.98 3.22-17.04 5.9-26.88 8-6.12 1.28-11.72 3.8-16.54 7.3h-0.02a43.926 43.926 0 0 0-18.2 35.6v227.58c0 20.76 14.02 38.78 34.06 44.18 27.38 7.36 45.62 20.52 45.62 35.56 0 10.14-8.32 19.44-22.16 26.68-17.64 9.22-44.24 15.1-74 15.1-53.12 0-96.18-18.7-96.18-41.78 0-15.04 18.24-28.2 45.62-35.56 20.04-5.4 34.06-23.42 34.06-44.18V587.98c0-20.72-14.5-38.66-34.76-42.9-9.84-2.1-18.9-4.78-26.88-8-5.88-2.4-11.76-5.46-16.44-8.8s-8.14-6.92-9.16-10.34l-55.52-84.34c65.62 8.66 140.4 7.1 179.94-32.86 49.18-49.7 132.26-51.222 189.14-44.96z" fill="#5BC1E7" /><path d="M706.13 280.44l-46.66 72.78c-50.9-0.6-109.46 8.96-147.62 47.52-30.82 31.16-83.06 38.98-135.68 36.8l-103.06-157.88h0.02c55.68 22.72 132.56 36.78 217.46 36.78 83.96 0 160.04-13.74 215.54-36z" fill="#F04674" /><path d="M659.47 353.22l-95.18 148.48c-1.82 1.12-26.4 20.14-73.12 20.14-46.74 0-71.3-19.02-73.12-20.12l-41.88-64.18c52.62 2.18 104.86-5.64 135.68-36.8 38.16-38.56 96.72-48.12 147.62-47.52z" fill="#E62861" /><path d="M431.682 481.754a58.91 21.284 0 1 0 117.82 0 58.91 21.284 0 1 0-117.82 0Z" fill="#B3214F" /><path d="M694.496 246.312c33.704-13.764 67.708-36.264 67.708-55.504s-34.006-41.74-67.708-55.504C640.614 113.3 568.2 101.18 490.592 101.18s-150.024 12.12-203.904 34.124c-33.704 13.764-67.708 36.264-67.708 55.504s34.006 41.74 67.708 55.504c53.88 22.004 126.294 34.124 203.904 34.124s150.022-12.12 203.904-34.124z" fill="#FFFFFF" /><path d="M715.696 236.47c-6.86 3.6-14.04 6.92-21.2 9.84-53.88 22-126.3 34.12-203.9 34.12-77.62 0-150.02-12.12-203.9-34.12-7.16-2.92-14.34-6.24-21.2-9.84 6.86-3.62 14.04-6.94 21.2-9.86 53.88-22 126.28-34.12 203.9-34.12 77.6 0 150.02 12.12 203.9 34.12 7.16 2.92 14.34 6.24 21.2 9.86z" fill="#FFFFFF" /><path d="M715.696 236.47c-6.86 3.6-14.04 6.92-21.2 9.84-53.88 22-126.3 34.12-203.9 34.12-77.62 0-150.02-12.12-203.9-34.12-7.16-2.92-14.34-6.24-21.2-9.84 6.86-3.62 14.04-6.94 21.2-9.86 53.88-22 126.28-34.12 203.9-34.12 77.6 0 150.02 12.12 203.9 34.12 7.16 2.92 14.34 6.24 21.2 9.86z" fill="#FAAAC2" /><path d="M587.336 895.292c0 10.14-8.32 19.44-22.16 26.68-25.52-4.338-42.476-14.608-53.632-25.346-13.23-12.734-20.368-30.536-20.368-48.9V606.55c1.14-47.06 33.72-53.96 34.68-54.16a43.9 43.9 0 0 0-18.2 35.6v227.564c0 20.76 14.02 38.78 34.06 44.18 27.38 7.36 45.62 20.518 45.62 35.558z" fill="#2094DC" /><path d="M798.204 190.806c0 69.382-137.724 125.628-307.614 125.628S182.978 260.188 182.978 190.806 320.7 65.18 490.592 65.18s307.612 56.244 307.612 125.626z m-103.708 55.506c33.704-13.764 67.708-36.264 67.708-55.504s-34.006-41.74-67.708-55.504C640.614 113.3 568.2 101.18 490.592 101.18s-150.024 12.12-203.904 34.124c-33.704 13.764-67.708 36.264-67.708 55.504s34.006 41.74 67.708 55.504c53.88 22.004 126.294 34.124 203.904 34.124s150.022-12.12 203.904-34.124z" fill="#D0EFF9" /><path d="M902.79 244.54c-26.76 35.62-69.34 58.66-117.32 58.66a146.52 146.52 0 0 1-45.36-7.16l21.48-32.84 21.52-32.9a158.004 158.004 0 0 0 59.86 19.02c5.72 0.62 11.52 0.94 17.4 0.94 14.7 0 28.92-1.98 42.42-5.72zM753.53 209.14c-5.26 6-12.6 11.94-21.14 17.54-6.08 4-12.76 7.82-19.72 11.32-5.92 3.02-12.04 5.82-18.18 8.32s-12.5 4.86-19.08 7.12c-22.76-25.84-36.56-59.74-36.56-96.86 0-54.84 30.1-102.64 74.7-127.78a158.202 158.202 0 0 0-12.52 58.72c-0.02 1.12-0.04 2.24-0.04 3.36 0 46.92 20.28 89.098 52.54 118.26z" fill="#64AB3F" /><path d="M932.09 156.58c0 33-10.92 63.46-29.3 87.96a158.642 158.642 0 0 1-42.42 5.72c-5.88 0-11.68-0.32-17.4-0.94a158.004 158.004 0 0 1-59.86-19.02l2.22-3.4c8.38-11.42 12.88-23.54 12.88-36.1 0-3.36-0.32-6.7-0.96-9.98h-0.02c-15.22-24.24-37.38-0.88-37.78-0.02 1.78 3.38 2.76 6.74 2.76 10 0 5.92-3.22 12.16-8.68 18.34-32.26-29.16-52.54-71.34-52.54-118.26 0-1.12 0.02-2.24 0.04-3.36 0.42-20.8 4.84-40.62 12.52-58.72 21.24-12 45.78-18.84 71.92-18.84 80.98 0 146.62 65.64 146.62 146.62z" fill="#85D13F" /><path d="M842.97 249.32c-16.4 10.24-35.66 16.26-56.2 16.5-8.66 0.1-17.1-0.8-25.18-2.62l21.52-32.9a158.04 158.04 0 0 0 59.86 19.02zM753.53 209.14c-5.26 6-12.6 11.94-21.14 17.54-6.08 4-12.76 7.82-19.72 11.32-22.56-20.16-36.7-49.6-36.44-82.32 0.22-25.72 9.5-49.48 24.8-68.16-0.02 1.12-0.04 2.24-0.04 3.36 0 46.92 20.28 89.098 52.54 118.26z" fill="#C3D74E" /><path d="M894.67 159.62c-1.02 37.74-21.54 70.86-51.7 89.7a158.004 158.004 0 0 1-59.86-19.02l2.22-3.4c8.38-11.42 12.88-23.54 12.88-36.1 0-3.36-0.32-6.7-0.96-9.98h-0.02c-7.74-12.32-17.26-12.34-24.8-9.28-7.08 2.88-10.92 10.24-10.28 17.86 0.04 0.46 0.06 0.94 0.06 1.4 0 5.92-3.22 12.16-8.68 18.34-32.26-29.16-52.54-71.34-52.54-118.26 0-1.12 0.02-2.24 0.04-3.36 19.34-23.6 48.34-39.08 80.82-40.12 63-2.04 114.52 49.3 112.82 112.22z" fill="#F1EB71" /><path d="M720.09 166.558h-43.4a108.688 108.688 0 0 1 0-20h34.32c2.56 6.92 5.6 13.602 9.08 20zM750.09 205.94l-25.66 25.68a199.082 199.082 0 0 1-11.76 6.38c-4.02-3.6-7.78-7.5-11.24-11.66l35.1-35.12a162.84 162.84 0 0 0 13.56 14.72z" fill="#90C537" /><path d="M894.25 166.558h-84.78l59.8 59.82c-4.26 5.14-9 9.86-14.14 14.14l-57.52-57.54c-0.1-0.72-0.22-1.44-0.36-2.16h-0.02c-7.74-12.32-17.26-12.34-24.8-9.28-7.08 2.88-10.92 10.24-10.28 17.86 0.04 0.46 0.06 0.94 0.06 1.4 0 1.1-0.12 2.24-0.34 3.36l-11.78 11.78a162.84 162.84 0 0 1-13.56-14.72l24.66-24.66h-41.1c-3.48-6.4-6.52-13.08-9.08-20h50.18l-59.64-59.64a107.34 107.34 0 0 1 14.12-14.16l59.66 59.66V47.8a111.582 111.582 0 0 1 20-0.02v84.64l59.9-59.9c5.14 4.26 9.88 8.98 14.16 14.12l-59.92 59.92h84.78a108.66 108.66 0 0 1 0 19.998z" fill="#C3D74E" /></svg>