<?xml version="1.0" standalone="no"?><!DOCTYPE svg PUBLIC "-//W3C//DTD SVG 1.1//EN" "http://www.w3.org/Graphics/SVG/1.1/DTD/svg11.dtd"><svg class="icon" width="200px" height="200.00px" viewBox="0 0 1024 1024" version="1.1" xmlns="http://www.w3.org/2000/svg"><path d="M656.36 935.92c0 40.6-74.92 73.48-167.32 73.48s-167.32-32.88-167.32-73.48c0-3.14 0.5-6.24 1.38-9.3h-0.02l5.52-25.24c-0.18 1.32-0.26 2.66-0.26 4 0 38.96 71.96 70.56 160.7 70.56 88.76 0 160.7-31.6 160.7-70.56 0-1.52-0.12-3.04-0.34-4.54l5.64 25.78h-0.06c0.88 3.06 1.38 6.16 1.38 9.3z" fill="#F03974" /><path d="M328.348 905.372a160.694 70.572 0 1 0 321.388 0 160.694 70.572 0 1 0-321.388 0Z" fill="#FFAECB" /><path d="M795.22 231.32s-2.22 31.76-9.8 72.06c-5.42 28.68-13.54 61.72-25.56 90.68-4.84 11.72-10.32 22.76-16.5 32.6-5.38 9.8-14.06 19.08-25.5 27.64-56.38 1.48-136.54-4.26-200.16-39.92-96.28-53.96-227.1-50.08-299.7-16.32-30.26-70.04-37-166.74-37-166.74 11.58 65.1 145.08 116.44 307.4 116.44 162.3 0 295.24-51.34 306.78-116.44z" fill="#FFAECB" /><path d="M717.86 454.3c-0.48 0.38-0.96 0.72-1.44 1.08a163.236 163.236 0 0 1-14.62 9.46c-17.42 12.96-45.84 39.84-59.12 84.22 0 19.04-20.62 36.12-53.18 47.7-5.76 2.48-12.08 4.74-18.86 6.76a91.5 91.5 0 0 0-27.72 13.66c-22.82 16.54-37.18 43.1-37.18 72.48v132.72c0 20.5 13.96 38.52 33.92 43.16 30.96 7.22 51.84 20.84 51.84 36.44 0 12.28-12.9 23.32-33.46 31-18.2 6.78-42.42 10.92-69 10.92-56.58 0-102.44-18.76-102.44-41.92 0-15.6 20.88-29.22 51.84-36.44 19.96-4.64 33.92-22.66 33.92-43.16v-132.72c0-39.98-26.6-74.74-64.9-86.14-3.4-1-6.66-2.08-9.8-3.2-38.84-11.48-64.12-30.16-64.12-51.26a160.172 160.172 0 0 0-16.62-37.46c-13.78-22.74-30.68-37.96-42.52-46.76-5.26-3.04-10.12-6.2-14.6-9.46-12.16-8.88-21.34-18.52-26.96-28.72-5.48-8.7-10.4-18.38-14.84-28.6 72.6-33.76 203.42-37.64 299.7 16.32 63.62 35.66 143.78 41.4 200.16 39.92z" fill="#FF78AD" /><path d="M591.494 901.978c0 12.28-12.9 23.32-33.46 31a141.776 141.776 0 0 1-3.618-0.762c-38.406-8.648-65.366-43.28-65.646-82.646-0.256-35.736-0.502-97.002 0.264-147.85 1.14-75.72 52.2-84.28 53.88-84.54-22.82 16.54-37.18 43.1-37.18 72.48v132.72c0 20.5 13.96 38.52 33.92 43.16 30.96 7.22 51.84 20.84 51.84 36.438z" fill="#F03974" /><path d="M760.002 222.128c0-19.24-34.006-41.74-67.708-55.504C638.414 144.62 566 132.5 488.39 132.5s-150.024 12.12-203.904 34.124c-33.704 13.764-67.708 36.264-67.708 55.504 0 0.984 0.11 1.98 0.284 2.98l3.716 38.914c6.064 43.192 19.13 106.266 42.538 143.474l0.562 0.894s7.082 10.578 17.124 17.896a128 128 0 0 0 11.402 7.376s59.176 50.11 75.618 105.084l1.51 7.92c7.43 9.526 48.564 29.624 118.572 29.624s111.142-20.098 118.572-29.624l1.51-7.92c16.448-54.98 52.252-88 72.13-102.79 0 0 11.434-7.148 14.898-9.676 10.036-7.312 17.116-17.888 17.116-17.888l0.562-0.894c23.326-37.08 36.416-100.234 42.51-143.478l3.772-36.55a18.66 18.66 0 0 0 0.828-5.342z" fill="#B5E6F6" /><path d="M796.002 222.128c0 69.382-137.724 125.628-307.614 125.628s-308.2-56.246-308.2-125.628S318.5 96.5 488.39 96.5s307.612 56.246 307.612 125.628z" fill="#FFD5E1" /><path d="M488.39 311.756c-77.61 0-150.024-12.12-203.904-34.124-33.704-13.764-67.708-36.264-67.708-55.504s34.006-41.74 67.708-55.504C338.366 144.62 410.78 132.5 488.39 132.5s150.024 12.12 203.904 34.124c33.704 13.764 67.708 36.264 67.708 55.504s-34.006 41.74-67.708 55.504c-53.88 22.004-126.296 34.124-203.904 34.124z" fill="#FFFFFF" /><path d="M751.76 287.058c-2.1 11.9-4.62 24.54-7.68 37.24a145.574 145.574 0 0 1-30.9-16.42c14.54-6.36 27.5-13.338 38.58-20.82z" fill="#64AB3F" /><path d="M735.78 254.16c-12.3 8.9-27.94 17.1-43.48 23.48-53.88 22-126.3 34.12-203.9 34.12-77.62 0-150.04-12.12-203.92-34.12-14.66-6-29.34-13.62-41.28-21.94 48.1-26.62 141-44.66 247.72-44.66 104.638 0 195.98 17.34 244.86 43.12z" fill="#DDF4FB" /><path d="M906.518 284.14c-26.76 30.58-66.08 49.9-109.94 49.9-5.92 0-11.76-0.36-17.48-1.06 2.44-10.14 4.52-20.1 6.32-29.6 3.16-16.8 5.38-32.1 6.92-44.24a158.49 158.49 0 0 0 57.48 23.94 160.142 160.142 0 0 0 31.34 3.08 158.38 158.38 0 0 0 25.36-2.02zM758.72 228.8c-6.48 17.58-36.56 36.64-66.42 48.84-2.74 1.12-5.52 2.2-8.36 3.28-20.86-25.24-33.38-57.6-33.38-92.9 0-24.58 6.06-47.74 16.82-68.06 15.62-29.64 41.16-53.26 72.2-66.44a158.08 158.08 0 0 0-16.56 53.22 161.66 161.66 0 0 0-1.24 20.04c0 38.8 13.88 74.38 36.94 102.02z" fill="#64AB3F" /><path d="M906.518 284.14c-8.26 1.34-16.72 2.02-25.36 2.02-10.72 0-21.22-1.06-31.34-3.08a158.49 158.49 0 0 1-57.48-23.94c2.12-17.02 2.88-27.82 2.88-27.82h-0.04c0.08-0.44 0.16-0.88 0.22-1.32 0.82-5.34-1.42-10.78-5.9-13.78-5.84-3.92-11.4-4.14-16.06-2.86-6.86 1.88-12.22 7.32-14.26 14.1-0.14 0.44-0.28 0.9-0.46 1.34-23.06-27.64-36.94-63.22-36.94-102.02 0-6.78 0.42-13.48 1.24-20.04a158.08 158.08 0 0 1 16.56-53.22c19.04-8.08 40.16-12.24 62.32-11.44 76.76 2.72 138.84 65.58 140.68 142.36 0.922 38.2-12.858 73.18-36.06 99.7z" fill="#85D13F" /><path d="M849.82 283.08c-15.88 9.02-34.24 14.16-53.82 14.16-3.16 0-6.3-0.14-9.38-0.4 2.54-14.22 4.4-27.16 5.72-37.7a158.49 158.49 0 0 0 57.48 23.94zM758.72 228.8c-4.52 12.3-20.64 25.34-40.16 36.24-19.66-19.74-31.8-46.96-31.8-77.04 0-32.26 14-61.26 36.26-81.26a161.66 161.66 0 0 0-1.24 20.04c0 38.8 13.88 74.38 36.94 102.02z" fill="#C3D74E" /><path d="M905.24 188c0 40.78-22.32 76.32-55.42 95.08a158.49 158.49 0 0 1-57.48-23.94c2.12-17.02 2.88-27.82 2.88-27.82h-0.04c0.08-0.44 0.16-0.88 0.22-1.32 0.82-5.34-1.42-10.78-5.9-13.78-5.84-3.92-11.4-4.14-16.06-2.86-6.86 1.88-12.22 7.32-14.26 14.1-0.14 0.44-0.28 0.88-0.46 1.34-23.06-27.64-36.94-63.22-36.94-102.02 0-6.78 0.42-13.48 1.24-20.04 19.34-17.38 44.92-27.96 72.98-27.96 60.34 0 109.24 48.9 109.24 109.22z" fill="#F1EB71" /><path d="M299.54 287.058m-17.264 0a17.264 17.264 0 1 0 34.528 0 17.264 17.264 0 1 0-34.528 0Z" fill="#EEF9FD" /><path d="M405.212 307.036m-17.264 0a17.264 17.264 0 1 0 34.528 0 17.264 17.264 0 1 0-34.528 0Z" fill="#FFFFFF" /><path d="M336.026 324.3m-17.264 0a17.264 17.264 0 1 0 34.528 0 17.264 17.264 0 1 0-34.528 0Z" fill="#FFFFFF" /><path d="M650.77 285.702m-17.264 0a17.264 17.264 0 1 0 34.528 0 17.264 17.264 0 1 0-34.528 0Z" fill="#FFFFFF" /><path d="M690.606 316.17m-17.264 0a17.264 17.264 0 1 0 34.528 0 17.264 17.264 0 1 0-34.528 0Z" fill="#FFFFFF" /><path d="M237.802 287.058m-17.264 0a17.264 17.264 0 1 0 34.528 0 17.264 17.264 0 1 0-34.528 0Z" fill="#FFFFFF" /><path d="M455.472 341.562m-17.264 0a17.264 17.264 0 1 0 34.528 0 17.264 17.264 0 1 0-34.528 0Z" fill="#FFFFFF" /><path d="M660.44 452.96c-18.7 18.22-40.46 46.34-52.26 85.78l-1.5 7.92c-7.44 9.54-48.56 29.62-118.58 29.62-70 0-111.14-20.08-118.56-29.62l-1.52-7.92c-16.44-54.96-75.62-105.08-75.62-105.08a123.242 123.242 0 0 1-11.4-7.38c-10.04-7.32-17.12-17.88-17.12-17.88l-0.56-0.9c-4.12-6.56-7.94-13.94-11.42-21.86 74.88-21.3 183.08-17.62 265.8 28.74 44.1 24.72 96.18 35.06 142.74 38.58z" fill="#8AD8F0" /><path d="M387.948 515.786a102.97 33.844 0 1 0 205.94 0 102.97 33.844 0 1 0-205.94 0Z" fill="#42C0E7" /><path d="M751.86 219.978c2.18 3.02 4.48 5.96 6.86 8.82-4.52 12.3-20.64 25.34-40.16 36.24-1.96-1.96-3.84-4-5.64-6.12zM805.22 266.92v29.92c-3.04 0.28-6.12 0.4-9.22 0.4-3.16 0-6.3-0.14-9.38-0.4 2.54-14.22 4.4-27.16 5.72-37.7 4.16 2.8 8.46 5.4 12.88 7.78zM739.98 200.76h-52.48a107.44 107.44 0 0 1-0.74-12.76c0-2.44 0.08-4.84 0.24-7.24h44.16a156.486 156.486 0 0 0 8.82 20zM721.78 126.78c0 1.6 0.02 3.18 0.08 4.76l-11.42-11.42a109.1 109.1 0 0 1 12.58-13.38 161.66 161.66 0 0 0-1.24 20.04z" fill="#90C537" /><path d="M904.48 200.76h-85.12l59 59a108.62 108.62 0 0 1-14.46 13.82l-58.68-58.68v52.02a152.894 152.894 0 0 1-12.88-7.78c2.12-17.02 2.88-27.82 2.88-27.82h-0.04c0.08-0.44 0.16-0.88 0.22-1.32 0.82-5.34-1.42-10.78-5.9-13.78-5.84-3.92-11.4-4.14-16.06-2.86-6.86 1.88-12.22 7.32-14.26 14.1-0.14 0.44-0.28 0.88-0.46 1.34-2.38-2.86-4.68-5.8-6.86-8.82l19.22-19.22h-31.1a156.766 156.766 0 0 1-8.82-20h39.92l-49.22-49.22c-0.06-1.58-0.08-3.16-0.08-4.76 0-6.78 0.42-13.48 1.24-20.04 0.4-0.36 0.82-0.72 1.24-1.08l60.96 60.96V79.3c3.56-0.34 7.14-0.52 10.78-0.52 3.1 0 6.18 0.12 9.22 0.4v87.44l61.68-61.68c5.08 4.3 9.76 9.1 13.98 14.3l-61.52 61.52h85.64a108.514 108.514 0 0 1-0.52 20z" fill="#C3D74E" /><path d="M721.782 268.438m-17.264 0a17.264 17.264 0 1 0 34.528 0 17.264 17.264 0 1 0-34.528 0Z" fill="#FFFFFF" /></svg>