<?xml version="1.0" standalone="no"?><!DOCTYPE svg PUBLIC "-//W3C//DTD SVG 1.1//EN" "http://www.w3.org/Graphics/SVG/1.1/DTD/svg11.dtd"><svg class="icon" width="200px" height="200.00px" viewBox="0 0 1024 1024" version="1.1" xmlns="http://www.w3.org/2000/svg"><path d="M775.12 237.11l-31.36 207.74c-20.04 18.72-42 37.04-42 37.04-54.96 30.78-150.2 34.4-196.4 2.42-112.8-78.08-194.12-82.98-238.82-75.06-13.6 3.56-24.9 12.36-33.14 20.78l-29.86-187.5c18.54 69.42 139.14 123.04 285.18 123.04 149.78 0 272.84-56.42 286.4-128.46z" fill="#FFB4D3" /><path d="M743.76 444.854l-72.54 480.64c0 42.22-80.34 76.44-179.46 76.44-99.1 0-179.44-34.22-179.44-76.44l-78.92-495.46c8.24-8.42 19.54-17.22 33.14-20.78 44.7-7.92 126.02-3.02 238.82 75.06 46.2 31.98 141.44 28.36 196.4-2.42 0 0 21.96-18.32 42-37.04z" fill="#FF78AD" /><path d="M728.92 301.85l-77.68 514.66c-0.02 1.4-0.24 2.78-0.62 4.16-7.28 25.74-75.84 55.86-159.32 55.86-82.82 0-150.94-29.8-159.14-55.24v-0.02c-0.54-1.68-0.82-3.38-0.82-5.1v-0.04l-81.8-513.52c51.6 37.96 139.46 62.96 239.18 62.96 100.38 0 188.74-25.34 240.2-63.72z" fill="#FFF3CE" /><path d="M701.76 481.89c-54.96 30.78-150.2 34.42-196.4 2.44-112.8-78.1-194.12-83-238.82-75.08 32.58-24.34 143.48-55.98 243.52 19.9 70.88 53.76 191.7 52.74 191.7 52.74z" fill="#71260D" /><path d="M488.708 331.042c-69.312 0-134.028-13.076-182.224-36.818-41.16-20.276-64.768-45.922-64.768-70.364s23.608-50.088 64.768-70.364c48.196-23.742 112.912-36.818 182.224-36.818s134.028 13.076 182.226 36.818c41.16 20.276 64.768 45.922 64.768 70.364s-23.608 50.088-64.768 70.364c-48.198 23.742-112.914 36.818-182.226 36.818z" fill="#FFFFFF" /><path d="M701.754 481.894l-50.51 334.62c-0.02 1.4-0.24 2.78-0.62 4.16-7.28 25.74-75.84 55.84-159.32 55.84-82.82 0-150.94-29.78-159.14-55.22v-0.02c-0.54-1.68-0.82-3.38-0.82-5.1v-0.04l-64.802-406.88c44.7-7.92 126.026-3.018 238.816 75.066 46.198 31.982 141.436 28.354 196.396-2.426z" fill="#9A4C2C" /><path d="M546.28 362.714l-19.1 132.86c-8.06-3.08-15.42-6.82-21.82-11.26-5.22-3.62-10.38-7.08-15.48-10.38l15.62-108.62c13.88-0.4 27.5-1.26 40.78-2.6z" fill="#5392DB" /><path d="M580.46 124.774l-29.1 202.58-5.08 35.36c-13.28 1.34-26.9 2.2-40.78 2.6l4.98-34.72 30.36-211.38c6.72 0.66 13.38 1.44 19.92 2.36 1.92 0.26 3.84 0.54 5.74 0.84 3.08 0.46 6.12 0.96 9.14 1.5 1.6 0.28 3.22 0.56 4.82 0.86z" fill="#87D2ED" /><path d="M488.718 82.156c-158.878 0-287.66 63.428-287.66 141.704 0 78.256 128.784 141.704 287.66 141.704 158.858 0 287.64-63.448 287.64-141.704 0.002-78.278-128.782-141.704-287.64-141.704z m182.214 212.068c-48.182 23.734-112.902 36.812-182.212 36.812s-134.03-13.08-182.232-36.812c-41.166-20.274-64.76-45.936-64.76-70.364 0-24.448 23.594-50.09 64.76-70.364 48.202-23.754 112.922-36.832 182.232-36.832s134.03 13.08 182.212 36.832c41.166 20.274 64.778 45.916 64.778 70.364 0 24.428-23.614 50.088-64.778 70.364z" fill="#FFE8F1" /><path d="M783.12 40.174c0 11.04-8.96 20-20 20H628.8c-22.26 0-41.46 16.62-44.62 38.68l-3.72 25.92c-12.82-2.38-26.06-4.24-39.62-5.56l3.74-26.06c5.98-41.6 42.2-72.98 84.22-72.98h134.32c11.04 0 20 8.96 20 20z" fill="#87D2ED" /><path d="M681.14 618.45l-29.9 198.06c-0.02 1.4-0.24 2.78-0.62 4.16-7.28 25.74-75.84 55.84-159.32 55.84-82.82 0-150.94-29.78-159.14-55.22v-0.02c-0.54-1.68-0.82-3.38-0.82-5.1v-0.04l-17.58-110.36c63.94 13.88 144.3-20.08 219.54-64.26 62.94-36.96 118.98-30.62 147.84-23.06z" fill="#FFF0C0" /><path d="M527.18 495.57l-23.34 162.52c-14.46 7.76-29 14.98-43.48 21.38l29.52-205.54c5.1 3.3 10.26 6.76 15.48 10.38 6.4 4.44 13.76 8.18 21.82 11.26z" fill="#512000" /><path d="M607.32 506.394c-36.5 1.76-72.64-4.24-97.26-19.06l0.72-1.28a12.838 12.838 0 0 1 11.46-6.56l61.94 1.26a12.9 12.9 0 0 1 10.56 5.94z" fill="#FFFFFF" /><path d="M630.098 545.394l-65.82 0.9c-6.2 0.1-11.88 3.48-14.92 8.88l-30.76 54.82a13.008 13.008 0 0 1-4.96-5.02l-31-56.38a12.866 12.866 0 0 1 0.06-12.5l27.36-48.76c24.62 14.82 60.76 20.82 97.26 19.06l20.76 32.5a12.7 12.7 0 0 1 2.02 6.5z" fill="#EBDEBB" /><path d="M628.478 552.086l-28.08 50.052a12.852 12.852 0 0 1-10.632 6.548l-64.302 2.948a12.934 12.934 0 0 1-6.856-1.644l30.758-54.826a17.37 17.37 0 0 1 14.914-8.864l65.826-0.904a12.79 12.79 0 0 1-1.628 6.69z" fill="#CB8F62" /><path d="M633 795.824c0 0.106 0 0.23-0.018 0.336a14.55 14.55 0 0 1-0.55 3.684c-6.448 22.8-67.178 49.468-141.126 49.468-73.362 0-133.702-26.386-140.966-48.92v-0.018a14.7 14.7 0 0 1-0.726-4.518v-0.036c0-24.678 63.44-49.964 141.692-49.964 78.254 0.004 141.694 25.29 141.694 49.968z" fill="#EBCBA2" /><path d="M503.84 658.09l-12.38 86.12c-1.42 9.98-9.98 17.16-19.76 17.16-0.96 0-1.92-0.06-2.88-0.2-10.94-1.58-18.52-11.72-16.94-22.64l8.48-59.06c14.48-6.4 29.02-13.62 43.48-21.38zM457.52 680.73c-30.88 13.46-61.44 23.22-90.24 26.74l39.22-34.46a12.79 12.79 0 0 1 11.8-2.76z" fill="#CB8F62" /><path d="M431.06 751.39l14.32 61.22c-2.28 0.52-4.74 0.44-7.06-0.34l-60.92-20.68a12.808 12.808 0 0 1-8.4-9.24l-13.08-55.9c-1.08-4.6 0.48-9.44 4.04-12.56l7.32-6.42c28.8-3.52 59.36-13.28 90.24-26.74l20.62 5.5c2.28 0.62 4.3 1.82 5.88 3.44l-47.94 45.12a17.284 17.284 0 0 0-5.02 16.6z" fill="#EBDEBB" /><path d="M487.336 695.712l13.074 55.882a12.856 12.856 0 0 1-3.424 12.01l-45.446 45.586a12.928 12.928 0 0 1-6.166 3.416l-14.322-61.212a17.368 17.368 0 0 1 5.018-16.608l47.95-45.106a12.774 12.774 0 0 1 3.316 6.032zM337.168 581.522a10.002 10.002 0 0 1-9.856-8.378l-1.818-11.052a10 10 0 0 1 8.244-11.49c5.442-0.91 10.594 2.794 11.49 8.244l1.818 11.052a10 10 0 0 1-9.878 11.624zM336.604 469.456l2.534 45.336a11.204 11.204 0 0 1-21.986 3.616l-12.124-43.758a16.094 16.094 0 0 1 31.018-8.592c0.304 1.104 0.488 2.298 0.558 3.398z" fill="#CB8F62" /><path d="M546.26 362.714l-3.5 24.44c-13.38 1.2-27 1.96-40.76 2.26l3.44-24.1c13.9-0.38 27.52-1.26 40.82-2.6z" fill="#2273D1" /><path d="M650.62 820.67l-10.14 89.24h-0.44c-5.54 34.26-69.98 57.72-148.74 57.72-78.74 0-143.18-23.46-148.74-57.72h-0.42l-10.38-90.04c0.12 0.46 0.26 0.94 0.4 1.4v0.02c8.2 25.44 76.32 55.22 159.14 55.22 83.48 0 152.04-30.1 159.32-55.84z" fill="#F03974" /></svg>