<?xml version="1.0" standalone="no"?><!DOCTYPE svg PUBLIC "-//W3C//DTD SVG 1.1//EN" "http://www.w3.org/Graphics/SVG/1.1/DTD/svg11.dtd"><svg class="icon" width="200px" height="200.00px" viewBox="0 0 1024 1024" version="1.1" xmlns="http://www.w3.org/2000/svg"><path d="M741.324 513.61c-13.34 23.62-31.26 45.66-31.26 45.66-34.98 39.4-138.5 100.6-218.06 9.9-36.78-46.44-106.36-64.98-140.86-74.16-11.58-4.84-23.18-6.44-33.46-6.42 5.24-22.8 13.3-44.92 24.22-65.78 7.4-14.1 16.2-28.02 26.58-40.06 42.84-49.72 40.3-96.68 39.12-107.04 22.92 17.18 67.88 28.84 119.62 28.84 51.78 0 96.78-11.68 119.68-28.88-1.16 9.94-4.02 57.22 39.12 107.26 10.36 12.04 19.18 25.94 26.56 40.04 14.86 28.36 24.42 59.08 28.74 90.64z" fill="#D0EFF9" /><path d="M744.064 553.51v369.44c0 49.28-97.08 89.22-216.84 89.22s-216.84-39.94-216.84-89.22c0-0.54 0.02-1.06 0.04-1.58v-368.02c0-21.86 2.4-43.6 7.26-64.76 10.28-0.02 21.88 1.58 33.46 6.42 34.5 9.18 104.08 27.72 140.86 74.16 79.56 90.7 183.08 29.5 218.06-9.9 0 0 17.92-22.04 31.26-45.66 1.84 13.18 2.74 26.52 2.74 39.9z" fill="#87D2ED" /><path d="M710.064 553.51v369.44c0 4.62-10.38 18.44-42.46 31.64-36.4 15-87.58 23.58-140.38 23.58-52.82 0-103.98-8.58-140.4-23.58-31.66-13.02-42.18-26.66-42.44-31.46l0.04-1.06v-368.72c0-40.62 9.56-80.3 27.6-114.78 6.98-13.28 14.44-24.6 22.22-33.62 30.86-35.82 42.26-71.36 46.04-97.34l1.06-15.4c23.4 7.72 53.3 12.34 85.88 12.34 33.08 0 63.38-4.76 86.94-12.7l0.04 15.88c3.78 25.98 15.16 61.54 46.06 97.4 7.76 9 15.24 20.32 22.2 33.62 18.06 34.46 27.6 74.16 27.6 114.76z" fill="#FFEFBB" /><path d="M391.436 172.684a135.786 54.74 0 1 0 271.572 0 135.786 54.74 0 1 0-271.572 0Z" fill="#D0EFF9" /><path d="M527.222 208.512c-29.426 0-57.96-5.468-78.29-15.002-19.706-9.242-24.14-13.772-24.14-20.826s4.434-11.584 24.14-20.826c20.33-9.534 48.864-15.002 78.29-15.002s57.96 5.468 78.29 15.002c19.706 9.242 24.14 14.442 24.14 20.826s-4.434 11.584-24.14 20.826c-20.33 9.534-48.864 15.002-78.29 15.002z" fill="#FFFFFF" /><path d="M663.004 172.69v77.12c0 30.22-60.78 54.74-135.78 54.74s-135.78-24.52-135.78-54.74v-77.12c0 30.22 60.78 54.74 135.78 54.74s135.78-24.52 135.78-54.74z" fill="#60C3E8" /><path d="M663.004 172.69v77.12c0 30.22-60.78 54.74-135.78 54.74s-135.78-24.52-135.78-54.74v-77.12c0 30.22 60.78 54.74 135.78 54.74s135.78-24.52 135.78-54.74zM710.064 559.27c-34.98 39.4-138.5 100.6-218.06 9.9-36.78-46.44-106.36-64.98-140.86-74.16 0 0 114.14-32.86 168.12 18.46 59.98 57.04 101.9 74.82 190.8 45.8z" fill="#60C3E8" /><path d="M710.064 559.27v363.68c-350.58-25.14-358.92-427.94-358.92-427.94 34.5 9.18 104.08 27.72 140.86 74.16 79.56 90.7 183.08 29.5 218.06-9.9z" fill="#FFFAEC" /><path d="M710.064 922.95c0 4.62-10.38 18.44-42.46 31.64-36.4 15-87.58 23.58-140.38 23.58-52.82 0-103.98-8.58-140.4-23.58-31.66-13.02-42.18-26.66-42.44-31.46l0.04-1.06v-368.72c0-19.84 2.28-39.44 6.72-58.34 0 0 8.34 402.8 358.92 427.94z" fill="#FFF2C8" /><path d="M672.024 891.73c0 8.74-4.58 17.04-12.84 24.54-70.86-13.74-125.42-44.44-167.44-83.34 10.28-0.92 20.98-1.4 31.94-1.4 81.92 0 148.34 26.96 148.34 60.2z" fill="#FFE9A4" /><path d="M659.184 916.27c-23.14 21.02-75.1 35.66-135.5 35.66-81.94 0-148.34-26.94-148.34-60.2 0-28.8 49.82-52.88 116.4-58.8 42.02 38.9 96.58 69.6 167.44 83.34z" fill="#FFE183" /><path d="M559.924 302.95l-21.82 302.08c-12.98-6.14-25.82-15.06-38.14-27.38l19.74-273.2c2.48 0.08 5 0.1 7.52 0.1 11.28 0 22.22-0.56 32.7-1.6z" fill="#FF78AD" /><path d="M538.104 605.03l-19.56 270.78c-0.76 10.54-9.54 18.58-19.94 18.58-0.48 0-0.96-0.02-1.46-0.06-11-0.8-19.3-10.38-18.5-21.4l21.32-295.28c12.32 12.32 25.16 21.24 38.14 27.38z" fill="#A8E2F4" /><path d="M579.184 36.27l-6.14 84.88-1.44 20-4.62 63.94c-12.58 2.24-26.08 3.42-39.76 3.42h-0.6l5.18-71.62 1.36-18.88 6.12-84.62c0.8-11.02 10.32-19.3 21.38-18.52 11.02 0.8 19.32 10.38 18.52 21.4z" fill="#FF78AD" /><path d="M570.744 153.25l-3.76 51.84c-12.58 2.24-26.08 3.42-39.76 3.42h-0.58l1.9-26.3c17.22-7.68 31.14-18.1 42.2-28.96zM553.604 390.31l-7.44 103.14c-15.52 9-29.86 15.48-41.56 20.02l7.04-97.48c16.8-6.56 30.66-15.74 41.96-25.68z" fill="#F03974" /><path d="M536.544 626.61l-7.7 106.66c-15.12 9.5-29.44 16.62-41.7 21.9l7.06-97.74c17.5-8.32 31.44-19.44 42.34-30.82z" fill="#82D5EF" /><path d="M527.224 304.55c-2.5 0-4.98-0.02-7.44-0.1l-1.74 23.96c3.04 0.1 6.1 0.14 9.18 0.14 10.5 0 20.86-0.46 30.92-1.34l1.76-24.26c-10.46 1.04-21.42 1.6-32.68 1.6z" fill="#FF4374" /><path d="M663.004 172.69v77.12c0 9.36-5.82 18.16-16.1 25.86-22.9 17.2-67.9 28.88-119.68 28.88-51.74 0-96.7-11.66-119.62-28.84-10.3-7.7-16.16-16.54-16.16-25.9v-77.12c0 30.22 60.78 54.74 135.78 54.74s135.78-24.52 135.78-54.74z" fill="#60C3E8" /><path d="M666.058 734.564l2.492-41.196a10.53 10.53 0 0 1 21.016 0l2.492 41.196a13.024 13.024 0 1 1-26 0zM679.056 664.986a10 10 0 0 1-10-10v-15.976a10 10 0 1 1 20 0v15.976a10 10 0 0 1-10 10z" fill="#FFDF7A" /></svg>