<?xml version="1.0" standalone="no"?><!DOCTYPE svg PUBLIC "-//W3C//DTD SVG 1.1//EN" "http://www.w3.org/Graphics/SVG/1.1/DTD/svg11.dtd"><svg class="icon" width="200px" height="200.00px" viewBox="0 0 1024 1024" version="1.1" xmlns="http://www.w3.org/2000/svg"><path d="M646.143942 971.754022h-57.657975c0.112-1.379999 0.186-2.771999 0.186-4.179998 0-27.699988-22.45399-50.155978-50.155978-50.155978s-50.155978 22.45399-50.155979 50.155978c0 1.407999 0.074 2.799999 0.186 4.179998h-57.653975c-14.367994 0-26.121989 11.755995-26.121989 26.121989 0 14.367994 11.755995 26.121989 26.121989 26.121989H646.139942c14.367994 0 26.121989-11.755995 26.121989-26.121989 0.006-14.365994-11.749995-26.121989-26.117989-26.121989z" fill="#B9D8F4" /><path d="M588.487967 971.754022c0.112-1.379999 0.186-2.771999 0.186-4.179998 0-27.699988-22.45399-50.155978-50.155978-50.155978s-50.155978 22.45399-50.155979 50.155978c0 1.407999 0.074 2.799999 0.186 4.179998h99.939957z" fill="#96C8EF" /><path d="M690.735923 496.658227c-18.781992-89.091962-12.617995-176.915924 18.319992-261.031888 4.577998-12.447995 2.681999-26.299989-5.081997-37.127984-7.763997-10.825995-20.423991-17.269993-33.929986-17.269993H402.816047c-13.503994 0-26.163989 6.443997-33.929986 17.269993-7.763997 10.827995-9.661996 24.677989-5.081997 37.127984 30.937987 84.115964 37.101984 171.939926 18.319992 261.031888-14.341994 68.029971-70.53397 139.56994-70.53397 224.429903 0 121.463948 100.863957 220.277905 224.843904 220.277906s224.841903-98.813958 224.841903-220.277906c-0.004-84.859964-56.197976-156.401933-70.53997-224.429903z" fill="#D1E7F8" /><path d="M447.424028 721.08813c0-84.859964 56.191976-156.401933 70.533969-224.429903 18.781992-89.091962 12.617995-176.915924-18.319992-261.031888-4.577998-12.447995-2.681999-26.299989 5.081998-37.127984 7.763997-10.825995 20.423991-17.269993 33.929986-17.269993h-135.835942c-13.503994 0-26.165989 6.443997-33.929986 17.269993-7.763997 10.827995-9.661996 24.677989-5.081997 37.127984 30.937987 84.115964 37.101984 171.939926 18.319992 261.031888-14.341994 68.029971-70.53397 139.56994-70.53397 224.429903 0 121.463948 100.863957 220.277905 224.843904 220.277906a228.359902 228.359902 0 0 0 67.91797-10.279996c-90.885961-28.275988-156.925933-111.719952-156.925932-209.99791z" fill="#B9D8F4" /><path d="M474.094016 405.996266a15.675993 15.675993 0 0 1-15.459993-13.213995L414.142042 113.132391a15.673993 15.673993 0 0 1 13.017994-17.939992 15.665993 15.665993 0 0 1 17.941993 13.017995l44.491981 279.649879a15.673993 15.673993 0 0 1-15.499994 18.135993z" fill="#FFDAAA" /><path d="M458.632023 392.784271a15.675993 15.675993 0 0 0 17.941992 13.017995 15.675993 15.675993 0 0 0 13.017995-17.939993L456.718024 181.230362h-31.741987l33.655986 211.553909z" fill="#FFC477" /><path d="M592.497965 92.7984L425.242037 2.510439a20.899991 20.899991 0 0 0-25.073989 3.989998L268.480105 144.988378a20.891991 20.891991 0 0 0-3.349999 24.125989 20.893991 20.893991 0 0 0 21.779991 10.909996l299.851871-47.70598a0.356 0.356 0 0 0 0.04-0.006c11.399995-1.813999 19.167992-12.523995 17.355992-23.92199a20.867991 20.867991 0 0 0-11.659995-15.591993z" fill="#FF3F62" /><path d="M352.742068 169.550367L412.052043 0.25644l108.919953 142.527939z" fill="#FF0C38" /><path d="M550.363984 406.978265c-13.665994-5.295998-20.513991-20.807991-15.217994-34.471985L668.793933 27.600428c5.295998-13.665994 20.807991-20.513991 34.471985-15.217993 13.665994 5.295998 20.513991 20.807991 15.217993 34.471985L584.833969 391.760272c-5.295998 13.665994-20.807991 20.513991-34.469985 15.217993z" fill="#3E3D42" /><path d="M550.363984 406.978265c13.665994 5.295998 29.177987-1.551999 34.471985-15.217993l81.579965-210.53191h-57.149976l-74.117968 191.279918c-5.297998 13.661994 1.549999 29.175987 15.215994 34.469985z" fill="#1D1D1F" /><path d="M672.407931 597.040183c-12.109995-27.281988-24.631989-55.491976-30.713987-84.339963-10.793995-51.191978-13.429994-102.535956-7.829996-152.601935a19.399992 19.399992 0 0 0-19.279992-21.55199h-156.307933a19.395992 19.395992 0 0 0-19.279992 21.55199c5.593998 50.055978 2.959999 101.401956-7.833996 152.603935-6.081997 28.845988-18.603992 57.055975-30.715987 84.341963-17.443993 39.295983-33.919985 76.413967-33.919985 115.963951 0 91.347961 76.215967 165.661929 169.899927 165.661928s169.899927-74.315968 169.899927-165.661928c0.002-39.551983-16.473993-76.667967-33.917986-115.967951z" fill="#FF9811" /><path d="M513.785999 877.156063c-40.957982-39.915983-66.361971-95.131959-66.361971-156.067933 0-84.859964 56.191976-156.401933 70.533969-224.429903 11.243995-53.333977 13.537994-106.209954 6.937997-158.109932h-66.619971a19.395992 19.395992 0 0 0-19.279992 21.55199c5.593998 50.055978 2.959999 101.401956-7.833996 152.603935-6.081997 28.845988-18.603992 57.055975-30.715987 84.341963-17.443993 39.295983-33.919985 76.413967-33.919985 115.965951 0.004 83.853964 64.249972 153.309934 147.259936 164.143929z" fill="#EE8700" /><path d="M535.88399 395.52227l-28.899988-28.897988c-15.441993-15.441993-15.441993-40.711983 0-56.151975l28.899988-28.899988c15.441993-15.441993 40.711983-15.441993 56.151976 0l28.899987 28.899988c15.441993 15.441993 15.441993 40.711983 0 56.151975l-28.899987 28.899988c-15.439993 15.441993-40.709983 15.441993-56.151976-0.002z" fill="#DDFFFB" /><path d="M592.037966 395.52227l28.899987-28.899988c5.271998-5.271998 8.701996-11.699995 10.371996-18.483992a19.203992 19.203992 0 0 0-2.267999-3.125998 19.391992 19.391992 0 0 0-14.457994-6.465997H495.400007c0 10.177996 3.859998 20.353991 11.581995 28.075987l28.899988 28.899988c15.443993 15.443993 40.713983 15.443993 56.155976 0z" fill="#FFC477" /><path d="M479.460014 395.52227l-28.899988-28.897988c-15.441993-15.441993-15.441993-40.711983 0-56.151975l28.899988-28.899988c15.441993-15.441993 40.711983-15.441993 56.151976 0l28.899987 28.899988c15.441993 15.441993 15.441993 40.711983 0 56.151975l-28.899987 28.899988c-15.439993 15.441993-40.709983 15.441993-56.151976-0.002z" fill="#FFFFFF" /><path d="M576.093972 338.546295h-117.815949a19.395992 19.395992 0 0 0-14.457994 6.465997 19.439992 19.439992 0 0 0-3.193998 4.913998 39.365983 39.365983 0 0 0 9.931995 16.697992l28.899988 28.899988c15.441993 15.441993 40.711983 15.441993 56.151976 0l28.899987-28.899988c7.723997-7.721997 11.583995-17.897992 11.583995-28.077987z" fill="#FFDAAA" /><path d="M400.450048 597.044183c-17.443993 39.295983-33.919985 76.413967-33.919985 115.965951 0 91.347961 76.215967 165.661929 169.899927 165.661928s169.899927-74.315968 169.899926-165.661928c0-39.553983-16.475993-76.667967-33.921985-115.969951-4.287998-9.659996-8.619996-19.435992-12.707994-29.313987H413.160042c-4.087998 9.879996-8.421996 19.657992-12.709994 29.317987z" fill="#EE8700" /><path d="M413.160042 567.728196c-4.087998 9.877996-8.421996 19.655992-12.707994 29.315987-17.443993 39.295983-33.919985 76.413967-33.919985 115.965951 0 83.857964 64.245972 153.313934 147.255936 164.147929-40.957982-39.915983-66.361971-95.131959-66.361971-156.067933 0-55.977976 24.447989-106.159954 45.20998-153.359934H413.160042v-0.002z" fill="#CC7400" /><path d="M366.884062 723.200129c5.419998 86.615963 79.373966 155.471933 169.547928 155.471933s164.125929-68.85597 169.547927-155.471933H366.884062z" fill="#CC7400" /><path d="M513.797999 877.168063c-40.489983-39.453983-65.749972-93.86596-66.329971-153.969934h-80.583966c4.957998 79.243966 67.291971 143.583938 146.913937 153.969934z" fill="#AA6100" /></svg>