<?xml version="1.0" standalone="no"?><!DOCTYPE svg PUBLIC "-//W3C//DTD SVG 1.1//EN" "http://www.w3.org/Graphics/SVG/1.1/DTD/svg11.dtd"><svg class="icon" width="200px" height="200.00px" viewBox="0 0 1024 1024" version="1.1" xmlns="http://www.w3.org/2000/svg"><path d="M232.388 885.05a271.506 103.388 0 1 0 543.012 0 271.506 103.388 0 1 0-543.012 0Z" fill="#F03974" /><path d="M138.634 789.218a365.26 165.016 0 1 0 730.52 0 365.26 165.016 0 1 0-730.52 0Z" fill="#FFAECB" /><path d="M869.158 789.216c-0.04 10.18-1.93 20.102-6.32 30.716-4.444 10.372-9.876 19.122-18.502 29.194-22.94 5.37-52.452 10.396-80.184 13.328-27.73 2.932-57.456 4.522-88.376 4.522-75.74 0-144.304-9.55-193.934-24.99s-80.326-36.77-80.326-60.33 30.696-44.89 80.326-60.33 118.196-24.99 193.934-24.99c26.15 0 51.446 1.14 75.402 3.268 23.958 2.128 51.978 6.096 72.778 10.046 9.338 7.594 16.89 15.346 22.702 22.422a125.622 125.622 0 0 1 6.574 8.806 123.708 123.708 0 0 1 3.694 5.84c6.03 10.15 9.368 19.962 10.978 28.742a76.5 76.5 0 0 1 1.254 13.756z" fill="#FF78AD" /><path d="M331.352 758.576a172.548 71.982 0 1 0 345.096 0 172.548 71.982 0 1 0-345.096 0Z" fill="#2273D1" /><path d="M931.49 561.86c-10.18 17.71-25.804 37.136-49.64 52.88s-55.88 27.81-98.9 30.8a452.436 452.436 0 0 0 13.48-23.908 467.366 467.366 0 0 0 11.62-23.772c19.61-4.06 36.566-10.94 50.8-20.604 14.234-9.666 25.75-22.116 34.48-37.316 2.42-4.2 2.82-8.146 2.414-11.388s-1.614-5.782-2.414-7.172a19.248 19.248 0 0 0-4.968-5.624c-2.582-1.95-6.162-3.556-10.952-3.556h-39.5a529.592 529.592 0 0 0 9.16-44h30.34c11.26 0 21.94 2.91 31.216 8.258 9.274 5.348 17.144 13.132 22.784 22.882 5.65 9.77 8.486 20.494 8.5 31.23 0.014 10.734-2.79 21.48-8.42 31.29z" fill="#5BC1E7" /><path d="M735.35 710.1h0.04s-4.89 6.714-13.174 15.592-19.964 19.918-33.546 28.568v-0.02c-20.19 13.74-47.204 25.114-78.762 33.054s-67.658 12.446-106.018 12.446c-19.17 0-37.78-1.124-55.542-3.242s-34.678-5.228-50.458-9.198c-15.77-3.97-30.41-8.794-43.63-14.344s-25.02-11.824-35.11-18.694c-6.8-4.33-13.12-9.256-18.776-14.206a207.696 207.696 0 0 1-14.786-14.354c-4.14-4.44-7.43-8.34-9.684-11.13a121.32 121.32 0 0 1-3.476-4.47c-56.3-62.98-85.7-134.08-101.044-192.03-15.346-57.95-16.636-102.75-16.716-113.13 1.31 44.54 40.8 84.77 103.87 113.866s149.72 47.054 245.35 47.054c95.69 0 182.39-17.98 245.47-47.104 63.08-29.126 102.54-69.396 103.75-113.974-0.06 9.99-1.266 54.74-16.572 112.782-15.306 58.038-44.716 129.374-101.186 192.534z" fill="#5BC1E7" /><path d="M802.15 487.62c-12.54 53.5-39.12 123.64-94.54 196.26 0 0-17.46 20.02-34.82 32.78l-6.62 4.52c-34.96 23.78-97.14 38.56-162.28 38.56-65.12 0-127.3-14.78-162.26-38.56l-6.36-4.34c-4.52-3.3-33.02-33.4-33.02-33.4-57.88-64.76-84.62-139.94-96.98-196.1 61.26 47.08 172.08 78.52 298.62 78.52 126.3 0 236.92-31.32 298.26-78.24z" fill="#F9D65B" /><path d="M847.078 468.198c-1.08 6.64-2.36 13.664-3.872 21.018s-3.258 15.032-5.268 22.982h24.7c0.04-0.14 3.71-16.19 5.12-23.398s2.61-14.092 3.64-20.602h-12.16zM838.17 588.52c-3.7 9.12-7.64 18.08-11.82 26.88-4.26 8.96-8.76 17.76-13.52 26.36-0.76 0.14-6.84 1.18-9.06 1.5-19.2 5.04-35.44 25.28-38.1 28.74 0.44-0.62 0.88-1.26 1.3-1.88 7.96-11.34 15.16-22.8 21.66-34.26 0.08-0.1 0.14-0.2 0.16-0.28 3.6-6.3 7-12.62 10.2-18.92 1.6-3.14 3.16-6.28 4.66-9.42 1.52-3.14 2.98-6.26 4.38-9.38h0.02c10.86-2.24 20.9-5.34 30.12-9.34z" fill="#5392DB" /><path d="M281.978 688.9l-59.88 32.014a19.506 19.506 0 0 0-10.308 17.202v62.452a19.5 19.5 0 0 0 9.196 16.558l59.88 37.284a19.506 19.506 0 0 0 20.62 0l59.88-37.284a19.506 19.506 0 0 0 9.196-16.558v-62.452a19.508 19.508 0 0 0-10.308-17.202l-59.88-32.014a19.512 19.512 0 0 0-18.396 0z" fill="#FFECB1" /><path d="M399.434 735.502l-59.88 32.014a19.506 19.506 0 0 0-10.308 17.202v62.452a19.5 19.5 0 0 0 9.196 16.558l59.88 37.284a19.506 19.506 0 0 0 20.62 0l59.88-37.284a19.506 19.506 0 0 0 9.196-16.558v-62.452a19.508 19.508 0 0 0-10.308-17.202l-59.88-32.014a19.512 19.512 0 0 0-18.396 0z" fill="#FFFFFF" /><path d="M490.46 192.834a13 13 0 0 1-0.9-25.968 25.86 25.86 0 0 0 22.03-15.644 25.752 25.752 0 0 0 0.254-19.84 25.754 25.754 0 0 0-13.85-14.21c-26.31-11.296-38.524-41.89-27.23-68.198 7.172-16.702 22.828-28.578 40.858-30.992a13 13 0 0 1 3.452 25.77c-9.15 1.226-16.782 7.012-20.418 15.48-5.638 13.136 0.46 28.412 13.596 34.05 12.744 5.47 22.596 15.578 27.738 28.458 5.144 12.882 4.962 26.996-0.51 39.74-7.706 17.946-24.6 29.948-44.092 31.322a13.2 13.2 0 0 1-0.928 0.032zM575.008 192.834a13 13 0 0 1-0.902-25.968 25.86 25.86 0 0 0 22.032-15.644 25.76 25.76 0 0 0 0.254-19.84 25.754 25.754 0 0 0-13.85-14.21 53.8 53.8 0 0 1-3.32-1.564 13 13 0 0 1 11.894-23.12c0.55 0.284 1.116 0.55 1.692 0.798 26.3 11.29 38.516 41.884 27.22 68.194-7.706 17.948-24.6 29.95-44.094 31.324-0.308 0.02-0.618 0.03-0.926 0.03zM414.88 116.416a12.942 12.942 0 0 1-6.332-1.654 51.788 51.788 0 0 1-22.334-65.79c7.168-16.7 22.824-28.576 40.856-30.992a13.006 13.006 0 0 1 14.61 11.16 12.998 12.998 0 0 1-11.16 14.61c-9.15 1.226-16.782 7.012-20.416 15.478a25.842 25.842 0 0 0 11.13 32.836 13.004 13.004 0 0 1-6.354 24.352z" fill="#FFE35D" /><path d="M853.134 402.68c0 45.06-39.09 85.854-102.29 115.382s-150.51 47.792-246.948 47.792-183.748-18.264-246.948-47.792-102.29-70.322-102.29-115.382 39.09-85.854 102.29-115.382 150.51-47.792 246.948-47.792 183.748 18.264 246.948 47.792 102.29 70.322 102.29 115.382z" fill="#D0EFF9" /><path d="M796.01 422.42c-23.38 52.52-136.84 103.98-292.12 103.98-155.26 0-268.72-51.46-292.1-103.98 0 0 138.24 69.94 281.52-7.78s302.7 7.78 302.7 7.78z" fill="#FFDF7A" /><path d="M796.01 422.42s-159.42-85.5-302.7-7.78-281.52 7.78-281.52 7.78c23.36-52.52 136.82-104 292.1-104 155.3 0 268.76 51.48 292.12 104z" fill="#FFEEB7" /><path d="M317.808 406.266a13 13 0 0 1-6.758-24.114c9.816-5.96 21.98-11.416 36.152-16.216a13 13 0 1 1 8.34 24.628c-12.376 4.19-22.804 8.838-30.998 13.814a12.944 12.944 0 0 1-6.736 1.888zM398.576 379.252a13.002 13.002 0 0 1-2.37-25.782c24.562-4.584 51.242-7.512 79.292-8.708 7.21-0.274 13.236 5.262 13.542 12.434a13 13 0 0 1-12.434 13.542c-26.828 1.142-52.274 3.932-75.63 8.29a12.936 12.936 0 0 1-2.4 0.224z" fill="#FDBB29" /><path d="M575.65 562.4v62.44a12.64 12.64 0 0 1-25.28 0v-60.42c8.54-0.52 16.96-1.2 25.28-2.02z" fill="#F9A230" /><path d="M668.474 780.27c-5.964 7.992-17.514 17.372-32.122 24.442-3.16-0.34-8.302-1.052-11.542-1.552-9.96-1.54-18.58-6.48-24.78-13.54 12-2.66 23.4-5.8 34.1-9.4 6.48 0.8 12.5 1.16 18.1 1.16 5.398 0.026 11.63-0.394 16.244-1.11z" fill="#22429C" /><path d="M652.23 781.38c5.398 0.026 11.63-0.394 16.244-1.11-5.964 7.992-17.34 17.22-32.122 24.442" fill="#22429C" /><path d="M634.13 780.22c-10.7 3.6-22.1 6.74-34.1 9.4-6.42-7.32-10.24-16.92-10.24-27.4v-11.36c8.32-1.8 16.34-3.86 24-6.16v17.52c0 8.58 6.22 15.92 14.7 17.22 1.92 0.3 3.8 0.56 5.64 0.78z" fill="#2273D1" /><path d="M653.01 550.26v94.04l-35.98 34.54a10.498 10.498 0 0 0-3.24 7.6v58.26c-7.66 2.3-15.68 4.36-24 6.16v-64.42c0-9.36 3.86-18.44 10.62-24.92l28.6-27.46v-79c8.16-1.44 16.16-3.04 24-4.8z" fill="#F9BE30" /><path d="M653.01 545.46v4.8c-7.84 1.76-15.84 3.36-24 4.8v-9.6c0-12.96-2.34-20.3-4.32-24.2-1.3-2.58-2.76-4.24-4.12-5.32 8.78-1.64 17.32-3.48 25.56-5.48 4.08 8.06 6.88 19.32 6.88 35z" fill="#5392DB" /><path d="M715.802 662.014l-34.794-21.22V545.46c0-16.36-2.48-30.56-7.42-42.5-3.74-9.06-8.88-16.8-15.44-23.18-16.3-15.9-35.42-17.58-41.02-17.72-5.96-0.76-28.44-2.46-46.3 12.46-13.26 11.06-20.14 27.92-20.46 50.1v0.2c9.58-0.66 18.94-1.5 28.1-2.56 0.6-12.12 4-20.9 10.16-26.14 9.96-8.42 25.08-6.26 25.14-6.26 0.94 0.18 1.52 0.22 2.48 0.2 2.66 0 20 0.8 29.88 20.4 4.08 8.06 6.88 19.32 6.88 35v98.84l-35.984 34.536a10.552 10.552 0 0 0-3.246 7.614v75.778c0 8.568 6.232 15.912 14.7 17.222 65.046 10.06 85.992-21.892 90.656-31.25a10.526 10.526 0 0 0 1.104-4.706v-72.878a10.54 10.54 0 0 0-4.436-8.602z" fill="#FFFFFF" /><path d="M701.662 692.678c-15.274 6.894-20.38 21.948-21.798 34.61-0.126 1.116-1.69 1.266-2.01 0.19-4.224-14.202-15.42-30.232-44.652-28.248-3.588 0.244-6.178 3.556-5.458 7.078 2.868 14.05 13.572 46.078 51.242 41.822a6.736 6.736 0 0 0 2.416-0.758c27.368-14.73 29.532-38.03 28.632-49.804-0.312-4.08-4.642-6.574-8.372-4.89z" fill="#85BF3F" /><path d="M366.33 725.98l-38.1 20.38a43.416 43.416 0 0 0-22.98 38.36v62.46c0 1.6 0.08 3.18 0.26 4.74l23.74-14.8v-52.4c0-7.2 3.96-13.8 10.3-17.2l31.02-16.58v-12.82c0-4.48-1.54-8.74-4.24-12.14z" fill="#FFD550" /><path d="M489.03 746.36l-59.88-32.02a43.718 43.718 0 0 0-20.52-5.14c-7.12 0-20.96 5.38-20.96 5.38a43.6 43.6 0 0 0-16.1-14.84l-59.88-32a43.718 43.718 0 0 0-20.52-5.14c-1.98 0-3.96 0.14-5.92 0.4 5.34 6.9 11 13.72 17 20.44 0 0 5.84 6.18 12.68 13.24 0 0.02 0 0.02 0.02 0.02l45.3 24.22a19.492 19.492 0 0 1 10.24 15.46c5.12 2.14 10.5 4.14 16.12 5.98l12.82-6.86c2.88-1.54 6.04-2.3 9.2-2.3s6.32 0.76 9.2 2.3l40.86 21.84c14.68 1.58 29.86 2.4 45.2 2.4h0.24a43.542 43.542 0 0 0-15.1-13.38z" fill="#F9BE30" /><path d="M314.93 696.68l-14.56-7.78c-2.88-1.54-6.04-2.3-9.2-2.3s-6.32 0.76-9.2 2.3l-19.04 10.18c-1.32-1.58-2.62-3.16-3.92-4.76-1.28-1.58-6.52-8.26-7.52-9.58-1.22-1.6-2.42-3.22-3.62-4.82l22.8-12.18a44.26 44.26 0 0 1 14.58-4.74c5.34 6.9 11 13.72 17 20.44 0 0 5.84 6.18 12.68 13.24z" fill="#22429C" /><path d="M370.57 750.94v-12.82c0-0.58-0.02-1.16-0.08-1.74 5.12 2.14 10.5 4.14 16.12 5.98zM512.01 784.72v14.94a462.99 462.99 0 0 1-24-0.18v-14.76c0-7.2-3.96-13.8-10.3-17.2l-19.02-10.18c14.68 1.58 29.86 2.4 45.2 2.4h0.24c5.04 7.18 7.88 15.86 7.88 24.98z" fill="#2273D1" /><path d="M512.01 799.66v30.82c-2.68 0.06-5.38 0.08-8.1 0.08-5.38 0-10.7-0.1-15.9-0.32v-30.76a462.99 462.99 0 0 0 24 0.18z" fill="#22429C" /><path d="M800.47 402.68c0 6.52-1.52 13.14-4.44 19.72-23.38-52.52-136.84-103.98-292.12-103.98s-268.74 51.48-292.1 104c0.06 0.14 0.04 0.154-0.02 0.02-2.942-6.608-4.46-13.232-4.46-19.76 0-58.52 121.8-123.72 296.58-123.72 174.76 0 296.56 65.2 296.56 123.72z" fill="#2273D1" /></svg>