<?xml version="1.0" standalone="no"?><!DOCTYPE svg PUBLIC "-//W3C//DTD SVG 1.1//EN" "http://www.w3.org/Graphics/SVG/1.1/DTD/svg11.dtd"><svg class="icon" width="200px" height="200.00px" viewBox="0 0 1024 1024" version="1.1" xmlns="http://www.w3.org/2000/svg"><path d="M693.924 946.7c0 37.28-90.3 67.5-201.72 67.5-111.4 0-201.72-30.22-201.72-67.5 0-1.88 0.24-3.76 0.7-5.62l0.02-0.06c0.36-1.5 6.5-22.54 8.02-27.78-0.52 2-0.78 4.02-0.78 6.06 0 37.26 86.76 67.5 193.76 67.5 107.02 0 193.76-30.24 193.76-67.5 0-1.74-0.2-3.48-0.56-5.2 2.02 6.94 8.52 29.4 8.52 32.6z" fill="#F03974" /><path d="M298.454 919.29a193.756 67.5 0 1 0 387.512 0 193.756 67.5 0 1 0-387.512 0Z" fill="#FFAECB" /><path d="M578.864 623.98c-37.52 9.5-63.98 43.02-63.98 81.72v139.58c0 20.84 13.84 39 33.8 44.96 17.7 5.28 28.86 13 28.86 21.62 0 15.92-38.22 28.84-85.34 28.84s-85.32-12.92-85.32-28.84c0-8.62 11.16-16.34 28.86-21.62 19.96-5.96 33.78-24.12 33.78-44.96v-139.58c0-38.7-26.44-72.22-63.98-81.72-89.76-22.68-213.54-89.22-187.02-284.06l42.08-242.16c0 46.28 103.7 83.82 231.6 83.82 127.92 0 231.6-37.54 231.6-83.82l42.08 242.16c26.54 194.84-97.24 261.38-187.02 284.06z" fill="#FFAECB" /><path d="M578.864 623.98c-37.52 9.5-63.98 43.02-63.98 81.72v139.58c0 20.84 13.84 39 33.8 44.96 17.7 5.28 28.86 13 28.86 21.62 0 15.92-38.22 28.84-85.34 28.84s-85.32-12.92-85.32-28.84c0-8.62 11.16-16.34 28.86-21.62 19.96-5.96 33.78-24.12 33.78-44.96v-139.58c0-38.7-26.44-72.22-63.98-81.72-54.36-13.74-121.2-43.56-159.56-108.22 88.32 3.52 200.06-46.14 286.48-184.2 59.38-94.84 147.82-128.92 207.46-141.08l25.96 149.44c26.54 194.84-97.24 261.38-187.02 284.06z" fill="#FF78AD" /><path d="M687.704 519.62c-27.02 30.96-66.64 53.24-117.74 66.26-40.88 10.4-73.6 10.7-77.2 10.7h-1.04c-3.66 0-36.38-0.3-77.28-10.7-51.1-13.02-90.7-35.3-117.74-66.26-36.14-41.42-49.46-99.82-39.54-173.6l35.72-205.56c40.36 24.62 114.52 41.12 199.32 41.12 84.84 0 159-16.5 199.34-41.14l35.72 205.58c9.9 73.78-3.4 132.18-39.56 173.6z" fill="#FFFFFF" /><path d="M725.044 333.26c-76 38.42-180.66 65.68-276.28 2.42-80.44-53.2-137.72-72.56-176.28-77.86 0 0 56.82-66.62 189.54 0 132.7 66.62 172.16 90.88 263.02 75.44z" fill="#050024" /><path d="M723.806 97.75c0 46.3-103.69 83.832-231.598 83.832S260.612 144.05 260.612 97.75 364.302 13.918 492.21 13.918s231.596 37.534 231.596 83.832z m-84.916 30.168c13.036-4.228 23.168-8.57 30.958-12.628 14.19-7.394 14.192-27.684 0-35.078-7.79-4.06-17.922-8.4-30.958-12.628-39.928-12.95-92.02-20.08-146.68-20.08-54.658 0-106.75 7.13-146.678 20.08-13.036 4.228-23.168 8.57-30.958 12.628-14.19 7.394-14.19 27.684 0 35.078 7.79 4.058 17.922 8.4 30.958 12.628 39.928 12.95 92.02 20.08 146.678 20.08 54.66 0 106.752-7.13 146.68-20.08z" fill="#FFE8F1" /><path d="M687.71 519.622c-27.042 30.952-66.638 53.24-117.744 66.26-40.884 10.398-73.592 10.71-77.192 10.71h-1.066c-3.644 0-36.374-0.31-77.26-10.71-51.106-13.022-90.702-35.308-117.744-66.26-36.152-41.418-49.462-99.812-39.552-173.606l15.332-88.192c38.552 5.288 95.836 24.664 176.272 77.86 95.636 63.26 200.292 35.996 276.284-2.422l2.222 12.754c9.91 73.792-3.4 132.188-39.552 173.606z" fill="#5F1367" /><path d="M577.53 911.85c0 7.18-7.774 13.766-20.61 18.81h-0.02c-0.89 0.046-1.766 0.076-2.632 0.094-30.14 0.586-55.202-23.216-57.232-53.292-2.292-33.982-5.922-99.08-4.832-157.704 1.562-82.538 83.744-95.334 86.592-95.75-37.5 9.514-63.906 43-63.906 81.706v139.58c0 20.832 13.832 38.984 33.794 44.942 17.696 5.28 28.846 13.012 28.846 21.614z" fill="#F03974" /><path d="M350.4 281.118c-31.694-13.706-57.446-20.486-77.918-23.294l-15.332 88.192c-9.91 73.792 3.4 132.188 39.552 173.606 27.042 30.952 66.638 53.24 117.744 66.26 40.886 10.398 73.616 10.71 77.26 10.71h1.066c3.184 0 29.132-0.248 63.364-7.494-259.432-69.476-223.004-207.944-205.736-307.98z" fill="#481347" /><path d="M668.95 486.588c-4.178 7.288-8.958 12.826-14.084 17.924a108.574 108.574 0 0 1-16.556 13.324c-5.892 3.858-12.158 7.158-18.772 9.728-6.608 2.564-13.582 4.388-20.734 5.158a9.758 9.758 0 0 1-3.762-19.074l0.352-0.1c10.08-2.918 19.372-8.79 27.238-16.124a81.28 81.28 0 0 0 10.556-11.98c3.024-4.208 5.566-8.786 6.868-12.614a16.102 16.102 0 0 1 30.484 10.378c-0.326 0.972-1.59 3.38-1.59 3.38z" fill="#FFFFFF" /><path d="M546.906 540.234m-14.438 0a14.438 14.438 0 1 0 28.876 0 14.438 14.438 0 1 0-28.876 0Z" fill="#FFFFFF" /></svg>