<?xml version="1.0" standalone="no"?><!DOCTYPE svg PUBLIC "-//W3C//DTD SVG 1.1//EN" "http://www.w3.org/Graphics/SVG/1.1/DTD/svg11.dtd"><svg class="icon" width="200px" height="200.00px" viewBox="0 0 1024 1024" version="1.1" xmlns="http://www.w3.org/2000/svg"><path d="M241.89 885.238a270.11 102.086 0 1 0 540.22 0 270.11 102.086 0 1 0-540.22 0Z" fill="#F03974" /><path d="M627.674 398.994c-39.52 65.28-98.12 124.3-184.84 160.6-99.12 41.48-170.84 99.28-222.38 157.78v-420.22c0 72.34 146.66 110.18 291.54 110.18 39.42 0 78.98-2.8 115.68-8.34z" fill="#FF8EB9" /><path d="M803.554 297.154v540.56c0 72.34-146.68 110.18-291.56 110.18s-291.54-37.84-291.54-110.18v-120.34c51.54-58.5 123.26-116.3 222.38-157.78 86.72-36.3 145.32-95.32 184.84-160.6 98.16-14.8 175.88-49.18 175.88-101.84z" fill="#FF78AD" /><path d="M685.234 260.174c-12.06 45.66-30.26 93.74-57.56 138.82-36.7 5.54-76.26 8.34-115.68 8.34-144.88 0-291.54-37.84-291.54-110.18 0-11.36 3.62-21.88 10.28-31.54 20.54-38.8 30.98-72.94 32.08-76.58-0.02 0.28-0.02 0.58-0.02 0.86 0 62.5 125.36 95.22 249.2 95.22 62.9 0 126.18-8.44 173.24-24.94z" fill="#FFAECB" /><path d="M803.554 297.154c0 52.66-77.72 87.04-175.88 101.84 27.3-45.08 45.5-93.16 57.56-138.82 45.6-15.98 75.96-39.54 75.96-70.28 0-0.38 0-0.78-0.02-1.16l0.02-0.02s10.56 36.26 32.54 77.62c2.16 3.2 3.96 6.5 5.42 9.9 2.86 6.62 4.4 13.58 4.4 20.92z" fill="#FF8EB9" /><path d="M694.054 222.174c-1.25 6.2-2.606 12.476-4.072 18.812s-3.048 12.738-4.748 19.188c-23.53 8.25-51.116 14.484-80.68 18.658s-61.11 6.282-92.56 6.282c-61.92 0-124.22-8.18-171.04-24.172s-78.16-39.798-78.16-71.048v-34.76c0 31.26 31.34 55.066 78.16 71.056s109.12 24.166 171.04 24.166c33.46 0 67.03-2.386 98.208-7.1s59.962-11.762 83.852-21.082z" fill="#FF78AD" /><path d="M761.194 188.714h-0.04l0.028 0.59c0.008 0.196 0.012 0.39 0.012 0.59 0 15.37-7.59 28.946-20.88 40.676s-32.28 21.616-55.08 29.606c1.7-6.45 3.28-12.85 4.748-19.188s2.822-12.612 4.072-18.812c20.33-7.94 37.114-17.516 48.818-28.698s18.322-23.972 18.322-38.342v16.79z" fill="#FF5E91" /><path d="M803.56 460.874s-223.178 5.274-291.53 203.832c0 0 145.764-117.284 291.53-25.104z" fill="#F9D65B" /><path d="M268.374 668.974a585.84 585.84 0 0 0-47.92 48.4v-102.22s15.58 28.56 47.92 53.82z" fill="#FFECB1" /><path d="M512.014 664.714c-0.72 2.64-52.64 187.82-291.56 149.54v-96.88a585.84 585.84 0 0 1 47.92-48.4c46.06 36.02 126.16 65.32 243.64-4.26z" fill="#F9D65B" /><path d="M512 250.356c-61.918 0-124.218-8.178-171.038-24.168S262.8 186.39 262.8 155.132s31.34-55.064 78.162-71.056S450.082 59.908 512 59.908s124.218 8.178 171.038 24.168S761.2 123.874 761.2 155.132s-31.34 55.064-78.162 71.056-109.12 24.168-171.038 24.168z" fill="#87D2ED" /><path d="M716.792 153.024c0 3.578-0.828 7.088-2.426 10.516s-3.964 6.77-7.042 10.012c-13.078-13.8-39.008-25.7-73.12-34.15s-76.406-13.452-122.212-13.452c-45.798 0-88.086 5-122.196 13.452s-60.04 20.352-73.118 34.15c-3.076-3.24-5.444-6.584-7.042-10.012s-2.426-6.938-2.426-10.516c0-18.804 22.924-35.832 59.982-48.16s88.256-19.954 144.8-19.954c56.554 0 107.752 7.626 144.814 19.954 37.064 12.328 59.986 29.356 59.986 48.16z" fill="#2273D1" /><path d="M707.324 173.552c-26.172 27.584-103.72 47.586-195.33 47.586-91.594 0-169.142-20.002-195.314-47.586 26.156-27.6 103.72-47.602 195.314-47.602 91.61 0 169.176 20.002 195.33 47.602z" fill="#D0EFF9" /><path d="M449.574 173.552a61.03 20.384 0 1 0 122.06 0 61.03 20.384 0 1 0-122.06 0Z" fill="#162068" /><path d="M578.382 65.456c0-25.566-30.346-46.29-67.778-46.29-37.434 0-67.778 20.724-67.778 46.29 0 5.244 1.294 10.278 3.648 14.978l23.134 73.612a14.264 14.264 0 0 0 13.608 9.988h54.778a14.264 14.264 0 0 0 13.608-9.988l23.134-73.612c2.352-4.7 3.646-9.734 3.646-14.978z" fill="#2273D1" /><path d="M554.894 61.234c-14.18-0.88-28.56-1.32-42.9-1.32-15.28 0-30.6 0.5-45.68 1.48 0.7-15 20.26-27.04 44.28-27.04 23.96 0 43.46 11.96 44.3 26.88z" fill="#FFFFFF" /><path d="M554.934 62.254c0 15.4-19.84 27.9-44.34 27.9-24.48 0-44.32-12.5-44.32-27.9 0-0.28 0-0.58 0.04-0.86 15.08-0.98 30.4-1.48 45.68-1.48 14.34 0 28.72 0.44 42.9 1.32 0.04 0.34 0.04 0.68 0.04 1.02z" fill="#5BC1E7" /><path d="M461.434 128.034c-4.17 0.36-8.284 0.754-12.342 1.19s-8.058 0.91-11.998 1.43l-6.17-19.63-6.17-19.63c3.9-0.61 7.864-1.184 11.892-1.718s8.118-1.022 12.268-1.462l6.26 19.91zM596.594 90.974l-6.19 19.67-6.19 19.67c-3.95-0.5-7.96-0.956-12.026-1.37s-8.184-0.79-12.354-1.13l6.27-19.95 6.27-19.95c4.15 0.43 8.25 0.9 12.29 1.41s8.02 1.06 11.93 1.65z" fill="#0F4CB8" /><path d="M448.914 88.214c-4.15 0.44-8.24 0.93-12.268 1.462s-7.992 1.108-11.892 1.718l-0.34-1.08s-3.3-8.524-4.172-12.358-1.338-7.732-1.388-11.682c3.94-0.56 7.916-1.084 11.922-1.57 4.008-0.486 8.048-0.93 12.118-1.33-0.02 0.34-0.06 1.73-0.06 2.08 0 2.62 0.32 5.19 0.936 7.692a34.626 34.626 0 0 0 2.704 7.288l1.22 3.89zM602.374 65.894c-0.03 4.01-0.486 7.976-1.36 11.872s-4.15 12.338-4.15 12.338l-0.27 0.87c-3.91-0.59-7.89-1.14-11.93-1.65s-8.14-0.98-12.29-1.41l1.18-3.74 1.18-3.74a34.626 34.626 0 0 0 2.704-7.288 32.1 32.1 0 0 0 0.936-7.692c0-0.4-0.05-1.97-0.08-2.36a595.678 595.678 0 0 1 24.08 2.8z" fill="#5BC1E7" /></svg>