<?xml version="1.0" standalone="no"?><!DOCTYPE svg PUBLIC "-//W3C//DTD SVG 1.1//EN" "http://www.w3.org/Graphics/SVG/1.1/DTD/svg11.dtd"><svg class="icon" width="200px" height="200.00px" viewBox="0 0 1024 1024" version="1.1" xmlns="http://www.w3.org/2000/svg"><path d="M812.62 191.314c-4.8 44.28-16.44 162.2-19.9 296.34-15.94 8.3-34.36 16.06-34.36 16.06-45.24 6.36-112.2 22.72-199.28-27.3-141.28-81.18-237.62-52-294.98-29.88-13.88 10.26-24.84 19.74-33.2 27.68-3.86-128.48-14.86-240.02-19.52-282.86 17.74 78.16 145.58 138.76 300.62 138.76 155.08 0 282.92-60.62 300.62-138.8z" fill="#A8E2F4" /><path d="M814.74 851.314c0 86.96-135.54 157.44-302.74 157.44s-302.74-70.48-302.74-157.44c0-10.12 1.86-20 5.36-29.6 17.5-104.8 19.74-232.88 16.28-347.5 8.36-7.94 19.32-17.42 33.2-27.68 57.36-22.12 153.7-51.3 294.98 29.88 87.08 50.02 154.04 33.66 199.28 27.3 0 0 18.42-7.76 34.36-16.06-2.88 111.12-0.16 233.34 16.66 334.06 3.5 9.6 5.36 19.48 5.36 29.6z" fill="#5BC1E7" /><path d="M780.74 851.33c0 58.38-110.36 123.44-268.74 123.44s-268.74-65.06-268.74-123.44c0-5.92 1.1-11.94 3.28-17.92l1.62-6.08c7.78-46.6 12.64-93.78 15.38-139.88 0.22 71.26 111.4 129 248.44 129 137.08 0 248.26-57.74 248.48-129 2.74 46.1 7.6 93.28 15.38 139.88l1.62 6.08c2.18 5.98 3.28 12 3.28 17.92z" fill="#2094DC" /><path d="M760.04 679.914c0.12 2.48 0.26 4.96 0.42 7.46v0.08c-0.22 71.26-111.4 129-248.48 129-137.04 0-248.22-57.74-248.44-129v-0.08c0.16-2.5 0.3-4.98 0.42-7.46 6.9-126.9-2.12-324.36-10.44-425.24 53.18 45.26 149.06 75.44 258.48 75.44s205.3-30.18 258.48-75.44c-8.32 100.88-17.34 298.34-10.44 425.24z" fill="#FFFFFF" /><path d="M814.746 172.678c0 86.952-135.544 157.44-302.746 157.44s-302.746-70.488-302.746-157.44S344.798 15.238 512 15.238s302.746 70.488 302.746 157.44z" fill="#D0EFF9" /><path d="M758.36 503.714c-45.24 6.36-112.2 22.72-199.28-27.3-141.28-81.18-237.62-52-294.98-29.88 0 0 72.72-70.78 173.58-64.16 152.7 10.02 162.14 117.2 320.68 121.34z" fill="#F97824" /><path d="M760.46 687.454c-0.02 4-0.38 7.96-1.08 11.88-83.62 39.78-202.86 77.6-313.26 28.12-167.32-75-181.44-271.42-182-280.58-0.02-0.22-0.02-0.34-0.02-0.34 57.36-22.12 153.7-51.3 294.98 29.88 87.08 50.02 154.04 33.66 199.28 27.3-1.3 62.9-1.1 125.24 1.68 176.2 0.12 2.48 0.42 7.54 0.42 7.54z" fill="#FFA040" /><path d="M759.38 699.334c-11.72 65.7-118.02 117.12-247.4 117.12-137.04 0-248.22-57.74-248.44-129v-0.08c0.16-2.5 0.3-4.98 0.42-7.46 3.62-66.36 2.86-152 0.16-233.04 0.56 9.16 14.68 205.58 182 280.58 110.4 49.48 229.64 11.66 313.26-28.12z" fill="#FF8F1D" /><path d="M717.14 677.574v0.18c-0.06 17.22-7.76 33.5-21.44 47.98-75.02 26.26-164.9 39.68-249.58 1.72-56.02-25.1-94.86-63.82-121.76-104.56 36.36-32.74 104.4-54.76 182.32-54.76 111.58 0 202.9 45.16 209.98 102.26l0.12 0.98c0.24 2.04 0.36 4.1 0.36 6.2z" fill="#F9861E" /><path d="M695.7 725.734c-34.26 36.3-106.04 61.28-189.02 61.28-116.08 0-210.24-48.9-210.42-109.26v-0.18c0-2.1 0.1-4.16 0.34-6.2l0.12-0.98c2.14-17.22 11.94-33.36 27.64-47.5 26.9 40.74 65.74 79.46 121.76 104.56 84.68 37.96 174.56 24.54 249.58-1.72z" fill="#F96B24" /><path d="M666.6 686.894l-94.46-47.98a27.966 27.966 0 0 0-27.88 1.46l-84.88 55.08a20.826 20.826 0 0 1-3.32-10.84l-1.74-92.74-0.2-10.82c-0.08-3.94 0.96-7.74 2.94-11.02 1.58-2.66 3.78-4.98 6.48-6.72l64.04-41.58 13.44-8.72c5.76-3.74 12.96-4.34 19.22-1.7 0.68 0.28 1.36 0.6 2.02 0.96l87.3 48.14c6.04 3.34 10.02 9.48 10.62 16.36l8.42 99.34c0.3 3.78-0.38 7.5-2 10.78z" fill="#E36924" /><path d="M659.28 695.214l-77.48 50.292a20.692 20.692 0 0 1-20.052 1.37l-93.824-43.938a20.828 20.828 0 0 1-8.538-7.474l84.87-55.088a27.956 27.956 0 0 1 27.886-1.464l94.464 47.992a20.618 20.618 0 0 1-7.326 8.31z" fill="#F9DF62" /><path d="M510.52 364.134l-47.96 70.58c-48.34-13.72-89.56-14.08-124.06-8.9l44.4-60.76c4.08-5.58 10.66-8.76 17.56-8.48l99.6 4.22c3.8 0.18 7.4 1.32 10.46 3.34z" fill="#FFA040" /><path d="M492.78 570.774c-3.4 1.64-7.28 2.36-11.2 1.92l-102.96-11.18c-7.1-0.76-13.32-5.16-16.42-11.58l-40.08-83.22c-3.3-6.86-2.54-15.02 1.96-21.18l14.42-19.72c34.5-5.18 75.72-4.82 124.06 8.9l-11.6 17.06c-5.62 8.26-6.4 18.86-2.08 27.84z" fill="#E36924" /><path d="M557.04 475.254c-34.1-19.4-65.56-32.36-94.48-40.54l47.96-70.58c3.1 2.04 5.66 4.88 7.32 8.32l40.08 83.22c3.02 6.26 2.66 13.62-0.88 19.58z" fill="#FFEBAE" /><path d="M557.04 475.254c-0.1 0.16-0.2 0.34-0.3 0.5l-55.48 87.5a20.616 20.616 0 0 1-8.48 7.52l-43.9-91.16a27.936 27.936 0 0 1 2.08-27.84l11.6-17.06c28.92 8.18 60.38 21.14 94.48 40.54z" fill="#F9DF62" /><path d="M541.02 513.014l-13.44 8.72-26.32 41.52a20.616 20.616 0 0 1-8.48 7.52 20.628 20.628 0 0 1-11.2 1.92l-24.52-2.66c-1.98 3.28-3.02 7.08-2.94 11.02l0.2 10.82 24.88 2.7a42.96 42.96 0 0 0 23.14-3.98c7.14-3.44 13.2-8.8 17.48-15.52l40.42-63.76a20.592 20.592 0 0 0-19.22 1.7z" fill="#D34524" /><path d="M243.254 172.678a268.746 123.44 0 1 0 537.492 0 268.746 123.44 0 1 0-537.492 0Z" fill="#FFFFFF" /></svg>