<?xml version="1.0" standalone="no"?><!DOCTYPE svg PUBLIC "-//W3C//DTD SVG 1.1//EN" "http://www.w3.org/Graphics/SVG/1.1/DTD/svg11.dtd"><svg class="icon" width="200px" height="200.00px" viewBox="0 0 1024 1024" version="1.1" xmlns="http://www.w3.org/2000/svg"><path d="M740.41 459.014c-17.66 20.18-39.86 43.12-56.2 51.66-107.4 74.5-201.26 25.76-294.16-57.18-41.56-37.14-92.1-48.4-135.26-49.54h-0.18c-1.78-0.04-3.56-0.08-5.32-0.1 0.02 0.08 0.04 0.16 0.06 0.22-6.44 0.28-17.8 1.22-29.88 4.28-28.66-100-20.64-173.08-18.8-186.34 2.32 77.26 130.2 139.54 287.62 139.54 158.86 0 287.64-63.44 287.64-141.7 0 0 17.44 102.18-35.52 239.16z" fill="#A0DBF1" /><path d="M684.07 510.694c-59.86 113.98-38.62 193.22-19.88 263.14 10.96 40.9 21.32 79.58 17.08 125.32l-0.46 4.5c-1.76 16.72-21.08 35.28-51.68 49.64-37.6 17.64-87.5 27.34-140.52 27.34s-102.92-9.7-140.52-27.34c-30.6-14.36-49.9-32.92-51.66-49.64l-1.9-18.08c-1.3-39.96 8.08-74.96 17.94-111.74 18.74-69.92 39.98-149.16-19.9-263.16-42.94-81.78-57.6-155.06-62.34-202.12-1.02-10.12-1.64-19.48-1.96-28.02 46.14 47.9 145.22 81.02 260.02 81.02 114.74 0 213.78-33.1 259.96-80.96-2.14 52.12-14.72 135.94-64.18 230.1z" fill="#FFFFFF" /><path d="M684.21 510.674c-107.4 74.5-201.26 25.76-294.16-57.18-43.34-38.74-96.46-49.34-140.76-49.64 0 0 61.28-38.52 148.8 12.74 87.5 51.26 148.66 28.3 197.22 17.36 48.56-10.96 137.36-7 88.9 76.72z" fill="#F96424" /><path d="M710.61 906.774h-0.02c-6.06 57.76-103.06 103.68-221.84 103.68s-215.76-45.92-221.84-103.68h-0.6c-15.44-138.18 88.56-213.62 0-382.22-21.62-41.18-36.58-80.42-46.84-116.2 12.08-3.06 23.44-4 29.88-4.28-0.02-0.06-0.04-0.14-0.06-0.22 1.76 0.02 3.54 0.06 5.32 0.1h0.18c43.16 1.14 93.7 12.4 135.26 49.54 92.9 82.94 186.76 131.68 294.16 57.18 16.34-8.54 38.54-31.48 56.2-51.66a627.77 627.77 0 0 1-29.8 65.54c-88.56 168.6 15.44 244.04 0 382.22z" fill="#5BC1E7" /><path d="M735.276 219.858c0 24.428-23.614 50.09-64.778 70.364-48.182 23.734-112.902 36.812-182.212 36.812s-134.03-13.08-182.232-36.812c-41.166-20.274-64.76-45.936-64.76-70.364 0-24.448 23.594-50.09 64.76-70.364 48.202-23.754 112.922-36.832 182.232-36.832s134.03 13.08 182.212 36.832c41.164 20.274 64.778 45.916 64.778 70.364z" fill="#FFFFFF" /><path d="M559.47 357.174l-27.92 183.9c-12.86-3.5-25.6-8.42-38.24-14.5l25.16-165.8c14-0.7 27.68-1.92 41-3.6z" fill="#F9B62C" /><path d="M664.31 773.854c10.98 40.88 21.36 79.56 17.1 125.3l-0.48 4.52c-0.26 2.56-0.94 5.16-2.02 7.8-260.24 6.84-299.4-138.16-295.74-285.38 3.98-159.52-133.88-222.24-133.88-222.24 44.3 0.3 97.42 10.9 140.76 49.64 92.9 82.94 186.76 131.68 294.16 57.18-59.86 114-38.62 193.24-19.9 263.18z" fill="#F9A241" /><path d="M678.91 911.474c-5.92 14.5-23.74 29.66-49.64 41.8-37.6 17.66-87.5 27.38-140.52 27.38s-102.92-9.72-140.52-27.38c-30.58-14.34-49.9-32.9-51.66-49.6l-1.9-18.1c-1.32-39.94 8.06-74.96 17.92-111.72 18.74-69.94 40-149.18-19.88-263.18-19.98-38.04-33.82-74.24-43.42-106.82 0 0 137.86 62.72 133.88 222.24-3.66 147.22 35.5 292.22 295.74 285.38z" fill="#F98629" /><path d="M645.97 890.554c0 7.24-3.18 14.2-9.04 20.66-100.48-4.18-162.66-34.38-200.32-79.06 16.18-2.2 33.56-3.4 51.66-3.4 87.1 0 157.7 27.66 157.7 61.8z" fill="#F96424" /><path d="M636.93 911.214c-21.7 23.96-80.06 41.14-148.66 41.14-87.08 0-157.68-27.68-157.68-61.8 0-27.04 44.32-50.02 106.02-58.4 37.66 44.68 99.84 74.88 200.32 79.06z" fill="#D74D1F" /><path d="M488.284 78.156c-158.878 0-287.66 63.428-287.66 141.704 0 78.256 128.784 141.704 287.66 141.704 158.858 0 287.64-63.448 287.64-141.704 0-78.278-128.782-141.704-287.64-141.704z m182.214 212.068c-48.182 23.734-112.902 36.812-182.212 36.812s-134.03-13.08-182.232-36.812c-41.166-20.274-64.76-45.936-64.76-70.364 0-24.448 23.594-50.09 64.76-70.364 48.202-23.754 112.922-36.832 182.232-36.832s134.03 13.08 182.212 36.832c41.166 20.274 64.778 45.916 64.778 70.364 0 24.428-23.614 50.088-64.778 70.364z" fill="#D0EFF9" /><path d="M383.18 611.576m-14.51 0a14.51 14.51 0 1 0 29.02 0 14.51 14.51 0 1 0-29.02 0Z" fill="#FFECB1" /><path d="M425.75 427.256m-15.98 0a15.98 15.98 0 1 0 31.96 0 15.98 15.98 0 1 0-31.96 0Z" fill="#F9D65B" /><path d="M569.96 745.722m-14.51 0a14.51 14.51 0 1 0 29.02 0 14.51 14.51 0 1 0-29.02 0Z" fill="#FFECB1" /><path d="M531.55 541.074l-55.94 368.54c-1.5 9.9-10.02 17-19.74 17-1 0-2.02-0.06-3.04-0.22-10.92-1.66-18.42-11.86-16.76-22.78l57.24-377.04c12.64 6.08 25.38 11 38.24 14.5z" fill="#F97D41" /><path d="M584.47 547.254c-32.122 1.47-63.248-6.858-93.82-21.984l57.306-9.164a12.642 12.642 0 0 1 11.23 3.876z" fill="#FFFFFF" /><path d="M603.492 570.39l-63.288 12.344a16.96 16.96 0 0 0-12.82 11.132l-20.096 58.2a12.59 12.59 0 0 1-5.646-3.956l-39.694-48.958a12.52 12.52 0 0 1-2.126-12.026l18.326-53.132a12.566 12.566 0 0 1 9.918-8.308l2.584-0.418c30.57 15.126 61.698 23.454 93.82 21.984l15.942 17.214c1.55 1.71 2.622 3.738 3.08 5.924z" fill="#FFECB1" /><path d="M603.084 577.122l-18.34 53.126a12.59 12.59 0 0 1-9.106 8.164l-61.452 14.044a12.648 12.648 0 0 1-6.892-0.39l20.09-58.194a17.008 17.008 0 0 1 12.828-11.14l63.278-12.34a12.59 12.59 0 0 1-0.406 6.73z" fill="#F9BE41" /><path d="M501.532 784.034L453.58 829.14a17.366 17.366 0 0 0-5.018 16.608l14.322 61.212a12.84 12.84 0 0 1-7.046-0.342l-60.934-20.678a12.854 12.854 0 0 1-8.396-9.244l-13.074-55.882a12.852 12.852 0 0 1 4.042-12.574l46.53-40.882a12.86 12.86 0 0 1 11.802-2.762l59.838 15.994a12.9 12.9 0 0 1 5.886 3.444z" fill="#FFECB1" /><path d="M504.846 790.066l13.074 55.882a12.86 12.86 0 0 1-3.422 12.01l-45.446 45.586a12.928 12.928 0 0 1-6.166 3.416l-14.322-61.212a17.368 17.368 0 0 1 5.018-16.608l47.95-45.106a12.824 12.824 0 0 1 3.314 6.032z" fill="#F9BE41" /><path d="M559.53 357.174l-3.74 24.62c-13.42 1.52-27.1 2.6-40.96 3.18l3.68-24.2c14-0.72 27.7-1.92 41.02-3.6z" fill="#F99319" /><path d="M778.67 16.174h-143.98c-37.04 0-67.94 26.58-73.5 63.2l-37.42 246.5c14.04-0.92 27.78-2.4 41.12-4.4l35.84-236.1c2.58-16.92 16.86-29.2 33.96-29.2h143.98c11.06 0 20-8.96 20-20s-8.94-20-20-20z" fill="#F9C835" /></svg>