<?xml version="1.0" standalone="no"?><!DOCTYPE svg PUBLIC "-//W3C//DTD SVG 1.1//EN" "http://www.w3.org/Graphics/SVG/1.1/DTD/svg11.dtd"><svg class="icon" width="200px" height="200.00px" viewBox="0 0 1024 1024" version="1.1" xmlns="http://www.w3.org/2000/svg"><path d="M232.388 885.05a271.506 103.388 0 1 0 543.012 0 271.506 103.388 0 1 0-543.012 0Z" fill="#F03974" /><path d="M138.634 789.218a365.26 165.016 0 1 0 730.52 0 365.26 165.016 0 1 0-730.52 0Z" fill="#FFAECB" /><path d="M869.158 789.216c0 10.09-2.012 20.6-6.38 30.858-4.038 9.276-8.766 17.378-16.124 26.296-0.926 1.122-3.95 2.862-6.096 3.506-22.94 5.37-48.674 9.646-76.406 12.578-27.73 2.932-57.456 4.522-88.376 4.522-75.74 0-144.304-9.55-193.934-24.99s-80.326-36.77-80.326-60.33 30.696-44.89 80.326-60.33 118.196-24.99 193.934-24.99c26.15 0 51.446 1.14 75.402 3.268 23.958 2.128 52.108 6.194 72.908 10.144 16.07 13.09 27.106 26.808 33.376 37.892 8.522 14.992 11.542 28.1 11.696 41.576z" fill="#FF78AD" /><path d="M331.352 758.576a172.548 71.982 0 1 0 345.096 0 172.548 71.982 0 1 0-345.096 0Z" fill="#2273D1" /><path d="M931.054 498.724c-5.71-9.61-13.854-17.24-23.364-22.468s-20.384-8.052-31.554-8.052h-29.06c3.14-19.16 4.66-35.116 5.392-46.482s0.678-18.148 0.668-18.958c-8.33 41.63-49.996 78.74-112.4 105.442s-145.55 42.998-236.84 42.998l-1.138-0.002a51.646 51.646 0 0 1-1.122-0.018l-89.44 76.78-89.44 76.78s-4.41 2.914-11.73 6.472-17.55 7.758-29.19 10.328c4.15 4.68 9.526 10.346 15.838 16.098s13.562 11.592 21.462 16.622c10.1 6.87 21.9 13.146 35.12 18.692 13.22 5.548 27.86 10.368 43.64 14.328 15.78 3.97 32.69 7.08 50.45 9.198s36.37 3.242 55.55 3.242c38.35 0 74.45-4.506 106.01-12.442s58.58-19.308 78.77-33.038v0.02c13.58-8.65 25.256-19.696 33.536-28.578s13.166-15.602 13.166-15.602c5.21-5.83 10.184-11.724 14.94-17.672s9.29-11.948 13.62-17.988c6.17-8.61 13.876-15.87 22.636-21.502s18.576-9.638 28.964-11.738c32.23-6.49 56.82-18.664 75.552-33.044s31.608-30.964 40.408-46.274c5.69-9.91 8.494-20.78 8.42-31.63-0.078-10.852-3.034-21.682-8.864-31.512z m-37.72 41.22c-8.73 15.2-20.25 27.646-34.49 37.308s-31.2 16.542-50.81 20.612c6.85-15.06 12.66-29.9 17.588-44.262s8.972-28.248 12.292-41.398h39.48c4.79 0 8.376 1.604 10.962 3.554a19.248 19.248 0 0 1 4.978 5.624 19.448 19.448 0 0 1 2.408 7.172c0.402 3.246 0.002 7.19-2.408 11.39z" fill="#60C3E8" /><path d="M501.634 551.184l-178.88 153.56s-17.64 11.66-40.92 16.8c-5.98-6.76-9.4-11.46-9.4-11.46-119.96-134.18-117.82-305.22-117.78-307.38 2.4 12.08 7.6 23.76 15.3 34.92 45.24 65.58 176.5 113.12 331.68 113.56z" fill="#87D2ED" /><path d="M531.354 623.704c-50.96 36.24-118.94 67.58-208.6 81.04-9.42-9.6-20.5-21.3-20.5-21.3-34.88-39.02-58.46-81.82-74.4-121.98 64.22 38.2 164 62.74 276.04 62.74 9.24 0 18.4-0.16 27.46-0.5z" fill="#B45631" /><path d="M777.874 562.664c-15.64 37.72-38.08 79.06-70.26 121.2 0 0-17.48 20.02-34.82 32.8l-6.62 4.5c-34.96 23.8-97.14 38.56-162.28 38.56-65.12 0-127.3-14.76-162.26-38.54l-6.36-4.34c-1.7-1.24-6.82-6.28-12.52-12.1 89.66-13.46 157.64-44.8 208.6-81.04 99.64-3.6 187.6-26.64 246.52-61.04z" fill="#9A4C2C" /><path d="M616.734 542.544c-20.8 26.38-48.66 55.04-85.36 81.16h-0.02c-9.06 0.34-18.22 0.5-27.46 0.5-112.04 0-211.82-24.54-276.04-62.74-13.22-33.3-21.16-64.8-25.96-90.76 61.08 48.2 173.46 80.5 302 80.5 39.48 0 77.42-3.04 112.84-8.66z" fill="#CB8F62" /><path d="M805.714 470.884c-5.08 26.22-13.64 57.52-27.84 91.78-58.92 34.4-146.88 57.44-246.5 61.04 36.7-26.12 64.56-54.78 85.36-81.16 79.76-12.66 146.64-38.36 188.98-71.66z" fill="#B77C4E" /><path d="M847.078 468.198c-1.08 6.64-2.36 13.664-3.872 21.018s-3.258 15.032-5.268 22.982h24.7c0.04-0.14 3.71-16.19 5.12-23.398s2.61-14.092 3.64-20.602h-12.16zM838.174 588.524a509.892 509.892 0 0 1-11.82 26.88c-2.13 4.48-4.32 8.92-6.572 13.316s-4.568 8.744-6.948 13.046c-0.01 0-0.02 0.006-0.03 0.012s-0.02 0.018-0.03 0.028a84.08 84.08 0 0 0-25.89 10.92 83.284 83.284 0 0 0-20.79 18.84c-0.08 0.07-0.156 0.146-0.226 0.22a8.32 8.32 0 0 0-0.196 0.22c3.19-4.52 8.63-13.036 13.44-20.716s8.99-14.526 9.66-15.706a457.686 457.686 0 0 0 19.26-37.72c5.43-1.12 10.66-2.456 15.684-4.01s9.848-3.33 14.458-5.33z" fill="#5392DB" /><path d="M732.734 182.584c-21.44 26.38-69.26 70.9-147 69.14-110.2-2.48-154.7 35.34-184.22 99.04-28.34 61.22-120.7 106.78-231.56 86.86-10.94-15.84-16.84-32.76-16.84-50.3 0-41.22 32.56-78.86 86.32-107.66-4.6-9.26-7.04-18.9-7.04-28.8 0-41.7 43.08-78.7 109.56-101.82 18.84-6.54 30.3-26.32 25.34-45.64-0.72-2.8-1.76-5.54-3.2-8.2-6.58-12.14-4.92-27.7-1.38-40.68 2.92-10.64 16.14-14.32 24.2-6.8 11.68 10.92 31.52 21.72 62.6 17.14 63.98-9.4 116.48 36.88 136.04 57.16 5.7 5.9 13.08 9.86 21.14 11.4 52.08 9.96 96.06 27.26 126.04 49.16z" fill="#FFF0C0" /><path d="M854.674 387.324c0 90.5-157.06 163.88-350.78 163.88-156.16 0-288.48-47.68-333.94-113.58 110.86 19.92 203.22-25.64 231.56-86.86 29.52-63.7 74.02-101.52 184.22-99.04 77.74 1.76 125.56-42.76 147-69.14 27.02 19.7 42.66 43.12 42.66 68.28 0 9.9-2.42 19.54-7.02 28.8 53.74 28.8 86.3 66.44 86.3 107.66z" fill="#FFE38B" /><path d="M790.794 293.024c-14.34 27.5-42.94 51.96-83.9 71.1-54.66 25.54-126.76 39.6-203 39.6-20 0-39.724-0.964-58.92-2.858a13.014 13.014 0 0 1-11.74-12.95c0-7.71 6.666-13.678 14.34-12.922a574.06 574.06 0 0 0 56.32 2.73c129.12 0 237.18-42.1 264.7-98.54-0.08 0.16-0.14 0.32-0.22 0.48 7.96 4.26 15.44 8.72 22.42 13.36z" fill="#FFC244" /><path d="M367.414 370.352c0 8.72-8.418 14.962-16.772 12.468-17.744-5.298-34.424-11.548-49.728-18.696-40.96-19.14-69.56-43.6-83.92-71.1 7-4.64 14.48-9.1 22.44-13.36 16.274 32.774 59.724 60.67 118.658 78.224a13.02 13.02 0 0 1 9.322 12.464z" fill="#FFD961" /><path d="M635.334 139.844a182.506 182.506 0 0 1-18.34 9.82c-19.092 8.918-41.358 15.726-65.498 20.146-7.988 1.462-15.362-4.668-15.362-12.79 0-6.31 4.546-11.658 10.754-12.794 18.372-3.364 35.202-8.16 49.866-14.082 3.14 1.5 6.46 2.6 9.94 3.28 9.86 1.88 19.42 4.04 28.64 6.42z" fill="#FFC244" /><path d="M494.114 162.664a12.998 12.998 0 0 1-13.092 12.996c-5.598-0.038-11.402-0.116-14.144-0.232-43.642-1.846-84.466-10.834-116.424-25.766-1.58-0.74-3.1-1.48-4.6-2.22a39.56 39.56 0 0 0 19.3-19.64c27.436 12.07 63.324 20.008 103.08 21.66 2.46 0.102 7.754 0.17 12.968 0.204a12.998 12.998 0 0 1 12.912 12.998z" fill="#FFD961" /><path d="M284.58 213.826a52.472 29.236 0 1 0 104.944 0 52.472 29.236 0 1 0-104.944 0Z" fill="#FFF6DB" /><path d="M616.734 542.524v0.02c-7.08 8.96-14.96 18.2-23.74 27.52 63.26-7.46 121.44-22.86 169.1-45.12 12.78-5.96 24.58-12.34 35.36-19.04 3.46-12.44 6.16-24.16 8.26-35.02-42.34 33.3-109.22 59-188.98 71.64z" fill="#96541E" /><path d="M616.734 542.544c-7.08 8.96-14.96 18.2-23.74 27.52-28.82 3.4-58.7 5.14-89.1 5.14-78.36 0-153.16-11.54-216.32-33.4-29.76-10.28-55.92-22.52-77.98-36.38-3.2-12.34-5.72-24-7.7-34.72 61.08 48.2 173.46 80.5 302 80.5 39.48 0 77.42-3.04 112.84-8.66z" fill="#B26B37" /><path d="M201.894 470.704c1.98 10.72 4.5 22.38 7.7 34.72-20.06-12.56-36.72-26.48-49.56-41.48-5.7-36.56-5.4-60.44-5.38-61.24 2.4 12.08 7.6 23.76 15.3 34.92 8.04 11.66 18.8 22.74 31.94 33.08zM847.754 464.044c-12.92 15.02-29.78 29.08-50.3 41.86 3.46-12.44 6.16-24.16 8.26-35.02 25.8-20.32 42.5-43.44 47.42-68.16 0.02 1.2 0.26 25.02-5.38 61.32z" fill="#5392DB" /></svg>