<?xml version="1.0" standalone="no"?><!DOCTYPE svg PUBLIC "-//W3C//DTD SVG 1.1//EN" "http://www.w3.org/Graphics/SVG/1.1/DTD/svg11.dtd"><svg class="icon" width="200px" height="200.00px" viewBox="0 0 1024 1024" version="1.1" xmlns="http://www.w3.org/2000/svg"><path d="M646.834 431.15c-28.76 30.54-69.24 55.96-126 69.6-188.9 45.42-236.72 131.82-269.56 243.12l-79.32-421.26c46.68 70.54 181.28 121.5 340.06 121.5 47.7 0 93.22-4.6 134.82-12.96z" fill="#F9D65B" /><path d="M749.334 868.07l-2.94 15.64c0 26.14-22.4 53.58-61.46 75.26-45.72 25.38-107.14 39.38-172.92 39.38s-127.2-14-172.94-39.38c-39.06-21.68-61.46-49.12-61.46-75.26l-2.96-15.7c43.34 52.82 133.36 89.12 237.38 89.12 103.96 0 193.96-36.28 237.3-89.06z" fill="#F9A241" /><path d="M852.074 322.57l-82.32 437.14-20.4 108.34c-0.02 0-0.02 0.02-0.02 0.02-43.34 52.78-133.34 89.06-237.3 89.06-104.02 0-194.04-36.3-237.38-89.12l-20.38-108.22-3-15.92c32.84-111.3 80.66-197.7 269.56-243.12 56.76-13.64 97.24-39.06 126-69.6 96.9-19.44 172.6-59.22 205.24-108.58z" fill="#F9BE41" /><path d="M685.954 374.15c-9.7 19.84-22.44 39.28-39.12 57-41.6 8.36-87.12 12.96-134.82 12.96-197.5 0-357.6-78.86-357.6-176.14 0-35.76 21.6-69.02 58.74-96.78-11.36 21.26-22.22 41.98-23.16 45.36a81.542 81.542 0 0 0-3.12 22.28c0 88.44 145.56 160.16 325.14 160.16 63.98 0 123.64-9.1 173.94-24.84z" fill="#F97824" /><path d="M869.574 267.97c0 73.78-92.08 136.96-222.74 163.18 16.68-17.72 29.42-37.16 39.12-57 90.88-28.4 151.18-78.4 151.18-135.32 0-15.12-4.26-29.76-12.22-43.62h0.02l-13-23.2c36.46 27.6 57.64 60.56 57.64 95.96z" fill="#F96124" /><path d="M717.966 226.352c-54.46 26.826-127.612 41.608-205.954 41.608s-151.494-14.784-205.976-41.608c-46.528-22.916-73.196-51.92-73.196-79.532 0-27.634 26.668-56.616 73.196-79.532 54.482-26.848 127.634-41.632 205.976-41.632s151.494 14.784 205.954 41.632c46.528 22.916 73.218 51.898 73.218 79.532 0.002 27.612-26.688 56.616-73.218 79.532z" fill="#FFECB1" /><path d="M749.934 146.83c0 11.44-16.72 32.34-53.4 51.14-18.46 9.46-39.46 17.3-62.32 23.36 35.32-18.52 51.44-38.88 51.44-50.12 0-11.46-16.72-32.36-53.42-51.16-48.24-24.74-113.76-38.36-184.5-38.36-43.64 0-85.28 5.18-122.12 14.98 0.62-0.34 1.24-0.66 1.86-0.98 48.26-24.76 113.8-38.38 184.54-38.38s136.26 13.62 184.5 38.36c36.7 18.8 53.42 39.7 53.42 51.16z" fill="#F9A241" /><path d="M685.654 171.21c0 11.24-16.12 31.6-51.44 50.12-36.86 9.78-78.54 14.98-122.2 14.98-70.72 0-136.26-13.62-184.54-38.34-36.68-18.8-53.38-39.7-53.38-51.14 0-11.26 16.14-31.64 51.52-50.16 36.84-9.8 78.48-14.98 122.12-14.98 70.74 0 136.26 13.62 184.5 38.36 36.7 18.8 53.42 39.7 53.42 51.16z" fill="#F9C25B" /><path d="M623.874 191.01c-5-3.1-11.08-4.4-17.2-3.38-29.98 4.98-61.88 7.58-94.66 7.58-32.8 0-64.68-2.6-94.66-7.6-6.12-1-12.18 0.28-17.18 3.36 9.54-10.74 19.64-23.96 25.9-37.46a17.73 17.73 0 0 1 18.98-10.06c21.22 3.54 43.76 5.38 66.96 5.38 23.18 0 45.74-1.84 66.94-5.38a17.73 17.73 0 0 1 18.98 10.06c6.26 13.52 16.38 26.76 25.94 37.5z" fill="#FFFFFF" /><path d="M824.914 195.21h0.02l-38-67.8c2.82 6.48 4.26 12.98 4.26 19.42 0 27.6-26.7 56.6-73.22 79.52-12.558 6.184-26.122 11.718-40.508 16.584-8.346 2.824-17.558 0.044-22.874-6.982-4.942-6.532-9.658-13.386-13.818-20.404-2.68-4.52-7.62-14.46-7.84-14.84-2.14-4.08-5.3-7.4-9.06-9.7-5-3.1-11.08-4.4-17.2-3.38-29.98 4.98-61.88 7.58-94.66 7.58-32.8 0-64.68-2.6-94.66-7.6-6.12-1-12.18 0.28-17.18 3.36a24.854 24.854 0 0 0-9.1 9.74c-0.22 0.38-5.16 10.32-7.84 14.84-4.16 7.016-8.876 13.87-13.816 20.4-5.316 7.026-14.528 9.804-22.874 6.982-14.386-4.866-27.95-10.398-40.51-16.582-46.52-22.92-73.2-51.92-73.2-79.52 0-8.48 2.52-17.1 7.34-25.62 0 0-48.12 88.06-50.18 95.34s-3.12 14.72-3.12 22.28c0 88.44 145.56 160.16 325.14 160.16 179.56 0 325.12-71.72 325.12-160.16 0-15.118-4.26-29.758-12.22-43.618z" fill="#F9A241" /><path d="M511.568 183.486c-26.9 0-45.636-2.6-46.8-2.764a12.002 12.002 0 0 1 3.372-23.762c0.402 0.056 40.764 5.612 87.116-0.03 6.582-0.8 12.562 3.882 13.362 10.462a12 12 0 0 1-10.462 13.362c-16.83 2.046-32.784 2.732-46.588 2.732z" fill="#EA3E24" /><path d="M422.334 533.27c-109.16 48.94-144.88 121.84-171.06 210.6l-23.52-124.96-32.92-174.78c38.16 36 100.86 64.7 177.18 80.72 16.2 3.4 33 6.24 50.32 8.42z" fill="#F9A241" /><path d="M829.174 444.11l-32.92 174.8-33.88 179.94c-55.88 47.02-147.2 77.66-250.36 77.66-103.18 0-194.5-30.64-250.38-77.66l-10.36-54.98c26.18-88.76 61.9-161.66 171.06-210.6 28.66 3.66 58.7 5.6 89.68 5.6 49.68 0 97-4.98 139.98-14.02 76.32-16 139-44.72 177.18-80.74z" fill="#F98B20" /><path d="M367.414 698.564a144.61 120.192 0 1 0 289.22 0 144.61 120.192 0 1 0-289.22 0Z" fill="#FFECB1" /><path d="M553.536 728.626c-20.452 28.27-53.744 39.538-76.712 26.888a40.964 40.964 0 0 1-4.116-2.61c-5.172-3.742-9.228-8.568-12.166-14.126-10.08-19.118-6.894-47.004 9.92-70.248 18.916-26.148 48.838-37.76 71.398-29.318a39.52 39.52 0 0 1 9.442 5.048 40.266 40.266 0 0 1 9.264 9.382c13.418 19 11.232 49.74-7.03 74.984z" fill="#B45631" /><path d="M476.826 755.514a40.964 40.964 0 0 1-4.116-2.61c-5.172-3.742-9.228-8.568-12.166-14.126 14.362-6.652 38.126-23.306 44.532-48.332 6.506-25.392 23.674-41.914 36.788-51.234a39.52 39.52 0 0 1 9.442 5.048 40.266 40.266 0 0 1 9.264 9.382c-9.844 5.916-28.062 19.624-33.878 42.338-7.448 29.05-30.532 49.004-49.866 59.534z" fill="#71260D" /><path d="M685.954 374.15c-50.3 15.74-109.96 24.84-173.94 24.84-179.58 0-325.14-71.72-325.14-160.16 0-7.56 1.06-15 3.12-22.28 1.88-6.68 42.52-81.3 49.24-93.62-4.2 7.96-6.4 15.98-6.4 23.9 0 27.6 26.68 56.6 73.2 79.52 12.56 6.18 26.12 11.72 40.52 16.58 8.34 2.82 17.54 0.04 22.86-6.98 4.94-6.54 9.66-13.38 13.82-20.4 2.68-4.52 7.62-14.46 7.84-14.84 2.14-4.1 5.32-7.44 9.1-9.74 5-3.08 11.06-4.36 17.18-3.36 29.98 5 61.86 7.6 94.66 7.6 32.78 0 64.68-2.6 94.66-7.58 6.12-1.02 12.2 0.28 17.2 3.38 3.76 2.3 6.92 5.62 9.06 9.7 0.22 0.38 5.16 10.32 7.84 14.84 4.16 7.02 8.88 13.88 13.82 20.4 5.32 7.02 14.52 9.8 22.88 6.98 13.46-4.54 26.2-9.7 38.08-15.42 0.76 33.9-2.86 91.86-29.6 146.64z" fill="#F9A241" /><path d="M837.134 238.83c0 56.92-60.3 106.92-151.18 135.32 26.74-54.78 30.36-112.74 29.6-146.64 0.82-0.38 1.62-0.76 2.42-1.16 46.52-22.92 73.22-51.92 73.22-79.52 0-6.44-1.44-12.94-4.26-19.42l38 67.8h-0.02c7.96 13.86 12.22 28.5 12.22 43.62z" fill="#F98B20" /></svg>