<?xml version="1.0" standalone="no"?><!DOCTYPE svg PUBLIC "-//W3C//DTD SVG 1.1//EN" "http://www.w3.org/Graphics/SVG/1.1/DTD/svg11.dtd"><svg class="icon" width="200px" height="200.00px" viewBox="0 0 1024 1024" version="1.1" xmlns="http://www.w3.org/2000/svg"><path d="M798.904 500.684c-3.38 27.4-19.96 58.12-58 70.66-6.8 2.24-12.94 4.5-18.76 6.9-6.66 2.74-12.84 5.52-18.58 8.28-3.42 1.64-7.1 0.44-9.1-2.16-21.5 24.88-49.8 44.48-49.8 44.48-47.28 24.74-113.22 34.1-167.88-28.18-24.3-30.7-62.94-49.22-96.3-60.88-12.04-4.58-25.66-8.6-38.56-11.96 21.72 132.22 63.04 274.66 141.6 338.54 6.68 5.44 10.6 13.54 10.6 22.14v0.9c0 13.76-9.86 25.4-23.34 28.02-40.36 7.76-68.28 24.46-68.28 43.8 0 20.38 30.98 37.82 74.84 45 0.04 0 0.08 0 0.12 0.02 13.76 2.22 28.76 3.46 44.48 3.46 65.98 0 119.44-21.7 119.44-48.48 0-19.3-27.8-35.96-68.02-43.76-13.58-2.64-23.46-14.4-23.34-28.24v-0.86c0.06-8.58 4.06-16.56 10.68-21.98l0.02-0.02c48.72-39.62 83.12-109.46 107.4-188.34a90.74 90.74 0 0 1 45.28-53.98c6.74-3.48 14.44-7.04 23.24-10.68 4.96-2.04 10.24-3.98 16.16-5.94 58.9-19.4 82.14-68.92 84.54-110.34-13.12-0.9-26.06 0.52-38.44 3.6z" fill="#5BC1E7" /><path d="M837.524 492.864c-0.04 1.4-0.1 2.8-0.18 4.22-13.12-0.9-26.06 0.52-38.44 3.6 0.36-2.96 0.58-5.88 0.64-8.74 0.62-26.02-9.94-48.4-25.68-54.46-20.1-7.7-39.46 1.72-53.74 12.96a23.69 23.69 0 0 0-8.88 15.64c-4.54 36.14-10.46 74.26-18.16 112.3-0.46 2.28 0.14 4.4 1.38 5.98-21.5 24.88-49.8 44.48-49.8 44.48-47.28 24.74-113.22 34.1-167.88-28.18-24.3-30.7-62.94-49.22-96.3-60.88-12.04-4.58-25.66-8.6-38.56-11.96-12.68-77.14-18.68-150.78-21.52-203.3 36.14 26.12 92.6 44.84 158.18 50.64 0 0 20.18 1.46 21.1 1.64 14.76 0.72 36.26 1.04 61.16-0.92 1.06-0.28 2.16-0.48 3.3-0.58 0.14 0 2.74-0.14 3.88-0.04 19.26-1.78 40.28-4.98 61.64-10.32 0.62-0.24 12.82-3.48 13.08-3.56 32.42-9.1 60.18-21.74 81.12-36.86-0.96 17.66-2.28 37.7-4.08 59.46-0.84 10.04 8.5 17.76 18.26 15.26 16.68-4.28 33.36-3.4 49.44 2.78 30.96 11.88 51.08 48.38 50.04 90.84z" fill="#A8E2F4" /><path d="M686.504 345.704c-2.88 43.92-7.86 98.62-16.5 155.92-25.78 171.16-71.44 287.66-132.08 336.88a1.4 1.4 0 0 1-0.2 0.16c-9.14 7.48-22.08 7.5-31.22 0a1.378 1.378 0 0 0-0.26-0.22c-60.6-49.28-106.26-165.78-132-336.9-8.62-57.26-13.6-111.92-16.5-155.82 33.2 14.9 74.78 25.36 120.84 29.44 0 0 20.18 1.46 21.1 1.64 14.76 0.72 36.26 1.04 61.16-0.92 1.06-0.28 2.16-0.48 3.3-0.58 0.14 0 2.74-0.14 3.88-0.04 19.26-1.78 40.28-4.98 61.64-10.32 0.62-0.24 12.82-3.48 13.08-3.56 15.78-4.42 30.44-9.68 43.76-15.68z" fill="#B45631" /><path d="M641.384 961.224c0 26.78-53.46 48.48-119.44 48.48-15.72 0-30.72-1.24-44.48-3.46 111.36 9.34 116.672-36.79 100.24-54.3-11.484-12.238-45.94-12.58-48.6-40.44-2.62-27.46 30.6-44.62 31.6-45.12-6.62 5.42-10.62 13.4-10.68 21.98v0.86c-0.12 13.84 9.76 25.6 23.34 28.24 40.22 7.8 68.02 24.46 68.02 43.76z" fill="#2094DC" /><path d="M644.664 628.844c-26.38 102.3-62.58 173.82-106.74 209.66a1.4 1.4 0 0 1-0.2 0.16c-9.14 7.48-22.08 7.5-31.22 0a1.378 1.378 0 0 0-0.26-0.22c-55.98-45.52-99.2-148.38-125.76-298.66 33.36 11.66 72 30.18 96.3 60.88 54.66 62.28 120.6 52.92 167.88 28.18zM686.504 345.704c-0.56 8.66-1.22 17.74-1.96 27.16-46.18 18.46-102.88 28.5-162.42 28.5s-116.24-10.04-162.42-28.5c-0.74-9.42-1.38-18.5-1.96-27.14 33.2 14.9 74.78 25.36 120.84 29.44 0 0 20.18 1.46 21.1 1.64 14.76 0.72 36.26 1.04 61.16-0.92 1.06-0.28 2.16-0.48 3.3-0.58 0.14 0 2.74-0.14 3.88-0.04 19.26-1.78 40.28-4.98 61.64-10.32 0.62-0.24 12.82-3.48 13.08-3.56 15.78-4.42 30.44-9.68 43.76-15.68z" fill="#833A26" /><path d="M359.704 372.864c-7.18-2.88-14.12-5.96-20.76-9.24-5.84-2.88-11.4-5.9-16.68-9.02-0.74-10.64-1.36-20.7-1.86-30.08 10.76 7.76 23.3 14.88 37.34 21.2 0.58 8.64 1.22 17.72 1.96 27.14zM723.864 324.524c-0.5 9.38-1.12 19.42-1.84 30.06-5.28 3.14-10.86 6.14-16.72 9.04-6.64 3.28-13.58 6.36-20.76 9.24 0.74-9.42 1.4-18.5 1.96-27.16 14.06-6.32 26.62-13.42 37.36-21.18z" fill="#30A6DC" /><path d="M601.214 520.87a16 16 0 0 0-16 16v41.03a16 16 0 0 0 32 0v-41.03a16 16 0 0 0-16-16zM766.164 256.864c0 47.02-54.78 87.72-134.6 107.48-8.44 2.1-14.34 9.72-14.34 18.4v89.46c0 9.18-7.76 16.56-17.08 15.96-8.5-0.54-14.92-8-14.92-16.52v-77.48c0-11.16-9.58-19.86-20.68-18.9-0.14 0.02-0.26 0.04-0.4 0.04-9.78 0.84-17.28 9.08-17.28 18.9v142.66c0 9.2-7.74 16.58-17.06 15.98-8.5-0.56-14.94-8-14.94-16.52v-140.94c0-10.12-7.94-18.42-18.04-18.94-88.26-4.48-162.56-32.12-197.42-70.38 125.96-4.24 70.44-135.58 201.38-131.08 130.96 4.5 147.2-81.02 147.2-81.02 34.36 16.28 55.74 39.16 55.74 64.48 0 5.62-1.06 11.12-3.08 16.44 40.64 21.48 65.52 50.3 65.52 81.98z" fill="#FF78AD" /><path d="M647.984 93.964s-16.24 85.52-147.2 81.02c-130.94-4.5-75.42 126.84-201.38 131.08h-0.02c-13.68-15.02-21.3-31.66-21.3-49.2 0-31.68 24.88-60.5 65.52-81.96-2-5.34-3.06-10.84-3.06-16.46 0-33.32 36.94-62.36 91.76-77.76 17.08 8.4 37.5 13.28 59.44 13.28 39.88 0 74.74-16.12 93.7-40.16 19.36 13.3 30.06 27.9 30.06 27.9 11.76 3.48 22.66 7.6 32.48 12.26z" fill="#FF9AB9" /><path d="M585.444 53.804c-18.96 24.04-53.82 40.16-93.7 40.16-21.94 0-42.36-4.88-59.44-13.28 0.92-0.26 1.84-0.5 2.78-0.76 0.7-6.86-0.02-14.04-3.54-20.54-5.58-10.28-4.18-23.48-1.18-34.48 2.46-9 13.68-12.12 20.5-5.76 9.9 9.26 26.72 18.4 53.04 14.54 5.54-0.82 10.92-1.2 16.1-1.2 27.06 0 49.28 10.2 65.44 21.32z" fill="#FFAECB" /><path d="M543.002 180.374m-15.778 0a15.778 15.778 0 1 0 31.556 0 15.778 15.778 0 1 0-31.556 0Z" fill="#FFAECB" /><path d="M426.606 152.42m-15.778 0a15.778 15.778 0 1 0 31.556 0 15.778 15.778 0 1 0-31.556 0Z" fill="#FFFFFF" /><path d="M402.584 233.88v0.574c0 9.358-9.78 15.55-18.222 11.508a173.964 173.964 0 0 1-1.938-0.94c-30.4-14.98-51.28-34.44-61.14-56.48 6.82-4.86 14.16-9.36 22.32-13.64 6.93 18.462 25.536 34.824 51.666 47.452 4.442 2.15 7.314 6.592 7.314 11.526z" fill="#FF538E" /><path d="M723.304 188.784c-9.92 21.94-30.78 41.32-61.08 56.24-37.8 18.62-87.48 28.88-139.9 28.88-23.996 0-47.414-2.148-69.386-6.266-6.134-1.15-10.554-6.542-10.554-12.782 0-8.178 7.446-14.262 15.484-12.756 20.026 3.75 41.746 5.804 64.456 5.804 88.82 0 162.76-31.42 178.5-72.92 8.16 4.32 15.68 8.92 22.48 13.8z" fill="#F03974" /><path d="M514.804 105.328c0 7.596-6.456 13.548-14.034 13.036-38.39-2.59-74.556-11.902-104.706-24.302 11.68-5.56 24.88-10.34 39.26-14.2 20.436 5.484 43.252 10.582 67.482 12.454 6.78 0.526 11.998 6.212 11.998 13.012z" fill="#FF538E" /><path d="M601.214 520.87a16 16 0 0 0-16 16v41.03a16 16 0 0 0 32 0v-41.03a16 16 0 0 0-16-16z" fill="#FF78AD" /><path d="M625.104 312.792c0 7.8-8.66 14.56-21.26 17.78-5.04 1.32-10.72 2.04-16.74 2.04-8.82 0-16.92-1.56-23.36-4.2-8.92-3.62-14.64-9.28-14.64-15.62 0-7.46 7.9-13.96 19.58-17.34 5.44-1.6 11.72-2.5 18.42-2.5 8.14 0 15.68 1.34 21.86 3.62 9.76 3.58 16.14 9.5 16.14 16.22z" fill="#F03974" /><path d="M794.944 65.904c0 11.06-8.96 20-20 20h-104.78c-17.1 0-31.4 12.28-33.96 29.2l-27.24 181.46-3.18 21.1-1.94 12.9c-5.04 1.32-10.72 2.04-16.74 2.04-8.82 0-16.92-1.56-23.36-4.2l2.04-13.66 2.9-19.3 27.98-186.34c5.56-36.62 36.46-63.2 73.5-63.2h104.78c11.04 0 20 8.96 20 20z" fill="#F9C835" /><path d="M383.998 290.286m-15.778 0a15.778 15.778 0 1 0 31.556 0 15.778 15.778 0 1 0-31.556 0Z" fill="#FFAECB" /><path d="M673.87 274.508m-15.778 0a15.778 15.778 0 1 0 31.556 0 15.778 15.778 0 1 0-31.556 0Z" fill="#FFFFFF" /><path d="M605.784 317.664l-1.94 12.9c-5.04 1.32-10.72 2.04-16.74 2.04-8.82 0-16.92-1.56-23.36-4.2l2.04-13.66c5.96 2.42 18.98 8.93 40 2.92z" fill="#F98B20" /><path d="M513.674 804.994c-1.948 0-3.9-0.726-5.414-2.186a218.092 218.092 0 0 1-11.458-11.93 7.796 7.796 0 0 1 11.648-10.36 202.98 202.98 0 0 0 10.636 11.072 7.798 7.798 0 0 1-5.412 13.404zM474.734 719.256c3.934 13.988 9.544 27.716 16.654 40.782l0.026 0.048a6.92 6.92 0 0 1-11.444 7.672 215.276 215.276 0 0 1-25.99-40.426l-0.044-0.09a11.186 11.186 0 1 1 20.798-7.986z" fill="#CB8F62" /></svg>