<?xml version="1.0" standalone="no"?><!DOCTYPE svg PUBLIC "-//W3C//DTD SVG 1.1//EN" "http://www.w3.org/Graphics/SVG/1.1/DTD/svg11.dtd"><svg class="icon" width="200px" height="200.00px" viewBox="0 0 1024 1024" version="1.1" xmlns="http://www.w3.org/2000/svg"><path d="M221.85 885.05a271.506 103.388 0 1 0 543.012 0 271.506 103.388 0 1 0-543.012 0Z" fill="#F03974" /><path d="M128.096 789.218a365.26 165.016 0 1 0 730.52 0 365.26 165.016 0 1 0-730.52 0Z" fill="#FFAECB" /><path d="M858.62 789.22c0.04 11.956-2.976 24.398-8.554 35.652-3.908 8.252-10.104 16.782-11.894 18.912-4.692 5.888-8.438 10.23-14.866 16.306-19.41 2.09-44.002 4.106-65.11 5.21a1255.246 1255.246 0 0 1-65.338 1.682c-89.98 0-171.44-9.33-230.404-24.416-58.964-15.084-95.434-35.924-95.434-58.944 0-23.01 36.47-43.844 95.434-58.928S602.88 700.28 692.86 700.28c19.38 0 38.36 0.43 56.806 1.26 18.444 0.83 41.446 2.486 58.686 4.086 7.57 5.87 11.874 9.652 18.344 16.028 6.938 6.786 14.546 16.566 18.722 23.45 9.066 14.616 13.202 29.936 13.202 44.116z" fill="#FF78AD" /><path d="M920.96 561.86c-10.18 17.71-25.804 37.136-49.64 52.88-23.834 15.744-55.88 27.81-98.9 30.8a458.682 458.682 0 0 0 13.472-23.918 466.124 466.124 0 0 0 11.628-23.782c19.61-4.06 36.564-10.934 50.8-20.594 14.234-9.66 25.75-22.106 34.48-37.306 2.41-4.2 2.81-8.146 2.404-11.388s-1.614-5.782-2.424-7.172a19.016 19.016 0 0 0-4.96-5.624c-2.584-1.95-6.17-3.556-10.96-3.556H827.4c2.01-7.95 3.75-15.63 5.26-22.982s2.79-14.378 3.88-21.018h30.32c11.27 0 21.95 2.91 31.222 8.258s17.138 13.132 22.778 22.882c5.66 9.77 8.5 20.494 8.518 31.23 0.018 10.734-2.788 21.48-8.418 31.29z" fill="#5BC1E7" /><path d="M320.808 758.576a172.548 71.982 0 1 0 345.096 0 172.548 71.982 0 1 0-345.096 0Z" fill="#2273D1" /><path d="M724.82 710.1h0.02s-4.886 6.714-13.168 15.592-19.962 19.918-33.552 28.568v-0.02c-20.18 13.74-47.194 25.114-78.752 33.054s-67.658 12.446-106.008 12.446c-19.18 0-37.79-1.124-55.55-3.242s-34.67-5.228-50.45-9.198-30.42-8.794-43.64-14.344-25.02-11.824-35.12-18.694c-13.58-8.65-25.26-19.69-33.544-28.568-8.286-8.878-13.176-15.592-13.176-15.592h0.02c-60.36-67.52-89.804-144.376-104.16-204.35s-13.62-103.07-13.62-103.07c0 45.06 39.09 85.856 102.29 115.386s150.51 47.796 246.95 47.796c95.69 0 182.39-17.98 245.47-47.104 63.08-29.126 102.54-69.396 103.75-113.974-0.06 9.99-1.266 54.74-16.572 112.782s-44.718 129.372-101.188 192.532z" fill="#87D2ED" /><path d="M836.54 468.198c-1.08 6.64-2.36 13.664-3.872 21.018s-3.258 15.032-5.268 22.982h24.7c0.04-0.14 3.71-16.19 5.12-23.398s2.61-14.092 3.64-20.602h-12.16zM827.64 588.52c-1.86 4.56-3.76 9.08-5.74 13.56-1.96 4.48-4 8.92-6.08 13.32a457.14 457.14 0 0 1-6.58 13.32c-2.24 4.38-4.56 8.74-6.94 13.04-0.38 0.06-2.1 0.36-4 0.68-1.88 0.32-3.96 0.66-5.06 0.82-9.62 2.52-18.48 8.84-25.26 14.96-6.8 6.12-11.52 12.04-12.84 13.78 0.3-0.42 0.6-0.88 0.94-1.36 7.98-11.38 15.22-22.88 21.76-34.36 0.16-0.24 1.88-3.32 2.62-4.62 0.8-1.42 4.3-7.88 5.24-9.68 2.66-5.04 5.18-10.08 7.6-15.1 0.68-1.44 1.38-2.88 2.04-4.34 0.74-1.56 1.46-3.12 2.16-4.68h0.02c5.42-1.12 10.64-2.46 15.66-4.02 5.04-1.54 9.86-3.32 14.46-5.32z" fill="#5392DB" /><path d="M490.458 192.834a13 13 0 0 1-0.9-25.968 25.86 25.86 0 0 0 22.032-15.644 25.752 25.752 0 0 0 0.254-19.84 25.756 25.756 0 0 0-13.848-14.21c-26.31-11.294-38.526-41.888-27.232-68.198 7.172-16.702 22.826-28.578 40.856-30.992a13 13 0 1 1 3.454 25.77c-9.15 1.226-16.782 7.012-20.418 15.48-5.638 13.136 0.46 28.412 13.596 34.05 12.744 5.47 22.596 15.578 27.738 28.458 5.142 12.882 4.962 26.994-0.51 39.738-7.704 17.948-24.6 29.95-44.094 31.324-0.31 0.022-0.62 0.032-0.928 0.032zM575.008 192.834a13 13 0 0 1-0.9-25.968 25.86 25.86 0 0 0 22.032-15.644 25.752 25.752 0 0 0 0.254-19.84 25.756 25.756 0 0 0-13.848-14.21 53.8 53.8 0 0 1-3.32-1.564 13 13 0 0 1 11.892-23.12c0.552 0.284 1.116 0.55 1.694 0.798 12.736 5.466 22.586 15.574 27.73 28.456s4.962 26.994-0.51 39.74c-7.704 17.946-24.6 29.948-44.094 31.322-0.312 0.02-0.622 0.03-0.93 0.03zM414.88 116.416a12.942 12.942 0 0 1-6.332-1.654 51.786 51.786 0 0 1-22.334-65.788c7.17-16.702 22.826-28.578 40.858-30.992a13 13 0 0 1 3.45 25.77c-9.15 1.226-16.782 7.012-20.416 15.478a25.842 25.842 0 0 0 11.13 32.836 13.004 13.004 0 0 1-6.356 24.35z" fill="#FFE35D" /><path d="M724.82 710.1h0.02s-19.54 26.86-46.72 44.16v-0.02c-40.36 27.48-108.06 45.5-184.76 45.5-38.36 0-74.44-4.5-106-12.44-25.84-6.5-48.6-15.28-67.1-25.8 0 0 144.08 21.1 218.4-74.9 25.3-32.7 64.16-85.88 114.46-138.78 109.32-26.32 185.06-78.8 189.3-139.76l0.12-0.06c-0.66 29.98-9.5 181.04-117.72 302.1z" fill="#60C3E8" /><path d="M842.594 402.68c0 45.06-39.09 85.854-102.29 115.382s-150.51 47.792-246.948 47.792-183.748-18.264-246.948-47.792-102.29-70.322-102.29-115.382 39.09-85.854 102.29-115.382 150.51-47.792 246.948-47.792 183.748 18.264 246.948 47.792 102.29 70.322 102.29 115.382z" fill="#D0EFF9" /><path d="M789.92 402.68c0 6.52-1.52 13.14-4.44 19.72-23.38-52.52-136.84-103.98-292.12-103.98s-268.74 51.48-292.1 104c0.06 0.14 0.12 0.28 0.16 0.42-3.06-6.74-4.64-13.5-4.64-20.16 0-58.52 121.8-123.72 296.58-123.72 174.76 0 296.56 65.2 296.56 123.72z" fill="#2273D1" /><path d="M264.038 697.808l-59.88 32.014a19.506 19.506 0 0 0-10.308 17.202v62.452a19.5 19.5 0 0 0 9.196 16.558l59.88 37.284a19.506 19.506 0 0 0 20.62 0l59.88-37.284a19.504 19.504 0 0 0 9.196-16.558v-62.452a19.508 19.508 0 0 0-10.308-17.202l-59.88-32.014a19.512 19.512 0 0 0-18.396 0z" fill="#FFECB1" /><path d="M381.494 735.502l-59.88 32.014a19.506 19.506 0 0 0-10.308 17.202v62.452a19.5 19.5 0 0 0 9.196 16.558l59.88 37.284a19.506 19.506 0 0 0 20.62 0l59.88-37.284a19.506 19.506 0 0 0 9.196-16.558v-62.452a19.508 19.508 0 0 0-10.308-17.202l-59.88-32.014a19.512 19.512 0 0 0-18.396 0z" fill="#FFFFFF" /><path d="M342.32 729.82l-0.54-0.3-31.48 16.84a43.434 43.434 0 0 0-23 38.36v62.46c0 4.36 0.64 8.6 1.86 12.64l22.14-13.78v-61.32c0-7.2 3.96-13.8 10.32-17.2l31-16.58v-3.92c0-7.2-3.96-13.8-10.3-17.2z" fill="#FFD550" /><path d="M494.08 799.74v30.82h-0.72c-7.96 0-15.72-0.24-23.28-0.68v-30.7c7.66 0.38 15.42 0.56 23.28 0.56z" fill="#2253D1" /><path d="M494.08 784.72v15.02h-0.72c-7.86 0-15.62-0.18-23.28-0.56v-14.46c0-7.2-3.96-13.8-10.32-17.2l-59.88-32.02a19.348 19.348 0 0 0-9.18-2.3c-3.18 0-6.34 0.76-9.2 2.3l-28.88 15.44v-3.92c0-7.2-3.96-13.8-10.3-17.2l-3.42-1.82-56.46-30.2c-2.88-1.52-6.04-2.3-9.2-2.3s-6.32 0.78-9.2 2.3l-8.78 4.7c-0.04-0.06-0.1-0.12-0.14-0.18-1.06-1.24-2.12-2.5-3.14-3.74-2.74-3.28-5.38-6.58-7.98-9.88-0.78-1-1.56-2-2.34-3.02-0.56-0.74-1.12-1.48-1.7-2.22l12.76-6.82c6.3-3.36 13.38-5.14 20.52-5.14 7.12 0 14.22 1.78 20.5 5.14l59.88 32.02c2.68 1.42 5.16 3.1 7.42 4.98 1.34 1.12 2.58 2.32 3.76 3.56l5.38-2.86a43.66 43.66 0 0 1 20.52-5.14c7.12 0 14.22 1.78 20.5 5.14l59.88 32.02a43.434 43.434 0 0 1 23 38.36z" fill="#30A6DC" /><path d="M785.472 422.416c-23.38 52.52-136.84 103.98-292.12 103.98-155.26 0-268.72-51.46-292.1-103.98 23.36-52.52 136.82-104 292.1-104 155.3 0 268.76 51.48 292.12 104z" fill="#71260D" /><path d="M785.472 422.416c-23.38 52.52-136.84 103.98-292.12 103.98-155.26 0-268.72-51.46-292.1-103.98 0 0 161.3 90.66 292.1 0s292.12 0 292.12 0z" fill="#9A4C2C" /><path d="M838.174 843.784c-4.692 5.888-8.472 10.19-14.866 16.306" fill="#FF78AD" /></svg>