<svg width="16" height="16" viewBox="0 0 16 16" fill="none" xmlns="http://www.w3.org/2000/svg">
<path d="M1.5 7.00006H14.5C14.5988 6.99989 14.6953 6.97047 14.7773 6.91552C14.8594 6.86057 14.9234 6.78254 14.9611 6.69128C14.9989 6.60003 15.0088 6.49963 14.9896 6.40275C14.9704 6.30587 14.9229 6.21686 14.8531 6.14693L11.3531 2.64693C11.258 2.56075 11.1334 2.51445 11.0051 2.51761C10.8768 2.52077 10.7546 2.57315 10.6638 2.6639C10.5731 2.75466 10.5207 2.87684 10.5176 3.00515C10.5144 3.13346 10.5607 3.25807 10.6469 3.35318L13.2922 6.00006H1.5C1.36739 6.00006 1.24021 6.05274 1.14645 6.1465C1.05268 6.24027 1 6.36745 1 6.50006C1 6.63267 1.05268 6.75984 1.14645 6.85361C1.24021 6.94738 1.36739 7.00006 1.5 7.00006ZM14.5 9.00006H1.5C1.40123 9.00023 1.30473 9.02964 1.22266 9.0846C1.1406 9.13955 1.07664 9.21757 1.03887 9.30883C1.00109 9.40009 0.991194 9.50049 1.01042 9.59737C1.02964 9.69424 1.07712 9.78326 1.14688 9.85318L4.64687 13.3532C4.69318 13.3997 4.74822 13.4366 4.80881 13.4617C4.86941 13.4869 4.93438 13.4999 5 13.4999C5.06562 13.4999 5.13059 13.4869 5.19119 13.4617C5.25178 13.4366 5.30682 13.3997 5.35313 13.3532C5.39961 13.3069 5.4365 13.2518 5.46167 13.1912C5.48684 13.1306 5.49979 13.0657 5.49979 13.0001C5.49979 12.9344 5.48684 12.8695 5.46167 12.8089C5.4365 12.7483 5.39961 12.6932 5.35313 12.6469L2.70781 10.0001H14.5C14.6326 10.0001 14.7598 9.94738 14.8536 9.85361C14.9473 9.75984 15 9.63267 15 9.50006C15 9.36745 14.9473 9.24027 14.8536 9.1465C14.7598 9.05274 14.6326 9.00006 14.5 9.00006Z" fill="#BEBEBE"/>
</svg>
