<svg width="24" height="24" viewBox="0 0 24 24" fill="none" xmlns="http://www.w3.org/2000/svg">
<path d="M6.77051 0H17.0562V3.42858H6.77051V0Z" fill="#B3C8DA"/>
<path d="M8.48486 0H10.1992V3.42858H8.48489L8.48486 0ZM13.6278 0H15.342V3.42858H13.6277L13.6278 0Z" fill="white"/>
<path d="M10.6277 3.42859H13.1991V7.7143H10.6277V3.42859Z" fill="#D8E3EB"/>
<path d="M9.34294 7.71426L11.3075 5.74883C11.3871 5.66914 11.4816 5.60591 11.5857 5.56278C11.6897 5.51964 11.8013 5.49744 11.9139 5.49744C12.0266 5.49744 12.1381 5.51964 12.2422 5.56278C12.3462 5.60591 12.4408 5.66914 12.5204 5.74883L14.4849 7.71426H17.9135C18.0261 7.71425 18.1375 7.73642 18.2415 7.77949C18.3455 7.82257 18.44 7.8857 18.5196 7.9653C18.5992 8.04489 18.6623 8.13938 18.7054 8.24337C18.7485 8.34737 18.7707 8.45883 18.7707 8.57139V12L20.7361 13.9654C20.8968 14.1261 20.987 14.3441 20.987 14.5714C20.987 14.7987 20.8968 15.0167 20.7361 15.1774L18.7715 17.1428V20.5714C18.7715 20.684 18.7493 20.7954 18.7063 20.8994C18.6632 21.0034 18.6 21.0979 18.5205 21.1775C18.4409 21.2571 18.3464 21.3202 18.2424 21.3633C18.1384 21.4064 18.0269 21.4285 17.9144 21.4285H14.4858L12.5212 23.394C12.4416 23.4737 12.3471 23.5369 12.243 23.58C12.139 23.6231 12.0274 23.6454 11.9148 23.6454C11.8021 23.6454 11.6906 23.6231 11.5866 23.58C11.4825 23.5369 11.388 23.4737 11.3084 23.394L9.34294 21.4285H5.91436C5.8018 21.4285 5.69034 21.4064 5.58634 21.3633C5.48234 21.3202 5.38785 21.2571 5.30825 21.1775C5.22866 21.0979 5.16552 21.0034 5.12245 20.8994C5.07937 20.7954 5.0572 20.684 5.05721 20.5714V17.1429L3.09178 15.1774C2.93109 15.0167 2.84082 14.7987 2.84082 14.5714C2.84082 14.3441 2.93109 14.1261 3.09178 13.9654L5.05636 12V8.57139C5.05636 8.34406 5.14667 8.12605 5.30741 7.9653C5.46815 7.80456 5.68617 7.71426 5.9135 7.71426H9.34207H9.34294Z" fill="#D8E3EB"/>
<path d="M6.34204 14.5714C6.34204 16.0491 6.92903 17.4662 7.97388 18.511C9.01872 19.5559 10.4358 20.1429 11.9135 20.1429C13.3911 20.1429 14.8082 19.5559 15.8531 18.511C16.8979 17.4662 17.4849 16.0491 17.4849 14.5714C17.4849 13.0938 16.8979 11.6767 15.8531 10.6318C14.8082 9.58699 13.3911 9 11.9135 9C10.4358 9 9.01872 9.58699 7.97388 10.6318C6.92903 11.6767 6.34204 13.0938 6.34204 14.5714Z" fill="#B3C8DA"/>
<path d="M11.9573 11.1428C12.523 11.1428 12.9858 11.3057 13.3544 11.6314C13.7144 11.9571 13.903 12.3943 13.903 12.9257C13.903 13.4571 13.6973 13.9371 13.303 14.3657C13.0887 14.5886 12.6687 14.9228 12.0344 15.3514C11.2544 15.8743 10.8087 16.3457 10.6973 16.7571H13.9115V17.3828H9.83154C9.83154 16.8257 10.0287 16.32 10.4401 15.8657C10.6801 15.5914 11.1173 15.2228 11.7687 14.7771C12.2487 14.4343 12.5658 14.1857 12.7287 14.0143C13.0372 13.68 13.2001 13.3114 13.2001 12.9171C13.2001 12.54 13.0887 12.2571 12.8658 12.0514C12.643 11.8457 12.3258 11.7428 11.9315 11.7428C11.5115 11.7428 11.1858 11.88 10.963 12.1714C10.723 12.4457 10.5944 12.8571 10.5858 13.3971H9.88301C9.88301 12.7114 10.0801 12.1628 10.4573 11.76C10.8344 11.3485 11.3401 11.1428 11.9573 11.1428L11.9573 11.1428Z" fill="white"/>
</svg>
