<svg width="24" height="24" viewBox="0 0 24 24" fill="none" xmlns="http://www.w3.org/2000/svg">
<path d="M6.77051 0H17.0562V3.42858H6.77051V0Z" fill="#D3AC6B"/>
<path d="M8.48486 0H10.1992V3.42858H8.48489L8.48486 0ZM13.6278 0H15.342V3.42858H13.6277L13.6278 0Z" fill="white"/>
<path d="M10.6277 3.42859H13.1991V7.7143H10.6277V3.42859Z" fill="#F0C789"/>
<path d="M9.34294 7.71426L11.3075 5.74883C11.3871 5.66914 11.4816 5.60591 11.5857 5.56278C11.6897 5.51964 11.8013 5.49744 11.9139 5.49744C12.0266 5.49744 12.1381 5.51964 12.2422 5.56278C12.3462 5.60591 12.4408 5.66914 12.5204 5.74883L14.4849 7.71426H17.9135C18.0261 7.71425 18.1375 7.73642 18.2415 7.77949C18.3455 7.82257 18.44 7.8857 18.5196 7.9653C18.5992 8.04489 18.6623 8.13938 18.7054 8.24337C18.7485 8.34737 18.7707 8.45883 18.7707 8.57139V12L20.7361 13.9654C20.8968 14.1261 20.987 14.3441 20.987 14.5714C20.987 14.7987 20.8968 15.0167 20.7361 15.1774L18.7715 17.1428V20.5714C18.7715 20.684 18.7493 20.7954 18.7063 20.8994C18.6632 21.0034 18.6 21.0979 18.5205 21.1775C18.4409 21.2571 18.3464 21.3202 18.2424 21.3633C18.1384 21.4064 18.0269 21.4285 17.9144 21.4285H14.4858L12.5212 23.394C12.4416 23.4737 12.3471 23.5369 12.243 23.58C12.139 23.6231 12.0274 23.6454 11.9148 23.6454C11.8021 23.6454 11.6906 23.6231 11.5866 23.58C11.4825 23.5369 11.388 23.4737 11.3084 23.394L9.34294 21.4285H5.91436C5.8018 21.4285 5.69034 21.4064 5.58634 21.3633C5.48234 21.3202 5.38785 21.2571 5.30825 21.1775C5.22866 21.0979 5.16552 21.0034 5.12245 20.8994C5.07937 20.7954 5.0572 20.684 5.05721 20.5714V17.1429L3.09178 15.1774C2.93109 15.0167 2.84082 14.7987 2.84082 14.5714C2.84082 14.3441 2.93109 14.1261 3.09178 13.9654L5.05636 12V8.57139C5.05636 8.34406 5.14667 8.12605 5.30741 7.9653C5.46815 7.80456 5.68617 7.71426 5.9135 7.71426H9.34207H9.34294Z" fill="#F0C789"/>
<path d="M6.34204 14.5714C6.34204 16.0491 6.92903 17.4662 7.97388 18.511C9.01872 19.5559 10.4358 20.1429 11.9135 20.1429C13.3911 20.1429 14.8082 19.5559 15.8531 18.511C16.8979 17.4662 17.4849 16.0491 17.4849 14.5714C17.4849 13.0938 16.8979 11.6767 15.8531 10.6318C14.8082 9.58699 13.3911 9 11.9135 9C10.4358 9 9.01872 9.58699 7.97388 10.6318C6.92903 11.6767 6.34204 13.0938 6.34204 14.5714Z" fill="#D3AC6B"/>
<path d="M11.9313 11.1428C12.5142 11.1428 12.9942 11.2885 13.3542 11.5885C13.7056 11.8885 13.8856 12.2914 13.8856 12.8057C13.8856 13.4914 13.5514 13.9542 12.8828 14.1771C13.2428 14.2885 13.5171 14.46 13.7056 14.7C13.9113 14.94 14.0142 15.24 14.0142 15.6C14.0142 16.1571 13.8171 16.6114 13.4313 16.9628C13.0371 17.3228 12.5228 17.5028 11.8885 17.5028C11.3056 17.5028 10.8342 17.3485 10.4656 17.0571C10.0285 16.6971 9.78851 16.1742 9.73706 15.4885H10.4485C10.4656 15.9685 10.6285 16.3371 10.9285 16.5857C11.1856 16.7914 11.5028 16.9028 11.8885 16.9028C12.3256 16.9028 12.6771 16.7742 12.9428 16.5257C13.1828 16.2857 13.3113 15.9857 13.3113 15.6257C13.3113 15.2571 13.1913 14.9742 12.9513 14.7685C12.7113 14.5628 12.3856 14.4685 11.9571 14.4685H11.4599V13.92H11.9313C12.3428 13.92 12.6514 13.8257 12.8656 13.6457C13.0799 13.4571 13.1913 13.1914 13.1913 12.8485C13.1913 12.5057 13.0799 12.24 12.8742 12.0514C12.6513 11.8457 12.3342 11.7514 11.9399 11.7514C11.5285 11.7514 11.2114 11.8542 10.9799 12.0771C10.7399 12.3 10.6028 12.6171 10.5599 13.0285H9.86564C9.91706 12.4371 10.1399 11.9742 10.5171 11.64C10.8771 11.3057 11.3485 11.1428 11.9313 11.1428Z" fill="white"/>
</svg>
