<svg width="24" height="24" viewBox="0 0 24 24" fill="none" xmlns="http://www.w3.org/2000/svg">
<path d="M7.25732 0.0327148H8.99552V4.37819H7.25732V0.0327148ZM15.0768 0.0327148H16.815V4.37819H15.0768V0.0327148ZM9.86461 0.0327148H14.2101V4.37819H9.86461V0.0327148Z" fill="#EAAE4E"/>
<path d="M11.6004 4.37817H12.4695V6.11636H11.6004V4.37817ZM18.4994 21.3232H5.57278C5.54241 21.3232 5.51904 21.2998 5.51904 21.2695V8.3405C5.51904 8.31013 5.54241 8.28677 5.57278 8.28677H18.5017C18.5321 8.28677 18.5555 8.31013 18.5555 8.3405V21.2695C18.5531 21.2975 18.5298 21.3232 18.4994 21.3232Z" fill="#FCE269"/>
<path d="M21.2143 14.8424L12.0725 23.9842C12.0514 24.0053 12.0187 24.0053 11.9977 23.9842L2.85586 14.8424C2.83483 14.8213 2.83483 14.7886 2.85586 14.7676L11.9977 5.62576C12.0187 5.60473 12.0514 5.60473 12.0725 5.62576L21.2143 14.7676C21.2354 14.7886 21.2354 14.8213 21.2143 14.8424Z" fill="#FCE269"/>
<path d="M16.9692 20.0196H7.10311C6.94891 20.0196 6.82275 19.8934 6.82275 19.7392V9.87081C6.82275 9.71661 6.94891 9.59045 7.10311 9.59045H16.9692C17.1234 9.59045 17.2496 9.71661 17.2496 9.87081V19.7369C17.2496 19.8934 17.1234 20.0196 16.9692 20.0196Z" fill="#E5AA42"/>
<path d="M12.2009 11.0506L13.1681 13.0131C13.2055 13.0902 13.2803 13.1439 13.3667 13.158L15.5301 13.4733C15.7474 13.5037 15.8338 13.7701 15.6773 13.9242L14.112 15.4498C14.0489 15.5106 14.0209 15.597 14.0372 15.6835L14.4064 17.8399C14.4438 18.0548 14.2171 18.2207 14.0232 18.1179L12.0865 17.0993C12.0094 17.0595 11.9182 17.0595 11.8411 17.0993L9.90437 18.1179C9.71046 18.2207 9.48384 18.0548 9.52122 17.8399L9.89035 15.6835C9.90437 15.597 9.87633 15.5106 9.81559 15.4498L8.25028 13.9242C8.09375 13.7724 8.18019 13.5061 8.39747 13.4733L10.5609 13.158C10.6473 13.1463 10.7221 13.0925 10.7594 13.0131L11.7267 11.0506C11.8248 10.8544 12.1028 10.8544 12.2009 11.0506Z" fill="#FCE269"/>
<path d="M7.25732 3.9436H16.8174V4.37815H7.25732V3.9436Z" fill="#C4AB6B"/>
</svg>
