<?xml version="1.0" encoding="UTF-8"?>
<svg viewBox="0 0 24 24" width="18" height="18" xmlns="http://www.w3.org/2000/svg">
    <g transform="translate(2,2) scale(0.75)">
        <path d="M3.88 21.09c-.27 0-.54-.1-.75-.32-0.42-.42-.42-1.1 0-1.52l6.25-6.25c.42-.42 1.1-.42 1.52 0s.42 1.1 0 1.52L4.65 20.25c-.21.21-.48.32-.77.32zM14.26 11.31c-.27 0-.55-.1-.76-.32-0.42-.42-.42-1.1 0-1.52l6.26-6.26c.42-.42 1.1-.42 1.52 0s.42 1.1 0 1.52l-6.26 6.26c-.21.21-.48.32-.76.32z"
              fill="#333"/>
        <path d="M21.07 11.75c-.59 0-1.07-.48-1.07-1.07V5.32c0-.45-.37-.82-.82-.82H13.8c-.59 0-1.07-.48-1.07-1.07s.48-1.07 1.07-1.07h5.36c1.63 0 2.96 1.33 2.96 2.96v5.36c0 .59-.48 1.07-1.07 1.07zM10.67 22.17H5.31c-1.63 0-2.96-1.33-2.96-2.96V13.85c0-.59.48-1.07 1.07-1.07s1.07.48 1.07 1.07v5.36c0 .45.37.82.82.82h5.36c.59 0 1.07.48 1.07 1.07 0 .59-.48 1.07-1.07 1.07z"
              fill="#333"/>
    </g>
</svg>