<svg width="32" height="33" viewBox="0 0 32 33" fill="none" xmlns="http://www.w3.org/2000/svg">
<path d="M4.95533 9.67176L14.3887 4.0611C15.0118 3.69051 15.7239 3.49624 16.4489 3.49905C17.1739 3.50187 17.8845 3.70167 18.5047 4.0771L27.738 9.6671C28.3267 10.0234 28.8135 10.5256 29.1513 11.125C29.4892 11.7245 29.6667 12.401 29.6667 13.0891V25.5011C29.6667 26.562 29.2452 27.5794 28.4951 28.3295C27.7449 29.0797 26.7275 29.5011 25.6667 29.5011H7C5.93913 29.5011 4.92172 29.0797 4.17157 28.3295C3.42143 27.5794 3 26.562 3 25.5011V13.1098C2.99999 12.4164 3.18022 11.7349 3.52301 11.1322C3.8658 10.5295 4.35938 10.0262 4.95533 9.67176ZM6.31867 11.9638C6.11998 12.0819 5.9554 12.2496 5.8411 12.4505C5.7268 12.6514 5.66669 12.8786 5.66667 13.1098V25.5011C5.66667 25.8547 5.80714 26.1939 6.05719 26.4439C6.30724 26.694 6.64638 26.8344 7 26.8344H25.6667C26.0203 26.8344 26.3594 26.694 26.6095 26.4439C26.8595 26.1939 27 25.8547 27 25.5011V13.0891C27 12.8597 26.9409 12.6343 26.8283 12.4345C26.7157 12.2346 26.5535 12.0672 26.3573 11.9484L17.124 6.35843C16.9172 6.23316 16.6802 6.16649 16.4384 6.16555C16.1966 6.16461 15.9591 6.22944 15.7513 6.3531L6.318 11.9638H6.31867Z" fill="#333333"/>
<path d="M12.6667 15.1667H19.3334C19.687 15.1667 20.0261 15.3072 20.2762 15.5573C20.5262 15.8073 20.6667 16.1465 20.6667 16.5001C20.6667 16.8537 20.5262 17.1928 20.2762 17.4429C20.0261 17.6929 19.687 17.8334 19.3334 17.8334H12.6667C12.3131 17.8334 11.9739 17.6929 11.7239 17.4429C11.4739 17.1928 11.3334 16.8537 11.3334 16.5001C11.3334 16.1465 11.4739 15.8073 11.7239 15.5573C11.9739 15.3072 12.3131 15.1667 12.6667 15.1667ZM12.6667 17.8334C13.0203 17.8334 13.3595 17.6929 13.6095 17.4429C13.8596 17.1928 14 16.8537 14 16.5001C14 16.1465 13.8596 15.8073 13.6095 15.5573C13.3595 15.3072 13.0203 15.1667 12.6667 15.1667H19.3334C18.9798 15.1667 18.6406 15.3072 18.3906 15.5573C18.1405 15.8073 18 16.1465 18 16.5001C18 16.8537 18.1405 17.1928 18.3906 17.4429C18.6406 17.6929 18.9798 17.8334 19.3334 17.8334H12.6667Z" fill="#333333"/>
</svg>
