<?xml version="1.0" standalone="no"?><!DOCTYPE svg PUBLIC "-//W3C//DTD SVG 1.1//EN" "http://www.w3.org/Graphics/SVG/1.1/DTD/svg11.dtd"><svg t="1752324319889" class="icon" viewBox="0 0 1024 1024" version="1.1" xmlns="http://www.w3.org/2000/svg" p-id="9471" xmlns:xlink="http://www.w3.org/1999/xlink" width="200" height="200"><path d="M600.405333 388.394667l-7.082666-202.453334a342.058667 342.058667 0 0 1 253.696 236.544l-202.496 7.082667a42.666667 42.666667 0 0 1-44.117334-41.173333z m334.208 31.573333a427.178667 427.178667 0 0 0-344.917333-321.578667c-46.506667-7.68-83.669333 32.682667-82.048 79.786667l7.466667 213.205333a128 128 0 0 0 132.394666 123.477334l213.205334-7.466667c47.104-1.621333 84.821333-41.557333 73.898666-87.424zM401.066667 234.666667l-0.042667-0.085334a42.666667 42.666667 0 1 0-35.2-77.738666A384.128 384.128 0 0 0 512 896a384.128 384.128 0 0 0 355.2-237.824 42.666667 42.666667 0 0 0-76.074667-38.613333l-0.341333-0.170667A298.794667 298.794667 0 0 1 213.333333 512a298.752 298.752 0 0 1 187.733334-277.376z" fill="#14101C" p-id="9472"></path></svg>