<svg width="25" height="26" viewBox="0 0 25 26" fill="none" xmlns="http://www.w3.org/2000/svg">
<path d="M12.5 20.5C14.4891 20.5 16.3968 19.7098 17.8033 18.3033C19.2098 16.8968 20 14.9891 20 13C20 11.0109 19.2098 9.10322 17.8033 7.6967C16.3968 6.29018 14.4891 5.5 12.5 5.5C10.5109 5.5 8.60322 6.29018 7.1967 7.6967C5.79018 9.10322 5 11.0109 5 13C5 14.9891 5.79018 16.8968 7.1967 18.3033C8.60322 19.7098 10.5109 20.5 12.5 20.5ZM21.875 13C21.875 14.2311 21.6325 15.4502 21.1614 16.5877C20.6902 17.7251 19.9997 18.7586 19.1291 19.6291C18.2586 20.4997 17.2251 21.1902 16.0877 21.6614C14.9502 22.1325 13.7311 22.375 12.5 22.375C11.2689 22.375 10.0498 22.1325 8.91234 21.6614C7.77492 21.1902 6.74142 20.4997 5.87087 19.6291C5.00032 18.7586 4.30977 17.7251 3.83863 16.5877C3.36749 15.4502 3.125 14.2311 3.125 13C3.125 10.5136 4.11272 8.12903 5.87087 6.37087C7.62903 4.61272 10.0136 3.625 12.5 3.625C14.9864 3.625 17.371 4.61272 19.1291 6.37087C20.8873 8.12903 21.875 10.5136 21.875 13Z" fill="black"/>
<path d="M12.1874 8.15625C12.436 8.15625 12.6745 8.25502 12.8503 8.43084C13.0261 8.60665 13.1249 8.84511 13.1249 9.09375V13.1969L15.5468 15.6187C15.7225 15.7949 15.821 16.0336 15.8207 16.2824C15.8204 16.5311 15.7213 16.7696 15.5452 16.9453C15.3691 17.121 15.1304 17.2196 14.8816 17.2193C14.6328 17.219 14.3944 17.1199 14.2187 16.9438L11.5265 14.25C11.3506 14.0744 11.2517 13.8361 11.2515 13.5875V9.09375C11.2515 8.84511 11.3502 8.60665 11.5261 8.43084C11.7019 8.25502 11.9403 8.15625 12.189 8.15625H12.1874Z" fill="black"/>
</svg>
