<svg width="28" height="29" viewBox="0 0 28 29" fill="none" xmlns="http://www.w3.org/2000/svg">
<path d="M27 27.1562H24.4688C24.4688 21.5647 19.9353 17.0312 14.3438 17.0312C8.75222 17.0312 4.21875 21.5647 4.21875 27.1562H1.6875C1.6875 21.8128 5.0047 17.2515 9.68752 15.3961C7.91184 14.0051 6.75 11.8675 6.75 9.4375C6.75 5.24322 10.1495 1.84375 14.3438 1.84375C18.538 1.84375 21.9375 5.24322 21.9375 9.4375C21.9375 11.8675 20.7757 14.0051 19 15.3961C23.6828 17.2515 27 21.8128 27 27.1562ZM19.4062 9.4375C19.4062 6.64173 17.1395 4.375 14.3438 4.375C11.548 4.375 9.28125 6.64173 9.28125 9.4375C9.28125 12.2333 11.548 14.5 14.3438 14.5C17.1395 14.5 19.4062 12.2333 19.4062 9.4375Z" fill="#BEBEBE"/>
</svg>
