<?xml version="1.0" standalone="no"?><!DOCTYPE svg PUBLIC "-//W3C//DTD SVG 1.1//EN" "http://www.w3.org/Graphics/SVG/1.1/DTD/svg11.dtd"><svg t="1752411861037" class="icon" viewBox="0 0 1024 1024" version="1.1" xmlns="http://www.w3.org/2000/svg" p-id="11425" xmlns:xlink="http://www.w3.org/1999/xlink" width="200" height="200"><path d="M512 819.2a307.2 307.2 0 1 0 0-614.4 307.2 307.2 0 0 0 0 614.4zM896 512A384 384 0 1 1 128 512a384 384 0 0 1 768 0z" fill="#000000" p-id="11426"></path><path d="M499.2 313.6a38.4 38.4 0 0 1 38.4 38.4v168.064l99.2 99.2a38.4 38.4 0 0 1-54.4 54.272L472.128 563.2a38.4 38.4 0 0 1-11.264-27.136V352a38.4 38.4 0 0 1 38.4-38.4z" fill="#000000" p-id="11427"></path></svg>